<?xml version="1.0" encoding="UTF-8" standalone="no"?>
<!-- Created with Inkscape (http://www.inkscape.org/) -->

<svg
   width="1280"
   height="640"
   viewBox="0 0 1280 640"
   version="1.1"
   id="svg5"
   inkscape:version="1.2.2 (b0a8486541, 2022-12-01)"
   sodipodi:docname="logo.inkscape.svg"
   xmlns:inkscape="http://www.inkscape.org/namespaces/inkscape"
   xmlns:sodipodi="http://sodipodi.sourceforge.net/DTD/sodipodi-0.dtd"
   xmlns:xlink="http://www.w3.org/1999/xlink"
   xmlns="http://www.w3.org/2000/svg"
   xmlns:svg="http://www.w3.org/2000/svg">
  <sodipodi:namedview
     id="namedview7"
     pagecolor="#ffffff"
     bordercolor="#000000"
     borderopacity="0.25"
     inkscape:showpageshadow="2"
     inkscape:pageopacity="0.0"
     inkscape:pagecheckerboard="false"
     inkscape:deskcolor="#d1d1d1"
     inkscape:document-units="px"
     showgrid="false"
     inkscape:zoom="1.781706"
     inkscape:cx="684.73699"
     inkscape:cy="323.28566"
     inkscape:window-width="2560"
     inkscape:window-height="1371"
     inkscape:window-x="1920"
     inkscape:window-y="32"
     inkscape:window-maximized="1"
     inkscape:current-layer="layer3" />
  <defs
     id="defs2">
    <inkscape:path-effect
       effect="bool_op"
       operand-path="#path335"
       id="path-effect1002"
       is_visible="true"
       lpeversion="1"
       operation="diff"
       swap-operands="false"
       filltype-this="from-curve"
       filter=""
       filltype-operand="from-curve" />
    <inkscape:path-effect
       effect="powerclip"
       id="path-effect337"
       is_visible="true"
       lpeversion="1"
       inverse="true"
       flatten="false"
       hide_clip="false"
       message="Use fill-rule evenodd on &lt;b&gt;fill and stroke&lt;/b&gt; dialog if no flatten result after convert clip to paths." />
    <inkscape:path-effect
       effect="powerclip"
       id="path-effect328"
       is_visible="true"
       lpeversion="1"
       inverse="true"
       flatten="false"
       hide_clip="false"
       message="Use fill-rule evenodd on &lt;b&gt;fill and stroke&lt;/b&gt; dialog if no flatten result after convert clip to paths." />
    <inkscape:path-effect
       effect="bool_op"
       operand-path="#rect6219"
       id="path-effect1975"
       is_visible="true"
       lpeversion="1.2"
       operation="diff"
       swap-operands="false"
       filltype-this="from-curve"
       filter=""
       filltype-operand="from-curve" />
    <inkscape:path-effect
       effect="clone_original"
       linkeditem=""
       id="path-effect1973"
       is_visible="true"
       lpeversion="1"
       method="originald"
       attributes=""
       css_properties=""
       allow_transforms="true" />
    <inkscape:path-effect
       effect="bool_op"
       operand-path=""
       id="path-effect1971"
       is_visible="true"
       lpeversion="1"
       operation="union"
       swap-operands="false"
       filltype-this="from-curve"
       filter=""
       filltype-operand="from-curve" />
    <inkscape:path-effect
       effect="bool_op"
       operand-path="#layer5"
       id="path-effect1895"
       is_visible="true"
       lpeversion="1"
       operation="inters"
       swap-operands="false"
       filltype-this="from-curve"
       filter=""
       filltype-operand="from-curve" />
    <inkscape:path-effect
       effect="mirror_symmetry"
       start_point="123.42741,311.49757"
       end_point="1068.1281,-633.20316"
       center_point="595.77778,-160.85279"
       id="path-effect1305"
       is_visible="true"
       lpeversion="1.2"
       lpesatellites=""
       mode="horizontal"
       discard_orig_path="false"
       fuse_paths="true"
       oposite_fuse="false"
       split_items="false"
       split_open="false"
       link_styles="true" />
    <inkscape:path-effect
       effect="clone_original"
       linkeditem=""
       method="bsplinespiro"
       allow_transforms="false"
       id="path-effect999"
       lpeversion="1" />
    <inkscape:path-effect
       effect="bool_op"
       operand-path="#rect6219"
       id="path-effect4319"
       is_visible="true"
       lpeversion="1"
       operation="diff"
       swap-operands="false"
       filltype-this="from-curve"
       filter=""
       filltype-operand="from-curve" />
    <inkscape:path-effect
       effect="bool_op"
       operand-path="#rect1181"
       id="path-effect446"
       is_visible="true"
       lpeversion="1.2"
       operation="inters"
       swap-operands="false"
       filltype-this="from-curve"
       filter=""
       filltype-operand="from-curve" />
    <inkscape:path-effect
       effect="bool_op"
       operand-path=""
       id="path-effect387"
       is_visible="true"
       lpeversion="1"
       operation="inters"
       swap-operands="false"
       filltype-this="from-curve"
       filter=""
       filltype-operand="from-curve" />
    <inkscape:path-effect
       effect="bool_op"
       operand-path="#rect6275-3-5"
       id="path-effect8748"
       is_visible="true"
       lpeversion="1.2"
       operation="inters"
       swap-operands="false"
       filltype-this="from-curve"
       filter=""
       filltype-operand="from-curve" />
    <inkscape:path-effect
       effect="mirror_symmetry"
       start_point="762.48181,-197.67965"
       end_point="762.48181,275.13351"
       center_point="762.48181,38.726929"
       id="path-effect8623"
       is_visible="true"
       lpeversion="1.2"
       lpesatellites=""
       mode="vertical"
       discard_orig_path="false"
       fuse_paths="true"
       oposite_fuse="true"
       split_items="false"
       split_open="false"
       link_styles="true" />
    <inkscape:path-effect
       effect="mirror_symmetry"
       start_point="180.14104,145.5641"
       end_point="471.31143,15.994686"
       center_point="471.31143,145.5641"
       id="path-effect8613"
       is_visible="true"
       lpeversion="1.2"
       lpesatellites=""
       mode="horizontal"
       discard_orig_path="false"
       fuse_paths="true"
       oposite_fuse="false"
       split_items="false"
       split_open="false"
       link_styles="true" />
    <filter
       id="selectable_hidder_filter"
       width="1.0015851"
       height="1.0015851"
       x="-0.00079253038"
       y="-0.00079254805"
       style="color-interpolation-filters:sRGB"
       inkscape:label="LPE boolean visibility">
      <feComposite
         id="boolops_hidder_primitive"
         result="composite1"
         operator="arithmetic"
         in2="SourceGraphic"
         in="BackgroundImage"
         k1="0"
         k2="0"
         k3="0"
         k4="0" />
    </filter>
    <inkscape:path-effect
       effect="bool_op"
       operand-path=""
       id="path-effect8510"
       is_visible="true"
       lpeversion="1"
       operation="inters"
       swap-operands="false"
       filltype-this="from-curve"
       filter=""
       filltype-operand="from-curve" />
    <linearGradient
       id="shapes">
      <stop
         style="stop-color:#5c00ff;stop-opacity:1;"
         offset="0.15418811"
         id="stop6428" />
      <stop
         style="stop-color:#ff0089;stop-opacity:1;"
         offset="1"
         id="stop6430" />
    </linearGradient>
    <linearGradient
       id="shapes-1">
      <stop
         style="stop-color:#8e00ff;stop-opacity:1;"
         offset="0.05745342"
         id="stop6423" />
      <stop
         style="stop-color:#ff3800;stop-opacity:1;"
         offset="1"
         id="stop6425" />
    </linearGradient>
    <inkscape:path-effect
       effect="tiling"
       id="path-effect5856"
       is_visible="true"
       lpeversion="1"
       unit="px"
       seed="1;1"
       lpesatellites=""
       num_rows="3"
       num_cols="3"
       gapx="0"
       gapy="0"
       offset="0"
       offset_type="false"
       scale="0"
       rotate="0"
       mirrorrowsx="false"
       mirrorrowsy="false"
       mirrorcolsx="false"
       mirrorcolsy="false"
       mirrortrans="false"
       shrink_interp="false"
       split_items="false"
       link_styles="false"
       interpolate_scalex="false"
       interpolate_scaley="true"
       interpolate_rotatex="false"
       interpolate_rotatey="true"
       random_scale="false"
       random_rotate="false"
       random_gap_y="false"
       random_gap_x="false"
       transformorigin="translate(519.00438,36.512097)" />
    <inkscape:path-effect
       effect="tiling"
       id="path-effect1559"
       is_visible="true"
       lpeversion="1"
       unit="px"
       seed="1;1"
       lpesatellites=""
       num_rows="5"
       num_cols="12"
       gapx="2.5"
       gapy="2.5"
       offset="0"
       offset_type="false"
       scale="-6"
       rotate="0"
       mirrorrowsx="false"
       mirrorrowsy="false"
       mirrorcolsx="false"
       mirrorcolsy="false"
       mirrortrans="false"
       shrink_interp="false"
       split_items="false"
       link_styles="false"
       interpolate_scalex="true"
       interpolate_scaley="true"
       interpolate_rotatex="true"
       interpolate_rotatey="true"
       random_scale="false"
       random_rotate="false"
       random_gap_y="false"
       random_gap_x="false"
       transformorigin="translate(800.78501,24.004726)" />
    <inkscape:path-effect
       effect="clone_original"
       linkeditem=""
       id="path-effect1557"
       is_visible="true"
       lpeversion="1"
       method="d"
       attributes=""
       css_properties=""
       allow_transforms="true" />
    <inkscape:path-effect
       effect="tiling"
       id="path-effect1551"
       is_visible="true"
       lpeversion="1"
       unit="px"
       seed="1;1"
       lpesatellites=""
       num_rows="9"
       num_cols="17"
       gapx="15"
       gapy="15"
       offset="0"
       offset_type="false"
       scale="0"
       rotate="0"
       mirrorrowsx="false"
       mirrorrowsy="false"
       mirrorcolsx="false"
       mirrorcolsy="false"
       mirrortrans="false"
       shrink_interp="false"
       split_items="false"
       link_styles="false"
       interpolate_scalex="false"
       interpolate_scaley="false"
       interpolate_rotatex="false"
       interpolate_rotatey="true"
       random_scale="false"
       random_rotate="false"
       random_gap_y="false"
       random_gap_x="false"
       transformorigin="translate(519.00436,36.512097)" />
    <inkscape:path-effect
       effect="offset"
       id="path-effect1549"
       is_visible="true"
       lpeversion="1.2"
       linejoin_type="bevel"
       unit="px"
       offset="13.7"
       miter_limit="4"
       attempt_force_join="false"
       update_on_knot_move="true" />
    <inkscape:path-effect
       effect="bounding_box"
       id="path-effect1547"
       is_visible="true"
       lpeversion="1"
       linkedpath=""
       visualbounds="false" />
    <inkscape:path-effect
       effect="fillet_chamfer"
       id="path-effect727"
       is_visible="true"
       lpeversion="1"
       nodesatellites_param="F,1,0,1,0,0.1,0,1 @ F,1,0,1,0,0.1,0,1 @ F,1,0,1,0,0.1,0,1 @ F,1,0,1,0,0.1,0,1 @ F,1,0,1,0,0.1,0,1 @ F,1,0,1,0,0.1,0,1"
       unit="px"
       method="auto"
       mode="F"
       radius="10"
       chamfer_steps="1"
       flexible="true"
       use_knot_distance="true"
       apply_no_radius="true"
       apply_with_radius="true"
       only_selected="false"
       hide_knots="false" />
    <rect
       x="202.05354"
       y="138.06992"
       width="437.94646"
       height="98.781725"
       id="rect6067" />
    <linearGradient
       id="linearGradient1297">
      <stop
         style="stop-color:#1d0064;stop-opacity:1;"
         offset="0"
         id="stop5434" />
      <stop
         style="stop-color:#130032;stop-opacity:1;"
         offset="1"
         id="stop5436" />
    </linearGradient>
    <inkscape:path-effect
       effect="tiling"
       id="path-effect1446"
       is_visible="true"
       lpeversion="1"
       unit="px"
       seed="1;1"
       lpesatellites=""
       num_rows="32"
       num_cols="62"
       gapx="50"
       gapy="50"
       offset="0"
       offset_type="false"
       scale="3"
       rotate="0"
       mirrorrowsx="false"
       mirrorrowsy="false"
       mirrorcolsx="false"
       mirrorcolsy="false"
       mirrortrans="false"
       shrink_interp="false"
       split_items="false"
       link_styles="true"
       interpolate_scalex="false"
       interpolate_scaley="true"
       interpolate_rotatex="false"
       interpolate_rotatey="true"
       random_scale="false"
       random_rotate="false"
       random_gap_y="false"
       random_gap_x="false"
       transformorigin="" />
    <inkscape:path-effect
       effect="construct_grid"
       id="path-effect1444"
       is_visible="true"
       lpeversion="1"
       nr_x="5"
       nr_y="5" />
    <linearGradient
       id="linearGradient1297-1">
      <stop
         style="stop-color:#000000;stop-opacity:0.48907104;"
         offset="0"
         id="stop1293" />
      <stop
         style="stop-color:#130032;stop-opacity:0;"
         offset="1"
         id="stop1295" />
    </linearGradient>
    <radialGradient
       inkscape:collect="always"
       xlink:href="#shapes"
       id="radialGradient8472"
       cx="180.14062"
       cy="4.0151939"
       fx="180.14062"
       fy="4.0151939"
       r="409.32367"
       gradientTransform="matrix(1.0454651,0,-6.6690101e-7,0.45679457,-8.190099,41.564318)"
       gradientUnits="userSpaceOnUse" />
    <filter
       id="selectable_hidder_filter-3"
       width="1.0015851"
       height="1.0015851"
       x="-0.00079254614"
       y="-0.00079254614"
       style="color-interpolation-filters:sRGB"
       inkscape:label="LPE boolean visibility">
      <feComposite
         id="boolops_hidder_primitive-6"
         result="composite1"
         operator="arithmetic"
         in2="SourceGraphic"
         in="BackgroundImage"
         k1="0"
         k2="0"
         k3="0"
         k4="0" />
    </filter>
    <inkscape:path-effect
       effect="bool_op"
       operand-path=""
       id="path-effect1002-7"
       is_visible="true"
       lpeversion="1"
       operation="diff"
       swap-operands="false"
       filltype-this="from-curve"
       filter="selectable_hidder_filter-3"
       filltype-operand="from-curve" />
    <filter
       id="filter1262"
       width="1.0015851"
       height="1.0015851"
       x="-0.00079254614"
       y="-0.00079254614"
       style="color-interpolation-filters:sRGB"
       inkscape:label="LPE boolean visibility">
      <feComposite
         id="feComposite1260"
         result="composite1"
         operator="arithmetic"
         in2="SourceGraphic"
         in="BackgroundImage"
         k1="0"
         k2="0"
         k3="0"
         k4="0" />
    </filter>
    <clipPath
       clipPathUnits="userSpaceOnUse"
       id="clipPath419">
      <path
         id="path421"
         style="display:inline;fill:none;stroke:#00ff00;stroke-width:0.996815;stroke-linecap:round;stroke-linejoin:round;filter:url(#selectable_hidder_filter)"
         inkscape:label="mask"
         transform="matrix(0.76347779,0.43472837,-0.76347779,0.43472837,-261.21235,-150.46843)"
         d="M 239.89111,-433.83331 H 868.75836 V 195.03394 L 481.35116,111.64657 645.2956,-45.681447 479.83818,-209.04504 317.2014,-52.503191 Z"
         sodipodi:nodetypes="cccccccc"
         class="UnoptimicedTransforms" />
    </clipPath>
  </defs>
  <g
     inkscape:groupmode="layer"
     id="layer3"
     inkscape:label="Layer 3"
     style="display:inline;fill:#f2f2f2"
     clip-path="none"
     transform="matrix(0.98354075,0,0,1,3.423333,0)">
    <path
       sodipodi:type="star"
       style="display:inline;fill:url(#radialGradient8472);fill-opacity:1;stroke:#000000;stroke-width:0.998673;stroke-linecap:round;stroke-linejoin:round;stroke-dasharray:none;stroke-dashoffset:0;stroke-opacity:1;paint-order:markers stroke fill"
       id="path725"
       inkscape:flatsided="true"
       sodipodi:sides="6"
       sodipodi:cx="200.36977"
       sodipodi:cy="38.726929"
       sodipodi:r1="23.358122"
       sodipodi:r2="20.228727"
       sodipodi:arg1="-0.52359878"
       sodipodi:arg2="0"
       inkscape:rounded="-1.3079815e-15"
       inkscape:randomized="0"
       d="m 286.28516,18.722656 c -0.61445,0 -1.22853,0.158573 -1.7793,0.476563 l -14.24219,8.222656 c -1.10154,0.635979 -1.78125,1.812027 -1.78125,3.083984 v 8.220703 8.220704 c 0,1.271957 0.67971,2.448005 1.78125,3.083984 l 14.24219,8.222656 c 1.10154,0.635979 2.45705,0.635979 3.55859,0 l 14.24219,-8.222656 c 1.10155,-0.635979 1.7793,-1.812027 1.7793,-3.083984 v -8.220704 -8.220703 c 0,-1.271957 -0.67775,-2.448005 -1.7793,-3.083984 l -14.24219,-8.222656 c -0.55077,-0.31799 -1.16485,-0.476563 -1.77929,-0.476563 z m 42.95703,1.365235 c -0.57277,0 -1.14694,0.14705 -1.66016,0.443359 l -13.26953,7.660156 c -1.02644,0.592618 -1.6582,1.687821 -1.6582,2.873047 v 7.662109 7.66211 c 0,1.185226 0.63176,2.280429 1.6582,2.873047 l 13.26953,7.660156 c 1.02644,0.592618 2.29192,0.592618 3.31836,0 l 13.26953,-7.660156 c 1.02644,-0.592618 1.66016,-1.687821 1.66016,-2.873047 v -7.66211 -7.662109 c 0,-1.185226 -0.63372,-2.280429 -1.66016,-2.873047 L 330.90039,20.53125 c -0.51322,-0.296309 -1.08543,-0.443359 -1.6582,-0.443359 z m 42.95703,1.363281 c -0.5311,0 -1.06144,0.137481 -1.53711,0.412109 l -12.29883,7.101563 c -0.95133,0.549247 -1.53711,1.561641 -1.53711,2.660156 v 7.101562 7.101563 c 0,1.098515 0.58578,2.112862 1.53711,2.662109 l 12.29883,7.101563 c 0.95134,0.549257 2.12483,0.549257 3.07617,0 l 12.29883,-7.101563 c 0.95134,-0.549247 1.53516,-1.563594 1.53516,-2.662109 V 38.726562 31.625 c 0,-1.098515 -0.58382,-2.110909 -1.53516,-2.660156 l -12.29883,-7.101563 c -0.47567,-0.274628 -1.00797,-0.412109 -1.53906,-0.412109 z m 42.95898,1.363281 c -0.48894,0 -0.9779,0.125958 -1.41601,0.378906 l -11.32813,6.541016 c -0.87623,0.505897 -1.41601,1.441341 -1.41601,2.453125 v 6.539062 6.541016 c 0,1.011784 0.53978,1.947228 1.41601,2.453125 l 11.32813,6.539063 c 0.87622,0.505896 1.9558,0.505896 2.83203,0 l 11.32812,-6.539063 c 0.87624,-0.505897 1.41602,-1.441341 1.41602,-2.453125 V 38.726562 32.1875 c 0,-1.011784 -0.53978,-1.947228 -1.41602,-2.453125 l -11.32812,-6.541016 c -0.43811,-0.252948 -0.92708,-0.378906 -1.41602,-0.378906 z m 42.95508,1.363281 c -0.44726,0 -0.89436,0.116389 -1.29492,0.347657 l -10.35547,5.980468 c -0.80113,0.462527 -1.29492,1.317125 -1.29492,2.242188 v 5.978515 5.980469 c 0,0.925063 0.49379,1.777708 1.29492,2.240235 l 10.35547,5.982422 c 0.80112,0.462536 1.78872,0.462536 2.58984,0 l 10.35742,-5.982422 c 0.80114,-0.462527 1.29493,-1.315172 1.29493,-2.240235 v -5.980469 -5.978515 c 0,-0.925063 -0.49379,-1.779661 -1.29493,-2.242188 L 459.4082,24.525391 c -0.40056,-0.231268 -0.84765,-0.347657 -1.29492,-0.347657 z m 42.95899,1.365235 c -0.40511,0 -0.81082,0.10487 -1.17383,0.314453 l -9.38672,5.417969 c -0.72602,0.419165 -1.17383,1.194861 -1.17383,2.033203 v 5.417968 5.417969 c 0,0.838342 0.44781,1.614038 1.17383,2.033203 l 9.38672,5.417969 c 0.72602,0.419166 1.61968,0.419166 2.3457,0 l 9.38672,-5.417969 c 0.72603,-0.419165 1.17383,-1.194861 1.17383,-2.033203 v -5.417969 -5.417968 c 0,-0.838342 -0.4478,-1.614038 -1.17383,-2.033203 l -9.38672,-5.417969 c -0.36301,-0.209583 -0.76677,-0.314453 -1.17187,-0.314453 z m 42.95703,1.363281 c -0.36295,0 -0.72533,0.09335 -1.05078,0.28125 l -8.41602,4.859375 c -0.65091,0.375805 -1.05078,1.068702 -1.05078,1.820313 v 4.859374 4.859376 c 0,0.75161 0.39987,1.444507 1.05078,1.820312 l 8.41602,4.859375 c 0.6509,0.375805 1.45064,0.375805 2.10156,0 l 8.41797,-4.859375 c 0.65091,-0.375805 1.04883,-1.068702 1.04883,-1.820312 v -4.859376 -4.859374 c 0,-0.751611 -0.39792,-1.444508 -1.04883,-1.820313 L 545.08008,27.1875 c -0.32546,-0.187903 -0.68783,-0.28125 -1.05078,-0.28125 z m 42.02734,1.613281 -7.44531,4.296875 c -0.57583,0.332445 -0.92969,0.946439 -0.92969,1.611328 v 4.298828 4.298829 c 0,0.664889 0.35386,1.278883 0.92969,1.611328 l 7.44531,4.298828 c 0.57573,0.332444 1.2855,0.332444 1.86133,0 l 7.44336,-4.298828 c 0.57583,-0.332445 0.93164,-0.946439 0.93164,-1.611328 v -4.298829 -4.298828 c 0,-0.664889 -0.35581,-1.278883 -0.93164,-1.611328 l -7.44336,-4.296875 c -0.57583,-0.332444 -1.2856,-0.332444 -1.86133,0 z m 43.07813,1.330078 -6.47266,3.738282 c -0.50076,0.289074 -0.80859,0.824185 -0.80859,1.402343 v 3.736328 3.738282 c 0,0.578158 0.30783,1.11327 0.80859,1.402344 l 6.47266,3.736328 c 0.50075,0.289084 1.11838,0.289084 1.61914,0 l 6.47265,-3.736328 c 0.50076,-0.289074 0.8086,-0.824186 0.8086,-1.402344 v -3.738282 -3.736328 c 0,-0.578158 -0.30784,-1.113269 -0.8086,-1.402343 l -6.47265,-3.738282 c -0.50076,-0.289084 -1.11839,-0.289084 -1.61914,0 z m 43.08007,1.333985 -5.50195,3.175781 c -0.42558,0.245723 -0.68945,0.69997 -0.68945,1.191406 v 3.175781 3.175782 c 0,0.491436 0.26387,0.947636 0.68945,1.193359 l 5.50195,3.175781 c 0.42559,0.245714 0.94942,0.245714 1.375,0 l 5.50196,-3.175781 c 0.42558,-0.245723 0.6875,-0.701923 0.6875,-1.193359 v -3.175782 -3.175781 c 0,-0.491436 -0.26192,-0.945683 -0.6875,-1.191406 l -5.50196,-3.175781 c -0.42558,-0.245714 -0.94941,-0.245714 -1.375,0 z M 286.28486,68.050723 c -0.57276,0 -1.1465,0.148613 -1.65973,0.444917 l -13.27008,7.662218 c -1.02644,0.592618 -1.65779,1.68737 -1.65779,2.872606 V 94.35296 c 0,1.185236 0.63135,2.279987 1.65779,2.872605 l 13.27008,7.662215 c 1.02644,0.59262 2.29108,0.59262 3.31752,0 l 13.27009,-7.662215 c 1.02644,-0.592618 1.65973,-1.687369 1.65973,-2.872605 V 79.030464 c 0,-1.185236 -0.63329,-2.279988 -1.65973,-2.872606 L 287.94265,68.49564 c -0.51321,-0.296304 -1.08502,-0.444917 -1.65779,-0.444917 z m 0,-58.647583 c -0.57276,0 -1.1465,-0.1486126 -1.65973,-0.4449166 L 271.35505,1.2960047 c -1.02644,-0.59261807 -1.65779,-1.6873693 -1.65779,-2.8726053 V -16.899097 c 0,-1.185236 0.63135,-2.279987 1.65779,-2.872605 l 13.27008,-7.662219 c 1.02644,-0.592618 2.29108,-0.592618 3.31752,0 l 13.27009,7.662219 c 1.02644,0.592618 1.65973,1.687369 1.65973,2.872605 v 15.3224964 c 0,1.185236 -0.63329,2.27998723 -1.65973,2.8726053 l -13.27009,7.6622187 c -0.51321,0.296304 -1.08502,0.4449166 -1.65779,0.4449166 z m 42.95755,60.011352 c -0.53086,0 -1.06219,0.137401 -1.53786,0.412025 l -12.29901,7.101235 c -0.95134,0.549257 -1.53786,1.565181 -1.53786,2.663696 v 14.200538 c 0,1.098505 0.58652,2.114428 1.53786,2.663686 l 12.29901,7.101238 c 0.95133,0.54925 2.12439,0.54925 3.07572,0 l 12.299,-7.101238 c 0.95134,-0.549258 1.53594,-1.565181 1.53593,-2.663686 V 79.591448 c 0,-1.098515 -0.58459,-2.114439 -1.53593,-2.663696 l -12.299,-7.101235 c -0.47567,-0.274624 -1.00701,-0.412035 -1.53786,-0.412025 z m 0,-61.3751212 c -0.53086,0 -1.06219,-0.137401 -1.53786,-0.4120248 L 315.40554,0.52611129 C 314.4542,-0.02314612 313.86768,-1.0390698 313.86768,-2.1375846 V -16.338123 c 0,-1.098505 0.58652,-2.114428 1.53786,-2.663686 l 12.29901,-7.101235 c 0.95133,-0.549257 2.12439,-0.549257 3.07572,0 l 12.299,7.101235 c 0.95134,0.549258 1.53594,1.565181 1.53593,2.663686 v 14.2005384 c 0,1.0985148 -0.58459,2.11443848 -1.53593,2.66369589 l -12.299,7.10123471 c -0.47567,0.2746238 -1.00701,0.4120347 -1.53786,0.4120248 z m 42.95755,62.7388812 c -0.48895,0 -0.97788,0.126199 -1.41599,0.379142 l -11.32794,6.540261 c -0.87623,0.505887 -1.41599,1.441052 -1.41599,2.452835 v 13.080512 c 0,1.011784 0.53976,1.946948 1.41599,2.452835 l 11.32794,6.540263 c 0.87623,0.50588 1.95575,0.50588 2.83198,0 l 11.32794,-6.540263 c 0.87622,-0.505887 1.41598,-1.441051 1.41598,-2.452835 V 80.15049 c 0,-1.011783 -0.53976,-1.946948 -1.41598,-2.452835 l -11.32794,-6.540261 c -0.43812,-0.252943 -0.92705,-0.379142 -1.41599,-0.379142 z m 0,-64.1026405 c -0.48895,0 -0.97788,-0.1261994 -1.41599,-0.3791428 L 359.45603,-0.24379197 C 358.5798,-0.74967888 358.04004,-1.6848437 358.04004,-2.6966274 V -15.777139 c 0,-1.011784 0.53976,-1.946948 1.41599,-2.452835 l 11.32794,-6.540261 c 0.87623,-0.505887 1.95575,-0.505887 2.83198,0 l 11.32794,6.540261 c 0.87622,0.505887 1.41598,1.441051 1.41598,2.452835 v 13.0805116 c 0,1.0117837 -0.53976,1.94694852 -1.41598,2.45283543 L 373.61595,6.2964687 c -0.43812,0.2529434 -0.92705,0.3791428 -1.41599,0.3791428 z M 415.1575,72.142011 c -0.44703,0 -0.89549,0.116929 -1.29605,0.348192 l -10.35686,5.979277 c -0.80112,0.462536 -1.29412,1.316932 -1.29412,2.241985 v 11.960494 c 0,0.925053 0.493,1.779459 1.29412,2.241985 l 10.35686,5.979276 c 0.80112,0.46253 1.78905,0.46253 2.59018,0 l 10.35686,-5.979276 c 0.80112,-0.462526 1.29412,-1.316932 1.29412,-2.241985 V 80.711465 c 0,-0.925053 -0.493,-1.779449 -1.29412,-2.241985 l -10.35686,-5.979277 c -0.40056,-0.231263 -0.84708,-0.348192 -1.29413,-0.348192 z m 0,-66.8301588 c -0.44703,0 -0.89549,-0.1169291 -1.29605,-0.3481922 l -10.35686,-5.9792767 c -0.80112,-0.4625362 -1.29412,-1.3169322 -1.29412,-2.2419848 V -15.218096 c 0,-0.925053 0.493,-1.779459 1.29412,-2.241985 l 10.35686,-5.979277 c 0.80112,-0.462526 1.78905,-0.462526 2.59018,0 l 10.35686,5.979277 c 0.80112,0.462526 1.29412,1.316932 1.29412,2.241985 v 11.9604945 c 0,0.9250526 -0.493,1.7794486 -1.29412,2.2419848 L 416.45163,4.96366 c -0.40056,0.2312631 -0.84708,0.3481922 -1.29413,0.3481922 z M 458.11505,73.50577 c -0.40513,0 -0.81117,0.105728 -1.17419,0.31531 l -9.38578,5.418303 c -0.72601,0.419166 -1.17419,1.194734 -1.17419,2.033065 v 10.838527 c 10e-6,0.838331 0.44818,1.611969 1.17419,2.031134 l 9.38578,5.420234 c 0.72603,0.419166 1.62043,0.419166 2.34646,0 l 9.38577,-5.420234 c 0.72602,-0.419165 1.17419,-1.192803 1.17419,-2.031134 V 81.272448 c 0,-0.838331 -0.44817,-1.613899 -1.17419,-2.033065 l -9.38577,-5.418303 c -0.36302,-0.209582 -0.76713,-0.31531 -1.17227,-0.31531 z m 0,-69.5576771 c -0.40513,0 -0.81117,-0.1057274 -1.17419,-0.3153103 l -9.38578,-5.4183025 c -0.72601,-0.4191657 -1.17419,-1.1947342 -1.17419,-2.0330656 V -14.657112 c 10e-6,-0.838331 0.44818,-1.611969 1.17419,-2.031134 l 9.38578,-5.420234 c 0.72603,-0.419166 1.62043,-0.419166 2.34646,0 l 9.38577,5.420234 c 0.72602,0.419165 1.17419,1.192803 1.17419,2.031134 v 10.8385265 c 0,0.8383314 -0.44817,1.6138999 -1.17419,2.0330656 l -9.38577,5.4183025 c -0.36302,0.2095829 -0.76713,0.3153103 -1.17227,0.3153103 z m 42.95756,70.9233781 c -0.36322,0 -0.72687,0.09258 -1.05233,0.280487 l -8.41471,4.85925 c -0.65091,0.375805 -1.05232,1.070614 -1.05232,1.822224 v 9.716559 c 0,0.75162 0.40141,1.44642 1.05232,1.822225 l 8.41471,4.857309 c 0.65092,0.375815 1.4518,0.375815 2.10272,0 l 8.41663,-4.857309 c 0.65091,-0.375805 1.05039,-1.070605 1.05039,-1.822225 v -9.716559 c 0,-0.75161 -0.39948,-1.446419 -1.05039,-1.822224 l -8.41663,-4.85925 c -0.32547,-0.187903 -0.68718,-0.280487 -1.05039,-0.280487 z m 0,-72.2890787 c -0.36322,0 -0.72687,-0.092585 -1.05233,-0.280487 l -8.41471,-4.8592499 c -0.65091,-0.3758051 -1.05232,-1.0706147 -1.05232,-1.8222249 v -9.7165585 c 0,-0.75162 0.40141,-1.44642 1.05232,-1.822225 l 8.41471,-4.857309 c 0.65092,-0.375815 1.4518,-0.375815 2.10272,0 l 8.41663,4.857309 c 0.65091,0.375805 1.05039,1.070605 1.05039,1.822225 v 9.7165585 c 0,0.7516102 -0.39948,1.4464198 -1.05039,1.8222249 L 502.123,2.3019053 c -0.32547,0.1879025 -0.68718,0.280487 -1.05039,0.280487 z M 544.03016,76.23523 c -0.32132,0 -0.64256,0.08332 -0.93046,0.249546 l -7.44557,4.296335 c -0.5758,0.332444 -0.93045,0.948416 -0.93045,1.613296 v 8.59461 c 0,0.664889 0.35465,1.27892 0.93045,1.611364 l 7.44557,4.298276 c 0.57581,0.332435 1.2851,0.332435 1.86091,0 l 7.44362,-4.298276 c 0.57581,-0.332444 0.93046,-0.946475 0.93046,-1.611364 v -8.59461 c 0,-0.66488 -0.35465,-1.280852 -0.93046,-1.613296 l -7.44362,-4.296335 c -0.28791,-0.166222 -0.60915,-0.249546 -0.93045,-0.249546 z m 0,-75.016597 c -0.32132,0 -0.64256,-0.083324 -0.93046,-0.2495463 l -7.44557,-4.2963346 c -0.5758,-0.3324445 -0.93045,-0.9484166 -0.93045,-1.6132957 v -8.5946104 c 0,-0.664889 0.35465,-1.27892 0.93045,-1.611364 l 7.44557,-4.298276 c 0.57581,-0.332435 1.2851,-0.332435 1.86091,0 l 7.44362,4.298276 c 0.57581,0.332444 0.93046,0.946475 0.93046,1.611364 v 8.5946104 c 0,0.6648791 -0.35465,1.2808512 -0.93046,1.6132957 l -7.44362,4.2963346 C 544.6727,1.135309 544.35146,1.218633 544.03016,1.218633 Z m 42.14706,76.597021 -6.4726,3.737282 c -0.50065,0.289083 -0.80858,0.822355 -0.80858,1.400523 v 7.474574 c 0,0.578168 0.30793,1.113371 0.80858,1.402455 l 6.4726,3.737282 c 0.50066,0.289084 1.11838,0.289084 1.61904,0 l 6.47259,-3.737282 c 0.50066,-0.289084 0.80858,-0.824287 0.80858,-1.402455 v -7.474574 c 0,-0.578168 -0.30792,-1.11144 -0.80858,-1.400523 l -6.47259,-3.737282 c -0.50066,-0.289084 -1.11838,-0.289084 -1.61904,0 z m 0,-78.17744465 -6.4726,-3.73728185 c -0.50065,-0.2890839 -0.80858,-0.822356 -0.80858,-1.4005238 V -12.97417 c 0,-0.578168 0.30793,-1.113371 0.80858,-1.402455 l 6.4726,-3.737282 c 0.50066,-0.289084 1.11838,-0.289084 1.61904,0 l 6.47259,3.737282 c 0.50066,0.289084 0.80858,0.824287 0.80858,1.402455 v 7.4745737 c 0,0.5781678 -0.30792,1.1114399 -0.80858,1.4005238 l -6.47259,3.73728185 c -0.50066,0.28908389 -1.11838,0.28908389 -1.61904,0 z m 43.07942,79.50832165 -5.50149,3.176308 c -0.42558,0.245713 -0.68864,0.700158 -0.68864,1.191594 v 6.354557 c 0,0.491437 0.26306,0.94395 0.68864,1.189663 l 5.50149,3.178249 c 0.42558,0.245714 0.94972,0.245714 1.3753,0 l 5.50149,-3.178249 c 0.42558,-0.245713 0.68864,-0.698226 0.68864,-1.189663 v -6.354557 c 0,-0.491436 -0.26306,-0.945881 -0.68864,-1.191594 l -5.50149,-3.176308 c -0.42558,-0.245723 -0.94972,-0.245723 -1.3753,0 z m 0,-80.839199 -5.50149,-3.1763078 c -0.42558,-0.2457134 -0.68864,-0.7001579 -0.68864,-1.1915945 v -6.3545567 c 0,-0.491437 0.26306,-0.94395 0.68864,-1.189663 l 5.50149,-3.178249 c 0.42558,-0.245714 0.94972,-0.245714 1.3753,0 l 5.50149,3.178249 c 0.42558,0.245713 0.68864,0.698226 0.68864,1.189663 v 6.3545567 c 0,0.4914366 -0.26306,0.9458811 -0.68864,1.1915945 l -5.50149,3.1763078 c -0.42558,0.2457233 -0.94972,0.2457233 -1.3753,0 z M 200.36976,114.65077 c -0.61467,0 -1.22888,0.15982 -1.77966,0.4778 l -14.24116,8.22127 c -1.10154,0.63598 -1.77966,1.8115 -1.77966,3.08346 v 16.44445 c 0,1.27196 0.67812,2.44748 1.77966,3.08346 l 14.24116,8.22127 c 1.10155,0.63598 2.45777,0.63598 3.55933,0 l 14.24116,-8.22127 c 1.10154,-0.63598 1.77966,-1.8115 1.77966,-3.08346 V 126.4333 c 0,-1.27196 -0.67812,-2.44748 -1.77966,-3.08346 l -14.24116,-8.22127 c -0.55078,-0.31798 -1.16499,-0.4778 -1.77967,-0.4778 z m 0,-151.84768 c -0.61467,0 -1.22888,-0.159815 -1.77966,-0.477799 l -14.24116,-8.221271 c -1.10154,-0.635979 -1.77966,-1.811499 -1.77966,-3.083456 v -16.444455 c 0,-1.271957 0.67812,-2.447477 1.77966,-3.083455 l 14.24116,-8.221272 c 1.10155,-0.635978 2.45777,-0.635978 3.55933,0 l 14.24116,8.221272 c 1.10154,0.635978 1.77966,1.811498 1.77966,3.083455 v 16.444455 c 0,1.271957 -0.67812,2.447477 -1.77966,3.083456 l -14.24116,8.221271 c -0.55078,0.317984 -1.16499,0.477799 -1.77967,0.477799 z m 42.95756,153.21145 c -0.57277,0 -1.14652,0.14861 -1.65973,0.44492 l -13.27009,7.66221 c -1.02644,0.59262 -1.65779,1.68738 -1.65779,2.8726 v 15.32251 c 0,1.18523 0.63135,2.28192 1.65779,2.87454 l 13.27009,7.66028 c 1.02644,0.59261 2.29108,0.59261 3.31752,0 l 13.27008,-7.66028 c 1.02644,-0.59262 1.65972,-1.68931 1.65972,-2.87454 v -15.32251 c 0,-1.18522 -0.63328,-2.27998 -1.65972,-2.8726 l -13.27008,-7.66221 c -0.51323,-0.29631 -1.08503,-0.44492 -1.65779,-0.44492 z m 0,-154.57522 c -0.57277,0 -1.14652,-0.148602 -1.65973,-0.444916 l -13.27009,-7.662209 c -1.02644,-0.592618 -1.65779,-1.687379 -1.65779,-2.872605 v -15.322506 c 0,-1.185227 0.63135,-2.281919 1.65779,-2.874537 l 13.27009,-7.660287 c 1.02644,-0.592609 2.29108,-0.592609 3.31752,0 l 13.27008,7.660287 c 1.02644,0.592618 1.65972,1.68931 1.65972,2.874537 v 15.322506 c 0,1.185226 -0.63328,2.279987 -1.65972,2.872605 l -13.27008,7.662209 c -0.51323,0.296314 -1.08503,0.444916 -1.65779,0.444916 z m 42.95754,155.94091 c -0.53086,0 -1.06219,0.1374 -1.53786,0.41204 l -12.29901,7.0993 c -0.95134,0.54925 -1.53785,1.56518 -1.53785,2.66369 v 14.20247 c 0,1.09851 0.58651,2.1125 1.53785,2.66175 l 12.29901,7.10125 c 0.95134,0.54924 2.12438,0.54924 3.07572,0 l 12.29901,-7.10125 c 0.95133,-0.54925 1.53593,-1.56324 1.53593,-2.66175 v -14.20247 c 0,-1.09851 -0.5846,-2.11444 -1.53593,-2.66369 l -12.29901,-7.0993 c -0.47567,-0.27464 -1.007,-0.41204 -1.53786,-0.41204 z m 0,-157.3066 c -0.53086,0 -1.06219,-0.137401 -1.53786,-0.412035 l -12.29901,-7.099303 c -0.95134,-0.549248 -1.53785,-1.565181 -1.53785,-2.663686 v -14.20247 c 0,-1.098515 0.58651,-2.112507 1.53785,-2.661754 l 12.29901,-7.101245 c 0.95134,-0.549248 2.12438,-0.549248 3.07572,0 l 12.29901,7.101245 c 0.95133,0.549247 1.53593,1.563239 1.53593,2.661754 v 14.20247 c 0,1.098505 -0.5846,2.114438 -1.53593,2.663686 l -12.29901,7.099303 c -0.47567,0.274634 -1.007,0.412035 -1.53786,0.412035 z M 329.24241,118.744 c -0.48895,0 -0.97787,0.1262 -1.416,0.37915 l -11.32793,6.54025 c -0.87622,0.50589 -1.41598,1.44106 -1.41598,2.45284 v 13.08051 c 0,1.01179 0.53976,1.94694 1.41598,2.45284 l 11.32793,6.54026 c 0.87624,0.50589 1.95576,0.50589 2.83199,0 l 11.32794,-6.54026 c 0.87622,-0.5059 1.41599,-1.44105 1.41599,-2.45284 v -13.08051 c 0,-1.01178 -0.53977,-1.94695 -1.41599,-2.45284 l -11.32794,-6.54025 c -0.43811,-0.25295 -0.92704,-0.37915 -1.41599,-0.37915 z m 0,-160.034139 c -0.48895,0 -0.97787,-0.1262 -1.416,-0.379143 l -11.32793,-6.540251 c -0.87622,-0.505897 -1.41598,-1.441062 -1.41598,-2.452845 V -63.74289 c 0,-1.011783 0.53976,-1.946938 1.41598,-2.452835 l 11.32793,-6.540261 c 0.87624,-0.505887 1.95576,-0.505887 2.83199,0 l 11.32794,6.540261 c 0.87622,0.505897 1.41599,1.441052 1.41599,2.452835 v 13.080512 c 0,1.011783 -0.53977,1.946948 -1.41599,2.452845 l -11.32794,6.540251 c -0.43811,0.252943 -0.92704,0.379143 -1.41599,0.379143 z m 42.95755,161.397899 c -0.44704,0 -0.89357,0.115 -1.29412,0.34626 l -10.3588,5.97928 c -0.80112,0.46253 -1.29412,1.31692 -1.29412,2.24198 v 11.96049 c 0,0.92506 0.493,1.77946 1.29412,2.24198 l 10.3588,5.97928 c 0.80112,0.46254 1.78711,0.46254 2.58824,0 l 10.35686,-5.97928 c 0.80112,-0.46252 1.29412,-1.31692 1.29412,-2.24198 v -11.96049 c 0,-0.92506 -0.493,-1.77945 -1.29412,-2.24198 l -10.35686,-5.97928 c -0.40056,-0.23126 -0.84708,-0.34626 -1.29412,-0.34626 z m 0,-162.761659 c -0.44704,0 -0.89357,-0.114997 -1.29412,-0.346261 l -10.3588,-5.979276 c -0.80112,-0.462527 -1.29412,-1.316923 -1.29412,-2.241985 v -11.960485 c 0,-0.925062 0.493,-1.779458 1.29412,-2.241985 l 10.3588,-5.979276 c 0.80112,-0.462536 1.78711,-0.462536 2.58824,0 l 10.35686,5.979276 c 0.80112,0.462527 1.29412,1.316923 1.29412,2.241985 v 11.960485 c 0,0.925062 -0.493,1.779458 -1.29412,2.241985 l -10.35686,5.979276 c -0.40056,0.231264 -0.84708,0.346261 -1.29412,0.346261 z M 415.1575,121.47152 c -0.40512,0 -0.81117,0.1038 -1.17418,0.31338 l -9.38579,5.42022 c -0.72602,0.41918 -1.17225,1.19281 -1.17225,2.03115 v 10.83851 c 0,0.83835 0.44623,1.61391 1.17225,2.03308 l 9.38579,5.41829 c 0.72602,0.41917 1.62043,0.41917 2.34644,0 l 9.38578,-5.41829 c 0.72602,-0.41917 1.17419,-1.19473 1.17419,-2.03308 v -10.83851 c 0,-0.83834 -0.44817,-1.61197 -1.17419,-2.03115 l -9.38578,-5.42022 c -0.36301,-0.20958 -0.76713,-0.31338 -1.17226,-0.31338 z m 0,-165.489178 c -0.40512,0 -0.81117,-0.103796 -1.17418,-0.313379 l -9.38579,-5.420224 c -0.72602,-0.419175 -1.17225,-1.192803 -1.17225,-2.031144 v -10.838517 c 0,-0.838341 0.44623,-1.613909 1.17225,-2.033075 l 9.38579,-5.418293 c 0.72602,-0.419165 1.62043,-0.419165 2.34644,0 l 9.38578,5.418293 c 0.72602,0.419166 1.17419,1.194734 1.17419,2.033075 v 10.838517 c 0,0.838341 -0.44817,1.611969 -1.17419,2.031144 l -9.38578,5.420224 c -0.36301,0.209583 -0.76713,0.313379 -1.17226,0.313379 z m 42.95755,166.852948 c -0.36321,0 -0.72686,0.0945 -1.05232,0.28242 l -8.4147,4.85732 c -0.65091,0.3758 -1.05232,1.0706 -1.05232,1.82221 v 9.71657 c 0,0.75161 0.40141,1.44641 1.05232,1.82222 l 8.4147,4.85925 c 0.65092,0.3758 1.4518,0.3758 2.10271,0 l 8.41665,-4.85925 c 0.6509,-0.37581 1.05038,-1.07061 1.05038,-1.82222 v -9.71657 c 0,-0.75161 -0.39948,-1.44641 -1.05038,-1.82221 l -8.41665,-4.85732 c -0.32546,-0.1879 -0.68717,-0.28243 -1.05039,-0.28242 z m 0,-168.216717 c -0.36321,0 -0.72686,-0.09452 -1.05232,-0.282419 l -8.4147,-4.857318 c -0.65091,-0.375805 -1.05232,-1.070605 -1.05232,-1.822215 v -9.716569 c 0,-0.75161 0.40141,-1.446409 1.05232,-1.822215 l 8.4147,-4.859249 c 0.65092,-0.375806 1.4518,-0.375806 2.10271,0 l 8.41665,4.859249 c 0.6509,0.375806 1.05038,1.070605 1.05038,1.822215 v 9.716569 c 0,0.75161 -0.39948,1.44641 -1.05038,1.822215 l -8.41665,4.857318 c -0.32546,0.187903 -0.68717,0.282429 -1.05039,0.282419 z m 42.95756,169.580477 c -0.32132,0 -0.64256,0.0833 -0.93045,0.24954 l -7.44557,4.29826 c -0.57581,0.33245 -0.93046,0.94649 -0.93046,1.61138 v 8.5946 c 0,0.66489 0.35465,1.28086 0.93046,1.6133 l 7.44557,4.29634 c 0.5758,0.33244 1.28509,0.33244 1.8609,0 l 7.44363,-4.29634 c 0.5758,-0.33244 0.93045,-0.94841 0.93045,-1.6133 v -8.5946 c 0,-0.66489 -0.35465,-1.27893 -0.93045,-1.61138 l -7.44363,-4.29826 c -0.28791,-0.16623 -0.60915,-0.24954 -0.93045,-0.24954 z m 0,-170.944237 c -0.32132,0 -0.64256,-0.08331 -0.93045,-0.249536 l -7.44557,-4.298266 c -0.57581,-0.332444 -0.93046,-0.946485 -0.93046,-1.611374 v -8.594601 c 0,-0.664889 0.35465,-1.280861 0.93046,-1.613305 l 7.44557,-4.296335 c 0.5758,-0.332444 1.28509,-0.332444 1.8609,0 l 7.44363,4.296335 c 0.5758,0.332444 0.93045,0.948416 0.93045,1.613305 v 8.594601 c 0,0.664889 -0.35465,1.27893 -0.93045,1.611374 l -7.44363,4.298266 c -0.28791,0.166222 -0.60915,0.249536 -0.93045,0.249536 z m 42.14703,172.524647 -6.47256,3.7373 c -0.50071,0.28908 -0.80859,0.82428 -0.80859,1.40244 v 7.47458 c 0,0.57816 0.30788,1.11143 0.80859,1.40052 l 6.47256,3.73729 c 0.50069,0.28908 1.1184,0.28908 1.6191,0 l 6.47255,-3.73729 c 0.5007,-0.28909 0.81052,-0.82236 0.81052,-1.40052 v -7.47458 c 0,-0.57816 -0.30982,-1.11336 -0.81052,-1.40244 l -6.47255,-3.7373 c -0.5007,-0.28908 -1.11841,-0.28908 -1.6191,0 z m 0,-174.10506 -6.47256,-3.737292 c -0.50071,-0.289084 -0.80859,-0.824287 -0.80859,-1.402445 v -7.474584 c 0,-0.578158 0.30788,-1.11143 0.80859,-1.400514 l 6.47256,-3.737291 c 0.50069,-0.289084 1.1184,-0.289084 1.6191,0 l 6.47255,3.737291 c 0.5007,0.289084 0.81052,0.822356 0.81052,1.400514 v 7.474584 c 0,0.578158 -0.30982,1.113361 -0.81052,1.402445 l -6.47255,3.737292 c -0.5007,0.289084 -1.11841,0.289084 -1.6191,0 z M 200.36976,163.98028 c -0.57277,0 -1.14457,0.14862 -1.65779,0.44492 l -13.27009,7.66029 c -1.02644,0.59262 -1.65973,1.68737 -1.65973,2.8726 v 15.32443 c 0,1.18524 0.63329,2.28 1.65973,2.87262 l 13.27009,7.66027 c 1.02644,0.59262 2.28915,0.59262 3.31559,0 l 13.27009,-7.66027 c 1.02644,-0.59262 1.65972,-1.68738 1.65972,-2.87262 v -15.32443 c 0,-1.18523 -0.63328,-2.27998 -1.65972,-2.8726 l -13.27009,-7.66029 c -0.51323,-0.2963 -1.08503,-0.44492 -1.6578,-0.44492 z m 0,-250.506701 c -0.57277,0 -1.14457,-0.148612 -1.65779,-0.444916 l -13.27009,-7.660288 c -1.02644,-0.592618 -1.65973,-1.687369 -1.65973,-2.872605 v -15.32443 c 0,-1.18523 0.63329,-2.27999 1.65973,-2.87261 l 13.27009,-7.66028 c 1.02644,-0.59262 2.28915,-0.59262 3.31559,0 l 13.27009,7.66028 c 1.02644,0.59262 1.65972,1.68738 1.65972,2.87261 v 15.32443 c 0,1.185236 -0.63328,2.279987 -1.65972,2.872605 l -13.27009,7.660288 c -0.51323,0.296304 -1.08503,0.444916 -1.6578,0.444916 z m 42.95756,251.870471 c -0.53087,0 -1.0622,0.1374 -1.53787,0.41203 l -12.29901,7.10123 c -0.95133,0.54926 -1.53786,1.56325 -1.53786,2.66176 v 14.20248 c 0,1.0985 0.58653,2.11249 1.53786,2.66175 l 12.29901,7.10124 c 0.95134,0.54925 2.12438,0.54925 3.07572,0 l 12.29901,-7.10124 c 0.95134,-0.54926 1.53592,-1.56325 1.53592,-2.66175 v -14.20248 c 0,-1.09851 -0.58458,-2.1125 -1.53592,-2.66176 l -12.29901,-7.10123 c -0.47567,-0.27463 -1.007,-0.41203 -1.53785,-0.41203 z m 0,-253.23424 c -0.53087,0 -1.0622,-0.137401 -1.53787,-0.412024 l -12.29901,-7.101235 c -0.95133,-0.549258 -1.53786,-1.56325 -1.53786,-2.661755 v -14.202476 c 0,-1.09851 0.58653,-2.1125 1.53786,-2.66176 l 12.29901,-7.10123 c 0.95134,-0.54926 2.12438,-0.54926 3.07572,0 l 12.29901,7.10123 c 0.95134,0.54926 1.53592,1.56325 1.53592,2.66176 v 14.202476 c 0,1.098505 -0.58458,2.112497 -1.53592,2.661755 l -12.29901,7.101235 c -0.47567,0.274623 -1.007,0.412024 -1.53785,0.412024 z m 42.95754,254.598 c -0.48894,0 -0.97787,0.1262 -1.41599,0.37914 l -11.32793,6.54027 c -0.87623,0.50588 -1.41599,1.44105 -1.41599,2.45283 v 13.08051 c 0,1.01179 0.53976,1.94695 1.41599,2.45284 l 11.32793,6.54026 c 0.87623,0.5059 1.95576,0.5059 2.83198,0 l 11.32793,-6.54026 c 0.87624,-0.50589 1.416,-1.44105 1.416,-2.45284 v -13.08051 c 0,-1.01178 -0.53976,-1.94695 -1.416,-2.45283 l -11.32793,-6.54027 c -0.43811,-0.25294 -0.92704,-0.37914 -1.41599,-0.37914 z m 0,-255.961759 c -0.48894,0 -0.97787,-0.126199 -1.41599,-0.379143 l -11.32793,-6.54026 c -0.87623,-0.505887 -1.41599,-1.441052 -1.41599,-2.452836 V -111.7067 c 0,-1.01178 0.53976,-1.94695 1.41599,-2.45283 l 11.32793,-6.54027 c 0.87623,-0.50589 1.95576,-0.50589 2.83198,0 l 11.32793,6.54027 c 0.87624,0.50588 1.416,1.44105 1.416,2.45283 v 13.080512 c 0,1.011784 -0.53976,1.946949 -1.416,2.452836 l -11.32793,6.54026 c -0.43811,0.252944 -0.92704,0.379143 -1.41599,0.379143 z m 42.95755,257.325519 c -0.44704,0 -0.89356,0.115 -1.29412,0.34626 l -10.35879,5.98122 c -0.80113,0.46253 -1.29413,1.31692 -1.29412,2.24198 v 11.95856 c 0,0.92505 0.49299,1.77945 1.29412,2.24198 l 10.35879,5.98121 c 0.80112,0.46253 1.78712,0.46253 2.58824,0 l 10.35686,-5.98121 c 0.80113,-0.46253 1.29606,-1.31693 1.29606,-2.24198 v -11.95856 c 0,-0.92506 -0.49493,-1.77945 -1.29606,-2.24198 l -10.35686,-5.98122 c -0.40056,-0.23126 -0.84709,-0.34626 -1.29412,-0.34626 z m 0,-258.689278 c -0.44704,0 -0.89356,-0.114998 -1.29412,-0.346261 l -10.35879,-5.981218 c -0.80113,-0.462526 -1.29413,-1.316922 -1.29412,-2.241985 v -11.958558 c 0,-0.92505 0.49299,-1.77944 1.29412,-2.24198 l 10.35879,-5.98121 c 0.80112,-0.46252 1.78712,-0.46252 2.58824,0 l 10.35686,5.98121 c 0.80113,0.46254 1.29606,1.31693 1.29606,2.24198 v 11.958558 c 0,0.925063 -0.49493,1.779459 -1.29606,2.241985 l -10.35686,5.981218 c -0.40056,0.231263 -0.84709,0.346261 -1.29412,0.346261 z m 42.95755,260.053048 c -0.40513,0 -0.81118,0.10572 -1.17419,0.31531 l -9.38578,5.41829 c -0.72602,0.41917 -1.17226,1.19474 -1.17226,2.03307 v 10.83659 c 0,0.83834 0.44624,1.6139 1.17226,2.03307 l 9.38578,5.4183 c 0.72602,0.41917 1.62042,0.41917 2.34644,0 l 9.38772,-5.4183 c 0.72602,-0.41917 1.17225,-1.19473 1.17225,-2.03307 v -10.83659 c 0,-0.83833 -0.44623,-1.6139 -1.17225,-2.03307 l -9.38772,-5.41829 c -0.36301,-0.20959 -0.76713,-0.31531 -1.17225,-0.31531 z m 0,-261.416818 c -0.40513,0 -0.81118,-0.105717 -1.17419,-0.31531 l -9.38578,-5.418292 c -0.72602,-0.419166 -1.17226,-1.194735 -1.17226,-2.033066 v -10.836594 c 0,-0.83833 0.44624,-1.6139 1.17226,-2.03307 l 9.38578,-5.4183 c 0.72602,-0.41917 1.62042,-0.41917 2.34644,0 l 9.38772,5.4183 c 0.72602,0.41917 1.17225,1.19474 1.17225,2.03307 v 10.836594 c 0,0.838331 -0.44623,1.6139 -1.17225,2.033066 l -9.38772,5.418292 c -0.36301,0.209593 -0.76713,0.31531 -1.17225,0.31531 z M 415.1575,170.7991 c -0.36321,0 -0.72686,0.0945 -1.05232,0.28243 l -8.4147,4.85925 c -0.65091,0.3758 -1.05232,1.06867 -1.05232,1.82028 v 9.7185 c 0,0.75161 0.40141,1.44448 1.05232,1.82029 l 8.4147,4.85924 c 0.65091,0.37581 1.45373,0.37581 2.10464,0 l 8.41471,-4.85924 c 0.65092,-0.37581 1.05233,-1.06868 1.05233,-1.82029 v -9.7185 c 0,-0.75161 -0.40141,-1.44448 -1.05233,-1.82028 l -8.41471,-4.85925 c -0.32545,-0.1879 -0.68909,-0.28243 -1.05232,-0.28243 z m 0,-264.144337 c -0.36321,0 -0.72686,-0.09453 -1.05232,-0.282428 l -8.4147,-4.85925 c -0.65091,-0.375805 -1.05232,-1.068673 -1.05232,-1.820285 v -9.7185 c 0,-0.75161 0.40141,-1.44448 1.05232,-1.82028 l 8.4147,-4.85925 c 0.65091,-0.37581 1.45373,-0.37581 2.10464,0 l 8.41471,4.85925 c 0.65092,0.3758 1.05233,1.06867 1.05233,1.82028 v 9.7185 c 0,0.751612 -0.40141,1.44448 -1.05233,1.820285 l -8.41471,4.85925 c -0.32545,0.187902 -0.68909,0.282428 -1.05232,0.282428 z m 42.95755,265.508097 c -0.32131,0 -0.64254,0.0833 -0.93045,0.24955 l -7.44556,4.29826 c -0.57581,0.33245 -0.93045,0.94648 -0.93045,1.61137 v 8.59654 c 0,0.66489 0.35464,1.27892 0.93045,1.61136 l 7.44556,4.29828 c 0.57581,0.33244 1.2851,0.33244 1.8609,0 l 7.44364,-4.29828 c 0.57581,-0.33244 0.93045,-0.94647 0.93045,-1.61136 v -8.59654 c 0,-0.66489 -0.35464,-1.27892 -0.93045,-1.61137 l -7.44364,-4.29826 c -0.28789,-0.16623 -0.60913,-0.24955 -0.93045,-0.24955 z m 0,-266.871856 c -0.32131,0 -0.64254,-0.08332 -0.93045,-0.249546 l -7.44556,-4.298266 c -0.57581,-0.332445 -0.93045,-0.946472 -0.93045,-1.611362 v -8.59654 c 0,-0.66489 0.35464,-1.27892 0.93045,-1.61137 l 7.44556,-4.29827 c 0.57581,-0.33245 1.2851,-0.33245 1.8609,0 l 7.44364,4.29827 c 0.57581,0.33245 0.93045,0.94648 0.93045,1.61137 v 8.59654 c 0,0.66489 -0.35464,1.278917 -0.93045,1.611362 l -7.44364,4.298266 c -0.28789,0.166222 -0.60913,0.249546 -0.93045,0.249546 z M 200.36976,213.30786 c -0.53085,0 -1.06219,0.1374 -1.53785,0.41204 l -12.29901,7.10123 c -0.95134,0.54926 -1.53787,1.56518 -1.53787,2.66369 v 14.20054 c 0,1.09851 0.58653,2.11443 1.53787,2.66369 l 12.29901,7.10124 c 0.95133,0.54924 2.12438,0.54924 3.07571,0 l 12.29901,-7.10124 c 0.95134,-0.54926 1.53786,-1.56518 1.53786,-2.66369 v -14.20054 c 0,-1.09851 -0.58652,-2.11443 -1.53786,-2.66369 l -12.29901,-7.10123 c -0.47566,-0.27464 -1.007,-0.41204 -1.53786,-0.41204 z m 0,-349.16186 c -0.53085,0 -1.06219,-0.1374 -1.53785,-0.41203 l -12.29901,-7.10124 c -0.95134,-0.54926 -1.53787,-1.56518 -1.53787,-2.66368 v -14.20054 c 0,-1.09852 0.58653,-2.11444 1.53787,-2.6637 l 12.29901,-7.10123 c 0.95133,-0.54925 2.12438,-0.54925 3.07571,0 l 12.29901,7.10123 c 0.95134,0.54926 1.53786,1.56518 1.53786,2.6637 v 14.20054 c 0,1.0985 -0.58652,2.11442 -1.53786,2.66368 l -12.29901,7.10124 c -0.47566,0.27463 -1.007,0.41203 -1.53786,0.41203 z m 42.95756,350.52562 c -0.48896,0 -0.97789,0.1262 -1.416,0.37915 l -11.32793,6.5422 c -0.87624,0.50588 -1.416,1.43911 -1.416,2.4509 v 13.08051 c 0,1.01179 0.53976,1.94694 1.416,2.45284 l 11.32793,6.54025 c 0.87624,0.50589 1.95575,0.50589 2.83198,0 l 11.32793,-6.54025 c 0.87624,-0.5059 1.416,-1.44105 1.416,-2.45284 v -13.08051 c 0,-1.01179 -0.53976,-1.94695 -1.416,-2.45284 l -11.32793,-6.54026 c -0.43811,-0.25295 -0.92704,-0.37915 -1.41598,-0.37915 z m 0,-351.88938 c -0.48896,0 -0.97789,-0.1262 -1.416,-0.37915 l -11.32793,-6.54219 c -0.87624,-0.50589 -1.416,-1.43911 -1.416,-2.45091 v -13.08051 c 0,-1.01178 0.53976,-1.94694 1.416,-2.45283 l 11.32793,-6.54026 c 0.87624,-0.50589 1.95575,-0.50589 2.83198,0 l 11.32793,6.54026 c 0.87624,0.50589 1.416,1.44105 1.416,2.45283 v 13.08051 c 0,1.0118 -0.53976,1.94695 -1.416,2.45285 l -11.32793,6.54025 c -0.43811,0.25295 -0.92704,0.37915 -1.41598,0.37915 z m 42.95754,353.25315 c -0.44704,0 -0.89356,0.11693 -1.29413,0.34819 l -10.35685,5.97928 c -0.80112,0.46253 -1.29606,1.31692 -1.29606,2.24198 v 11.96049 c 0,0.92506 0.49494,1.77946 1.29606,2.24198 l 10.35685,5.97928 c 0.80114,0.46254 1.78713,0.46254 2.58825,0 l 10.35687,-5.97928 c 0.80112,-0.46252 1.29605,-1.31692 1.29605,-2.24198 v -11.96049 c 0,-0.92506 -0.49493,-1.77945 -1.29605,-2.24198 l -10.35687,-5.97928 c -0.40056,-0.23126 -0.84708,-0.34819 -1.29412,-0.34819 z m 0,-354.61692 c -0.44704,0 -0.89356,-0.11693 -1.29413,-0.34819 l -10.35685,-5.97928 c -0.80112,-0.46252 -1.29606,-1.31692 -1.29606,-2.24198 v -11.96049 c 0,-0.92506 0.49494,-1.77945 1.29606,-2.24198 l 10.35685,-5.97928 c 0.80114,-0.46253 1.78713,-0.46253 2.58825,0 l 10.35687,5.97928 c 0.80112,0.46253 1.29605,1.31692 1.29605,2.24198 v 11.96049 c 0,0.92506 -0.49493,1.77946 -1.29605,2.24198 l -10.35687,5.97928 c -0.40056,0.23126 -0.84708,0.34819 -1.29412,0.34819 z m 42.95755,355.98261 c -0.40513,0 -0.81119,0.1038 -1.17419,0.31338 l -9.38578,5.41829 c -0.72602,0.41918 -1.17225,1.19474 -1.17225,2.03308 v 10.83853 c 0,0.83833 0.44623,1.61196 1.17225,2.03113 l 9.38578,5.42022 c 0.72602,0.41918 1.62042,0.41918 2.34644,0 l 9.38772,-5.42022 c 0.72602,-0.41917 1.17225,-1.1928 1.17225,-2.03113 v -10.83853 c 0,-0.83834 -0.44623,-1.6139 -1.17225,-2.03308 l -9.38772,-5.41829 c -0.36301,-0.20958 -0.76712,-0.31338 -1.17225,-0.31338 z m 0,-357.3483 c -0.40513,0 -0.81119,-0.10379 -1.17419,-0.31338 l -9.38578,-5.41829 c -0.72602,-0.41918 -1.17225,-1.19473 -1.17225,-2.03308 v -10.83852 c 0,-0.83833 0.44623,-1.61197 1.17225,-2.03114 l 9.38578,-5.42022 c 0.72602,-0.41918 1.62042,-0.41918 2.34644,0 l 9.38772,5.42022 c 0.72602,0.41917 1.17225,1.19281 1.17225,2.03114 v 10.83852 c 0,0.83835 -0.44623,1.6139 -1.17225,2.03308 l -9.38772,5.41829 c -0.36301,0.20959 -0.76712,0.31338 -1.17225,0.31338 z m 42.95755,358.71207 c -0.36322,0 -0.72687,0.0926 -1.05232,0.28049 l -8.41471,4.85925 c -0.65092,0.3758 -1.05232,1.0706 -1.05232,1.82221 v 9.71657 c 0,0.75161 0.4014,1.44641 1.05232,1.82222 l 8.41471,4.85731 c 0.65091,0.37581 1.45373,0.37581 2.10464,0 l 8.4147,-4.85731 c 0.65092,-0.37581 1.05232,-1.07061 1.05232,-1.82222 v -9.71657 c 0,-0.75161 -0.4014,-1.44641 -1.05232,-1.82221 l -8.4147,-4.85925 c -0.32546,-0.1879 -0.6891,-0.28049 -1.05232,-0.28049 z m 0,-360.07584 c -0.36322,0 -0.72687,-0.0926 -1.05232,-0.28048 l -8.41471,-4.85925 c -0.65092,-0.37581 -1.05232,-1.07061 -1.05232,-1.82222 v -9.71657 c 0,-0.75161 0.4014,-1.44641 1.05232,-1.82221 l 8.41471,-4.85732 c 0.65091,-0.37581 1.45373,-0.37581 2.10464,0 l 8.4147,4.85732 c 0.65092,0.3758 1.05232,1.0706 1.05232,1.82221 v 9.71657 c 0,0.75161 -0.4014,1.44641 -1.05232,1.82222 l -8.4147,4.85925 c -0.32546,0.1879 -0.6891,0.28048 -1.05232,0.28048 z"
       transform="matrix(1.0096723,0,0,1.0096723,437.6922,280.89849)"
       inkscape:label="shapes"
       inkscape:path-effect="#path-effect727;#path-effect1559;#path-effect8748;#path-effect8613"
       class="UnoptimicedTransforms"
       clip-path="url(#clipPath419)" />
  </g>
  <g
     inkscape:groupmode="layer"
     id="layer5"
     inkscape:label="logo"
     style="display:inline;fill:#f2f2f2"
     transform="translate(-150.01719)"
     class="UnoptimicedTransforms">
    <text
       xml:space="preserve"
       id="text6065"
       style="font-style:normal;font-variant:normal;font-weight:normal;font-stretch:normal;font-size:85.3333px;font-family:Orbitron;-inkscape-font-specification:'Orbitron, Normal ';font-variant-ligatures:normal;font-variant-caps:normal;font-variant-numeric:normal;font-variant-east-asian:normal;white-space:pre;shape-inside:url(#rect6067);display:inline;fill:#f1f1f1;fill-opacity:1;stroke:#000000;stroke-width:1;stroke-linecap:round;stroke-linejoin:round;stroke-dasharray:none;stroke-opacity:1;paint-order:markers stroke fill"
       transform="translate(196.22001,135.31893)"
       inkscape:label="name"><tspan
         x="202.05273"
         y="217.53439"
         id="tspan479">channels</tspan></text>
  </g>
</svg>
