<svg version="1.1" viewBox="0 0 1280 640" xmlns="http://www.w3.org/2000/svg" xmlns:xlink="http://www.w3.org/1999/xlink"><defs><filter id="a" x="-.00079253" y="-.00079255" width="1.0016" height="1.0016" color-interpolation-filters="sRGB"><feComposite in="BackgroundImage" in2="SourceGraphic" operator="arithmetic" result="composite1"/></filter><radialGradient id="b" cx="180.14" cy="4.0152" r="409.32" gradientTransform="matrix(1.0455 0 -6.669e-7 .45679 -8.1901 41.564)" gradientUnits="userSpaceOnUse"><stop stop-color="#5c00ff" offset=".15419"/><stop stop-color="#ff0089" offset="1"/></radialGradient></defs><g display="none"><path class="UnoptimicedTransforms" x="-197.56346" y="-77.453857" width="1668.0642" height="795.86646" d="m0 0v640h1280v-640z" display="inline"/><rect class="UnoptimicedTransforms" width="1280" height="640" ry="0" filter="url(#a)"/></g><g transform="matrix(.98354 0 0 1 3.4233 0)" stroke-linecap="round" stroke-linejoin="round"><path class="UnoptimicedTransforms" transform="matrix(.77086 .43893 -.77086 .43893 173.95 128.97)" d="m239.89-433.83h628.87v628.87l-387.41-83.387 163.94-157.33-165.46-163.36-162.64 156.54z" fill="none" filter="url(#a)" stroke="#0f0" stroke-width=".99682"/><path class="UnoptimicedTransforms" transform="matrix(1.0097 0 0 1.0097 437.69 280.9)" d="m286.29 18.723c-0.61445 0-1.2285 0.15857-1.7793 0.47656l-14.242 8.2227c-1.1015 0.63598-1.7812 1.812-1.7812 3.084v16.441c0 1.272 0.67971 2.448 1.7812 3.084l14.242 8.2227c1.1015 0.63598 2.457 0.63598 3.5586 0l14.242-8.2227c1.1016-0.63598 1.7793-1.812 1.7793-3.084v-16.441c0-1.272-0.67775-2.448-1.7793-3.084l-14.242-8.2227c-0.55077-0.31799-1.1648-0.47656-1.7793-0.47656zm42.957 1.3652c-0.57277 0-1.1469 0.14705-1.6602 0.44336l-13.27 7.6602c-1.0264 0.59262-1.6582 1.6878-1.6582 2.873v15.324c0 1.1852 0.63176 2.2804 1.6582 2.873l13.27 7.6602c1.0264 0.59262 2.2919 0.59262 3.3184 0l13.27-7.6602c1.0264-0.59262 1.6602-1.6878 1.6602-2.873v-15.324c0-1.1852-0.63372-2.2804-1.6602-2.873l-13.27-7.6602c-0.51322-0.29631-1.0854-0.44336-1.6582-0.44336zm42.957 1.3633c-0.5311 0-1.0614 0.13748-1.5371 0.41211l-12.299 7.1016c-0.95133 0.54925-1.5371 1.5616-1.5371 2.6602v14.203c0 1.0985 0.58578 2.1129 1.5371 2.6621l12.299 7.1016c0.95134 0.54926 2.1248 0.54926 3.0762 0l12.299-7.1016c0.95134-0.54925 1.5352-1.5636 1.5352-2.6621v-14.203c0-1.0985-0.58382-2.1109-1.5352-2.6602l-12.299-7.1016c-0.47567-0.27463-1.008-0.41211-1.5391-0.41211zm42.959 1.3633c-0.48894 0-0.9779 0.12596-1.416 0.37891l-11.328 6.541c-0.87623 0.5059-1.416 1.4413-1.416 2.4531v13.08c0 1.0118 0.53978 1.9472 1.416 2.4531l11.328 6.5391c0.87622 0.5059 1.9558 0.5059 2.832 0l11.328-6.5391c0.87624-0.5059 1.416-1.4413 1.416-2.4531v-13.08c0-1.0118-0.53978-1.9472-1.416-2.4531l-11.328-6.541c-0.43811-0.25295-0.92708-0.37891-1.416-0.37891zm42.955 1.3633c-0.44726 0-0.89436 0.11639-1.2949 0.34766l-10.355 5.9805c-0.80113 0.46253-1.2949 1.3171-1.2949 2.2422v11.959c0 0.92506 0.49379 1.7777 1.2949 2.2402l10.355 5.9824c0.80112 0.46254 1.7887 0.46254 2.5898 0l10.357-5.9824c0.80114-0.46253 1.2949-1.3152 1.2949-2.2402v-11.959c0-0.92506-0.49379-1.7797-1.2949-2.2422l-10.357-5.9805c-0.40056-0.23127-0.84765-0.34766-1.2949-0.34766zm42.959 1.3652c-0.40511 0-0.81082 0.10487-1.1738 0.31445l-9.3867 5.418c-0.72602 0.41916-1.1738 1.1949-1.1738 2.0332v10.836c0 0.83834 0.44781 1.614 1.1738 2.0332l9.3867 5.418c0.72602 0.41917 1.6197 0.41917 2.3457 0l9.3867-5.418c0.72603-0.41916 1.1738-1.1949 1.1738-2.0332v-10.836c0-0.83834-0.4478-1.614-1.1738-2.0332l-9.3867-5.418c-0.36301-0.20958-0.76677-0.31445-1.1719-0.31445zm42.957 1.3633c-0.36295 0-0.72533 0.09335-1.0508 0.28125l-8.416 4.8594c-0.65091 0.3758-1.0508 1.0687-1.0508 1.8203v9.7188c0 0.75161 0.39987 1.4445 1.0508 1.8203l8.416 4.8594c0.6509 0.3758 1.4506 0.3758 2.1016 0l8.418-4.8594c0.65091-0.3758 1.0488-1.0687 1.0488-1.8203v-9.7188c0-0.75161-0.39792-1.4445-1.0488-1.8203l-8.418-4.8594c-0.32546-0.1879-0.68783-0.28125-1.0508-0.28125zm42.027 1.6133-7.4453 4.2969c-0.57583 0.33244-0.92969 0.94644-0.92969 1.6113v8.5977c0 0.66489 0.35386 1.2789 0.92969 1.6113l7.4453 4.2988c0.57573 0.33244 1.2855 0.33244 1.8613 0l7.4434-4.2988c0.57583-0.33244 0.93164-0.94644 0.93164-1.6113v-8.5977c0-0.66489-0.35581-1.2789-0.93164-1.6113l-7.4434-4.2969c-0.57583-0.33244-1.2856-0.33244-1.8613 0zm43.078 1.3301-6.4727 3.7383c-0.50076 0.28907-0.80859 0.82418-0.80859 1.4023v7.4746c0 0.57816 0.30783 1.1133 0.80859 1.4023l6.4727 3.7363c0.50075 0.28908 1.1184 0.28908 1.6191 0l6.4726-3.7363c0.50076-0.28907 0.8086-0.82419 0.8086-1.4023v-7.4746c0-0.57816-0.30784-1.1133-0.8086-1.4023l-6.4726-3.7383c-0.50076-0.28908-1.1184-0.28908-1.6191 0zm43.08 1.334-5.502 3.1758c-0.42558 0.24572-0.68945 0.69997-0.68945 1.1914v6.3516c0 0.49144 0.26387 0.94764 0.68945 1.1934l5.502 3.1758c0.42559 0.24571 0.94942 0.24571 1.375 0l5.502-3.1758c0.42558-0.24572 0.6875-0.70192 0.6875-1.1934v-6.3516c0-0.49144-0.26192-0.94568-0.6875-1.1914l-5.502-3.1758c-0.42558-0.24571-0.94941-0.24571-1.375 0zm-385.93 36.867c-0.57276 0-1.1465 0.14861-1.6597 0.44492l-13.27 7.6622c-1.0264 0.59262-1.6578 1.6874-1.6578 2.8726v15.322c0 1.1852 0.63135 2.28 1.6578 2.8726l13.27 7.6622c1.0264 0.59262 2.2911 0.59262 3.3175 0l13.27-7.6622c1.0264-0.59262 1.6597-1.6874 1.6597-2.8726v-15.322c0-1.1852-0.63329-2.28-1.6597-2.8726l-13.27-7.6622c-0.51321-0.2963-1.085-0.44492-1.6578-0.44492zm0-58.648c-0.57276 0-1.1465-0.14861-1.6597-0.44492l-13.27-7.6622c-1.0264-0.59262-1.6578-1.6874-1.6578-2.8726v-15.322c0-1.1852 0.63135-2.28 1.6578-2.8726l13.27-7.6622c1.0264-0.59262 2.2911-0.59262 3.3175 0l13.27 7.6622c1.0264 0.59262 1.6597 1.6874 1.6597 2.8726v15.322c0 1.1852-0.63329 2.28-1.6597 2.8726l-13.27 7.6622c-0.51321 0.2963-1.085 0.44492-1.6578 0.44492zm42.958 60.011c-0.53086 0-1.0622 0.1374-1.5379 0.41202l-12.299 7.1012c-0.95134 0.54926-1.5379 1.5652-1.5379 2.6637v14.201c0 1.0985 0.58652 2.1144 1.5379 2.6637l12.299 7.1012c0.95133 0.54925 2.1244 0.54925 3.0757 0l12.299-7.1012c0.95134-0.54926 1.5359-1.5652 1.5359-2.6637v-14.201c0-1.0985-0.58459-2.1144-1.5359-2.6637l-12.299-7.1012c-0.47567-0.27462-1.007-0.41204-1.5379-0.41202zm0-61.375c-0.53086 0-1.0622-0.1374-1.5379-0.41202l-12.299-7.1012c-0.95134-0.54926-1.5379-1.5652-1.5379-2.6637v-14.201c0-1.0985 0.58652-2.1144 1.5379-2.6637l12.299-7.1012c0.95133-0.54926 2.1244-0.54926 3.0757 0l12.299 7.1012c0.95134 0.54926 1.5359 1.5652 1.5359 2.6637v14.201c0 1.0985-0.58459 2.1144-1.5359 2.6637l-12.299 7.1012c-0.47567 0.27462-1.007 0.41203-1.5379 0.41202zm42.958 62.739c-0.48895 0-0.97788 0.1262-1.416 0.37914l-11.328 6.5403c-0.87623 0.50589-1.416 1.4411-1.416 2.4528v13.081c0 1.0118 0.53976 1.9469 1.416 2.4528l11.328 6.5403c0.87623 0.50588 1.9558 0.50588 2.832 0l11.328-6.5403c0.87622-0.50589 1.416-1.4411 1.416-2.4528v-13.081c0-1.0118-0.53976-1.9469-1.416-2.4528l-11.328-6.5403c-0.43812-0.25294-0.92705-0.37914-1.416-0.37914zm0-64.103c-0.48895 0-0.97788-0.1262-1.416-0.37914l-11.328-6.5403c-0.87623-0.50589-1.416-1.4411-1.416-2.4528v-13.081c0-1.0118 0.53976-1.9469 1.416-2.4528l11.328-6.5403c0.87623-0.50589 1.9558-0.50589 2.832 0l11.328 6.5403c0.87622 0.50589 1.416 1.4411 1.416 2.4528v13.081c0 1.0118-0.53976 1.9469-1.416 2.4528l-11.328 6.5403c-0.43812 0.25294-0.92705 0.37914-1.416 0.37914zm42.958 65.466c-0.44703 0-0.89549 0.11693-1.296 0.34819l-10.357 5.9793c-0.80112 0.46254-1.2941 1.3169-1.2941 2.242v11.96c0 0.92505 0.493 1.7795 1.2941 2.242l10.357 5.9793c0.80112 0.46253 1.789 0.46253 2.5902 0l10.357-5.9793c0.80112-0.46253 1.2941-1.3169 1.2941-2.242v-11.96c0-0.92505-0.493-1.7794-1.2941-2.242l-10.357-5.9793c-0.40056-0.23126-0.84708-0.34819-1.2941-0.34819zm0-66.83c-0.44703 0-0.89549-0.11693-1.296-0.34819l-10.357-5.9793c-0.80112-0.46254-1.2941-1.3169-1.2941-2.242v-11.96c0-0.92505 0.493-1.7795 1.2941-2.242l10.357-5.9793c0.80112-0.46253 1.789-0.46253 2.5902 0l10.357 5.9793c0.80112 0.46253 1.2941 1.3169 1.2941 2.242v11.96c0 0.92505-0.493 1.7794-1.2941 2.242l-10.357 5.9793c-0.40056 0.23126-0.84708 0.34819-1.2941 0.34819zm42.958 68.194c-0.40513 0-0.81117 0.10573-1.1742 0.31531l-9.3858 5.4183c-0.72601 0.41917-1.1742 1.1947-1.1742 2.0331v10.839c1e-5 0.83833 0.44818 1.612 1.1742 2.0311l9.3858 5.4202c0.72603 0.41917 1.6204 0.41917 2.3465 0l9.3858-5.4202c0.72602-0.41916 1.1742-1.1928 1.1742-2.0311v-10.839c0-0.83833-0.44817-1.6139-1.1742-2.0331l-9.3858-5.4183c-0.36302-0.20958-0.76713-0.31531-1.1723-0.31531zm0-69.558c-0.40513 0-0.81117-0.10573-1.1742-0.31531l-9.3858-5.4183c-0.72601-0.41917-1.1742-1.1947-1.1742-2.0331v-10.839c1e-5 -0.83833 0.44818-1.612 1.1742-2.0311l9.3858-5.4202c0.72603-0.41917 1.6204-0.41917 2.3465 0l9.3858 5.4202c0.72602 0.41916 1.1742 1.1928 1.1742 2.0311v10.839c0 0.83833-0.44817 1.6139-1.1742 2.0331l-9.3858 5.4183c-0.36302 0.20958-0.76713 0.31531-1.1723 0.31531zm42.958 70.923c-0.36322 0-0.72687 0.09258-1.0523 0.28049l-8.4147 4.8592c-0.65091 0.3758-1.0523 1.0706-1.0523 1.8222v9.7166c0 0.75162 0.40141 1.4464 1.0523 1.8222l8.4147 4.8573c0.65092 0.37582 1.4518 0.37582 2.1027 0l8.4166-4.8573c0.65091-0.3758 1.0504-1.0706 1.0504-1.8222v-9.7166c0-0.75161-0.39948-1.4464-1.0504-1.8222l-8.4166-4.8592c-0.32547-0.1879-0.68718-0.28049-1.0504-0.28049zm0-72.289c-0.36322 0-0.72687-0.092585-1.0523-0.28049l-8.4147-4.8592c-0.65091-0.37581-1.0523-1.0706-1.0523-1.8222v-9.7166c0-0.75162 0.40141-1.4464 1.0523-1.8222l8.4147-4.8573c0.65092-0.37582 1.4518-0.37582 2.1027 0l8.4166 4.8573c0.65091 0.3758 1.0504 1.0706 1.0504 1.8222v9.7166c0 0.75161-0.39948 1.4464-1.0504 1.8222l-8.4166 4.8592c-0.32547 0.1879-0.68718 0.28049-1.0504 0.28049zm42.958 73.653c-0.32132 0-0.64256 0.08332-0.93046 0.24955l-7.4456 4.2963c-0.5758 0.33244-0.93045 0.94842-0.93045 1.6133v8.5946c0 0.66489 0.35465 1.2789 0.93045 1.6114l7.4456 4.2983c0.57581 0.33244 1.2851 0.33244 1.8609 0l7.4436-4.2983c0.57581-0.33244 0.93046-0.94648 0.93046-1.6114v-8.5946c0-0.66488-0.35465-1.2809-0.93046-1.6133l-7.4436-4.2963c-0.28791-0.16622-0.60915-0.24955-0.93045-0.24955zm0-75.017c-0.32132 0-0.64256-0.083324-0.93046-0.24955l-7.4456-4.2963c-0.5758-0.33244-0.93045-0.94842-0.93045-1.6133v-8.5946c0-0.66489 0.35465-1.2789 0.93045-1.6114l7.4456-4.2983c0.57581-0.33244 1.2851-0.33244 1.8609 0l7.4436 4.2983c0.57581 0.33244 0.93046 0.94648 0.93046 1.6114v8.5946c0 0.66488-0.35465 1.2809-0.93046 1.6133l-7.4436 4.2963c-0.28791 0.16622-0.60915 0.24955-0.93045 0.24955zm42.147 76.597-6.4726 3.7373c-0.50065 0.28908-0.80858 0.82236-0.80858 1.4005v7.4746c0 0.57817 0.30793 1.1134 0.80858 1.4025l6.4726 3.7373c0.50066 0.28908 1.1184 0.28908 1.619 0l6.4726-3.7373c0.50066-0.28908 0.80858-0.82429 0.80858-1.4025v-7.4746c0-0.57817-0.30792-1.1114-0.80858-1.4005l-6.4726-3.7373c-0.50066-0.28908-1.1184-0.28908-1.619 0zm0-78.177-6.4726-3.7373c-0.50065-0.28908-0.80858-0.82236-0.80858-1.4005v-7.4746c0-0.57817 0.30793-1.1134 0.80858-1.4025l6.4726-3.7373c0.50066-0.28908 1.1184-0.28908 1.619 0l6.4726 3.7373c0.50066 0.28908 0.80858 0.82429 0.80858 1.4025v7.4746c0 0.57817-0.30792 1.1114-0.80858 1.4005l-6.4726 3.7373c-0.50066 0.28908-1.1184 0.28908-1.619 0zm43.079 79.508-5.5015 3.1763c-0.42558 0.24571-0.68864 0.70016-0.68864 1.1916v6.3546c0 0.49144 0.26306 0.94395 0.68864 1.1897l5.5015 3.1782c0.42558 0.24571 0.94972 0.24571 1.3753 0l5.5015-3.1782c0.42558-0.24571 0.68864-0.69823 0.68864-1.1897v-6.3546c0-0.49144-0.26306-0.94588-0.68864-1.1916l-5.5015-3.1763c-0.42558-0.24572-0.94972-0.24572-1.3753 0zm0-80.839-5.5015-3.1763c-0.42558-0.24571-0.68864-0.70016-0.68864-1.1916v-6.3546c0-0.49144 0.26306-0.94395 0.68864-1.1897l5.5015-3.1782c0.42558-0.24571 0.94972-0.24571 1.3753 0l5.5015 3.1782c0.42558 0.24571 0.68864 0.69823 0.68864 1.1897v6.3546c0 0.49144-0.26306 0.94588-0.68864 1.1916l-5.5015 3.1763c-0.42558 0.24572-0.94972 0.24572-1.3753 0zm-428.89 116.34c-0.61467 0-1.2289 0.15982-1.7797 0.4778l-14.241 8.2213c-1.1015 0.63598-1.7797 1.8115-1.7797 3.0835v16.444c0 1.272 0.67812 2.4475 1.7797 3.0835l14.241 8.2213c1.1016 0.63598 2.4578 0.63598 3.5593 0l14.241-8.2213c1.1015-0.63598 1.7797-1.8115 1.7797-3.0835v-16.444c0-1.272-0.67812-2.4475-1.7797-3.0835l-14.241-8.2213c-0.55078-0.31798-1.165-0.4778-1.7797-0.4778zm0-151.85c-0.61467 0-1.2289-0.15982-1.7797-0.4778l-14.241-8.2213c-1.1015-0.63598-1.7797-1.8115-1.7797-3.0835v-16.444c0-1.272 0.67812-2.4475 1.7797-3.0835l14.241-8.2213c1.1016-0.63598 2.4578-0.63598 3.5593 0l14.241 8.2213c1.1015 0.63598 1.7797 1.8115 1.7797 3.0835v16.444c0 1.272-0.67812 2.4475-1.7797 3.0835l-14.241 8.2213c-0.55078 0.31798-1.165 0.4778-1.7797 0.4778zm42.958 153.21c-0.57277 0-1.1465 0.14861-1.6597 0.44492l-13.27 7.6622c-1.0264 0.59262-1.6578 1.6874-1.6578 2.8726v15.323c0 1.1852 0.63135 2.2819 1.6578 2.8745l13.27 7.6603c1.0264 0.59261 2.2911 0.59261 3.3175 0l13.27-7.6603c1.0264-0.59262 1.6597-1.6893 1.6597-2.8745v-15.323c0-1.1852-0.63328-2.28-1.6597-2.8726l-13.27-7.6622c-0.51323-0.29631-1.085-0.44492-1.6578-0.44492zm0-154.58c-0.57277 0-1.1465-0.1486-1.6597-0.44492l-13.27-7.6622c-1.0264-0.59262-1.6578-1.6874-1.6578-2.8726v-15.323c0-1.1852 0.63135-2.2819 1.6578-2.8745l13.27-7.6603c1.0264-0.59261 2.2911-0.59261 3.3175 0l13.27 7.6603c1.0264 0.59262 1.6597 1.6893 1.6597 2.8745v15.323c0 1.1852-0.63328 2.28-1.6597 2.8726l-13.27 7.6622c-0.51323 0.29631-1.085 0.44492-1.6578 0.44492zm42.958 155.94c-0.53086 0-1.0622 0.1374-1.5379 0.41204l-12.299 7.0993c-0.95134 0.54925-1.5378 1.5652-1.5378 2.6637v14.202c0 1.0985 0.58651 2.1125 1.5378 2.6618l12.299 7.1012c0.95134 0.54924 2.1244 0.54924 3.0757 0l12.299-7.1012c0.95133-0.54925 1.5359-1.5632 1.5359-2.6618v-14.202c0-1.0985-0.5846-2.1144-1.5359-2.6637l-12.299-7.0993c-0.47567-0.27464-1.007-0.41204-1.5379-0.41204zm0-157.31c-0.53086 0-1.0622-0.1374-1.5379-0.41204l-12.299-7.0993c-0.95134-0.54925-1.5378-1.5652-1.5378-2.6637v-14.202c0-1.0985 0.58651-2.1125 1.5378-2.6618l12.299-7.1012c0.95134-0.54925 2.1244-0.54925 3.0757 0l12.299 7.1012c0.95133 0.54925 1.5359 1.5632 1.5359 2.6618v14.202c0 1.0985-0.5846 2.1144-1.5359 2.6637l-12.299 7.0993c-0.47567 0.27463-1.007 0.41204-1.5379 0.41204zm42.958 158.67c-0.48895 0-0.97787 0.1262-1.416 0.37915l-11.328 6.5402c-0.87622 0.50589-1.416 1.4411-1.416 2.4528v13.081c0 1.0118 0.53976 1.9469 1.416 2.4528l11.328 6.5403c0.87624 0.50589 1.9558 0.50589 2.832 0l11.328-6.5403c0.87622-0.5059 1.416-1.441 1.416-2.4528v-13.081c0-1.0118-0.53977-1.947-1.416-2.4528l-11.328-6.5402c-0.43811-0.25295-0.92704-0.37915-1.416-0.37915zm0-160.03c-0.48895 0-0.97787-0.1262-1.416-0.37914l-11.328-6.5403c-0.87622-0.5059-1.416-1.4411-1.416-2.4528v-13.081c0-1.0118 0.53976-1.9469 1.416-2.4528l11.328-6.5403c0.87624-0.50589 1.9558-0.50589 2.832 0l11.328 6.5403c0.87622 0.5059 1.416 1.4411 1.416 2.4528v13.081c0 1.0118-0.53977 1.9469-1.416 2.4528l-11.328 6.5403c-0.43811 0.25294-0.92704 0.37914-1.416 0.37914zm42.958 161.4c-0.44704 0-0.89357 0.115-1.2941 0.34626l-10.359 5.9793c-0.80112 0.46253-1.2941 1.3169-1.2941 2.242v11.96c0 0.92506 0.493 1.7795 1.2941 2.242l10.359 5.9793c0.80112 0.46254 1.7871 0.46254 2.5882 0l10.357-5.9793c0.80112-0.46252 1.2941-1.3169 1.2941-2.242v-11.96c0-0.92506-0.493-1.7794-1.2941-2.242l-10.357-5.9793c-0.40056-0.23126-0.84708-0.34626-1.2941-0.34626zm0-162.76c-0.44704 0-0.89357-0.115-1.2941-0.34626l-10.359-5.9793c-0.80112-0.46253-1.2941-1.3169-1.2941-2.242v-11.96c0-0.92506 0.493-1.7795 1.2941-2.242l10.359-5.9793c0.80112-0.46254 1.7871-0.46254 2.5882 0l10.357 5.9793c0.80112 0.46253 1.2941 1.3169 1.2941 2.242v11.96c0 0.92506-0.493 1.7795-1.2941 2.242l-10.357 5.9793c-0.40056 0.23126-0.84708 0.34626-1.2941 0.34626zm42.958 164.13c-0.40512 0-0.81117 0.1038-1.1742 0.31338l-9.3858 5.4202c-0.72602 0.41918-1.1722 1.1928-1.1722 2.0312v10.839c0 0.83835 0.44623 1.6139 1.1722 2.0331l9.3858 5.4183c0.72602 0.41917 1.6204 0.41917 2.3464 0l9.3858-5.4183c0.72602-0.41917 1.1742-1.1947 1.1742-2.0331v-10.839c0-0.83834-0.44817-1.612-1.1742-2.0312l-9.3858-5.4202c-0.36301-0.20958-0.76713-0.31338-1.1723-0.31338zm0-165.49c-0.40512 0-0.81117-0.1038-1.1742-0.31338l-9.3858-5.4202c-0.72602-0.41918-1.1722-1.1928-1.1722-2.0311v-10.839c0-0.83834 0.44623-1.6139 1.1722-2.0331l9.3858-5.4183c0.72602-0.41916 1.6204-0.41916 2.3464 0l9.3858 5.4183c0.72602 0.41917 1.1742 1.1947 1.1742 2.0331v10.839c0 0.83834-0.44817 1.612-1.1742 2.0311l-9.3858 5.4202c-0.36301 0.20958-0.76713 0.31338-1.1723 0.31338zm42.958 166.85c-0.36321 0-0.72686 0.0945-1.0523 0.28242l-8.4147 4.8573c-0.65091 0.3758-1.0523 1.0706-1.0523 1.8222v9.7166c0 0.75161 0.40141 1.4464 1.0523 1.8222l8.4147 4.8592c0.65092 0.3758 1.4518 0.3758 2.1027 0l8.4166-4.8592c0.6509-0.37581 1.0504-1.0706 1.0504-1.8222v-9.7166c0-0.75161-0.39948-1.4464-1.0504-1.8222l-8.4166-4.8573c-0.32546-0.1879-0.68717-0.28243-1.0504-0.28242zm0-168.22c-0.36321 0-0.72686-0.09452-1.0523-0.28242l-8.4147-4.8573c-0.65091-0.3758-1.0523-1.0706-1.0523-1.8222v-9.7166c0-0.75161 0.40141-1.4464 1.0523-1.8222l8.4147-4.8592c0.65092-0.37581 1.4518-0.37581 2.1027 0l8.4166 4.8592c0.6509 0.37581 1.0504 1.0706 1.0504 1.8222v9.7166c0 0.75161-0.39948 1.4464-1.0504 1.8222l-8.4166 4.8573c-0.32546 0.1879-0.68717 0.28243-1.0504 0.28242zm42.958 169.58c-0.32132 0-0.64256 0.0833-0.93045 0.24954l-7.4456 4.2983c-0.57581 0.33245-0.93046 0.94649-0.93046 1.6114v8.5946c0 0.66489 0.35465 1.2809 0.93046 1.6133l7.4456 4.2963c0.5758 0.33244 1.2851 0.33244 1.8609 0l7.4436-4.2963c0.5758-0.33244 0.93045-0.94841 0.93045-1.6133v-8.5946c0-0.66489-0.35465-1.2789-0.93045-1.6114l-7.4436-4.2983c-0.28791-0.16623-0.60915-0.24954-0.93045-0.24954zm0-170.94c-0.32132 0-0.64256-0.08331-0.93045-0.24954l-7.4456-4.2983c-0.57581-0.33244-0.93046-0.94648-0.93046-1.6114v-8.5946c0-0.66489 0.35465-1.2809 0.93046-1.6133l7.4456-4.2963c0.5758-0.33244 1.2851-0.33244 1.8609 0l7.4436 4.2963c0.5758 0.33244 0.93045 0.94842 0.93045 1.6133v8.5946c0 0.66489-0.35465 1.2789-0.93045 1.6114l-7.4436 4.2983c-0.28791 0.16622-0.60915 0.24954-0.93045 0.24954zm42.147 172.52-6.4726 3.7373c-0.50071 0.28908-0.80859 0.82428-0.80859 1.4024v7.4746c0 0.57816 0.30788 1.1114 0.80859 1.4005l6.4726 3.7373c0.50069 0.28908 1.1184 0.28908 1.6191 0l6.4726-3.7373c0.5007-0.28909 0.81052-0.82236 0.81052-1.4005v-7.4746c0-0.57816-0.30982-1.1134-0.81052-1.4024l-6.4726-3.7373c-0.5007-0.28908-1.1184-0.28908-1.6191 0zm0-174.11-6.4726-3.7373c-0.50071-0.28908-0.80859-0.82429-0.80859-1.4024v-7.4746c0-0.57816 0.30788-1.1114 0.80859-1.4005l6.4726-3.7373c0.50069-0.28908 1.1184-0.28908 1.6191 0l6.4726 3.7373c0.5007 0.28908 0.81052 0.82236 0.81052 1.4005v7.4746c0 0.57816-0.30982 1.1134-0.81052 1.4024l-6.4726 3.7373c-0.5007 0.28908-1.1184 0.28908-1.6191 0zm-342.85 212.31c-0.57277 0-1.1446 0.14862-1.6578 0.44492l-13.27 7.6603c-1.0264 0.59262-1.6597 1.6874-1.6597 2.8726v15.324c0 1.1852 0.63329 2.28 1.6597 2.8726l13.27 7.6603c1.0264 0.59262 2.2892 0.59262 3.3156 0l13.27-7.6603c1.0264-0.59262 1.6597-1.6874 1.6597-2.8726v-15.324c0-1.1852-0.63328-2.28-1.6597-2.8726l-13.27-7.6603c-0.51323-0.2963-1.085-0.44492-1.6578-0.44492zm0-250.51c-0.57277 0-1.1446-0.14861-1.6578-0.44492l-13.27-7.6603c-1.0264-0.59262-1.6597-1.6874-1.6597-2.8726v-15.324c0-1.1852 0.63329-2.28 1.6597-2.8726l13.27-7.6603c1.0264-0.59262 2.2892-0.59262 3.3156 0l13.27 7.6603c1.0264 0.59262 1.6597 1.6874 1.6597 2.8726v15.324c0 1.1852-0.63328 2.28-1.6597 2.8726l-13.27 7.6603c-0.51323 0.2963-1.085 0.44492-1.6578 0.44492zm42.958 251.87c-0.53087 0-1.0622 0.1374-1.5379 0.41203l-12.299 7.1012c-0.95133 0.54926-1.5379 1.5632-1.5379 2.6618v14.202c0 1.0985 0.58653 2.1125 1.5379 2.6618l12.299 7.1012c0.95134 0.54925 2.1244 0.54925 3.0757 0l12.299-7.1012c0.95134-0.54926 1.5359-1.5632 1.5359-2.6618v-14.202c0-1.0985-0.58458-2.1125-1.5359-2.6618l-12.299-7.1012c-0.47567-0.27463-1.007-0.41203-1.5378-0.41203zm0-253.23c-0.53087 0-1.0622-0.1374-1.5379-0.41202l-12.299-7.1012c-0.95133-0.54926-1.5379-1.5632-1.5379-2.6618v-14.202c0-1.0985 0.58653-2.1125 1.5379-2.6618l12.299-7.1012c0.95134-0.54926 2.1244-0.54926 3.0757 0l12.299 7.1012c0.95134 0.54926 1.5359 1.5632 1.5359 2.6618v14.202c0 1.0985-0.58458 2.1125-1.5359 2.6618l-12.299 7.1012c-0.47567 0.27462-1.007 0.41202-1.5378 0.41202zm42.958 254.6c-0.48894 0-0.97787 0.1262-1.416 0.37914l-11.328 6.5403c-0.87623 0.50588-1.416 1.441-1.416 2.4528v13.081c0 1.0118 0.53976 1.947 1.416 2.4528l11.328 6.5403c0.87623 0.5059 1.9558 0.5059 2.832 0l11.328-6.5403c0.87624-0.50589 1.416-1.441 1.416-2.4528v-13.081c0-1.0118-0.53976-1.947-1.416-2.4528l-11.328-6.5403c-0.43811-0.25294-0.92704-0.37914-1.416-0.37914zm0-255.96c-0.48894 0-0.97787-0.1262-1.416-0.37914l-11.328-6.5403c-0.87623-0.50589-1.416-1.4411-1.416-2.4528v-13.081c0-1.0118 0.53976-1.947 1.416-2.4528l11.328-6.5403c0.87623-0.50589 1.9558-0.50589 2.832 0l11.328 6.5403c0.87624 0.50588 1.416 1.441 1.416 2.4528v13.081c0 1.0118-0.53976 1.9469-1.416 2.4528l-11.328 6.5403c-0.43811 0.25294-0.92704 0.37914-1.416 0.37914zm42.958 257.33c-0.44704 0-0.89356 0.115-1.2941 0.34626l-10.359 5.9812c-0.80113 0.46253-1.2941 1.3169-1.2941 2.242v11.959c0 0.92505 0.49299 1.7794 1.2941 2.242l10.359 5.9812c0.80112 0.46253 1.7871 0.46253 2.5882 0l10.357-5.9812c0.80113-0.46253 1.2961-1.3169 1.2961-2.242v-11.959c0-0.92506-0.49493-1.7794-1.2961-2.242l-10.357-5.9812c-0.40056-0.23126-0.84709-0.34626-1.2941-0.34626zm0-258.69c-0.44704 0-0.89356-0.115-1.2941-0.34626l-10.359-5.9812c-0.80113-0.46253-1.2941-1.3169-1.2941-2.242v-11.959c0-0.92505 0.49299-1.7794 1.2941-2.242l10.359-5.9812c0.80112-0.46252 1.7871-0.46252 2.5882 0l10.357 5.9812c0.80113 0.46254 1.2961 1.3169 1.2961 2.242v11.959c0 0.92506-0.49493 1.7795-1.2961 2.242l-10.357 5.9812c-0.40056 0.23126-0.84709 0.34626-1.2941 0.34626zm42.958 260.05c-0.40513 0-0.81118 0.10572-1.1742 0.31531l-9.3858 5.4183c-0.72602 0.41917-1.1723 1.1947-1.1723 2.0331v10.837c0 0.83834 0.44624 1.6139 1.1723 2.0331l9.3858 5.4183c0.72602 0.41917 1.6204 0.41917 2.3464 0l9.3877-5.4183c0.72602-0.41917 1.1722-1.1947 1.1722-2.0331v-10.837c0-0.83833-0.44623-1.6139-1.1722-2.0331l-9.3877-5.4183c-0.36301-0.20959-0.76713-0.31531-1.1722-0.31531zm0-261.42c-0.40513 0-0.81118-0.10572-1.1742-0.31531l-9.3858-5.4183c-0.72602-0.41917-1.1723-1.1947-1.1723-2.0331v-10.837c0-0.83833 0.44624-1.6139 1.1723-2.0331l9.3858-5.4183c0.72602-0.41917 1.6204-0.41917 2.3464 0l9.3877 5.4183c0.72602 0.41917 1.1722 1.1947 1.1722 2.0331v10.837c0 0.83833-0.44623 1.6139-1.1722 2.0331l-9.3877 5.4183c-0.36301 0.20959-0.76713 0.31531-1.1722 0.31531zm42.958 262.78c-0.36321 0-0.72686 0.0945-1.0523 0.28243l-8.4147 4.8592c-0.65091 0.3758-1.0523 1.0687-1.0523 1.8203v9.7185c0 0.75161 0.40141 1.4445 1.0523 1.8203l8.4147 4.8592c0.65091 0.37581 1.4537 0.37581 2.1046 0l8.4147-4.8592c0.65092-0.37581 1.0523-1.0687 1.0523-1.8203v-9.7185c0-0.75161-0.40141-1.4445-1.0523-1.8203l-8.4147-4.8592c-0.32545-0.1879-0.68909-0.28243-1.0523-0.28243zm0-264.14c-0.36321 0-0.72686-0.09453-1.0523-0.28243l-8.4147-4.8592c-0.65091-0.3758-1.0523-1.0687-1.0523-1.8203v-9.7185c0-0.75161 0.40141-1.4445 1.0523-1.8203l8.4147-4.8592c0.65091-0.37581 1.4537-0.37581 2.1046 0l8.4147 4.8592c0.65092 0.3758 1.0523 1.0687 1.0523 1.8203v9.7185c0 0.75161-0.40141 1.4445-1.0523 1.8203l-8.4147 4.8592c-0.32545 0.1879-0.68909 0.28243-1.0523 0.28243zm42.958 265.51c-0.32131 0-0.64254 0.0833-0.93045 0.24955l-7.4456 4.2983c-0.57581 0.33245-0.93045 0.94648-0.93045 1.6114v8.5965c0 0.66489 0.35464 1.2789 0.93045 1.6114l7.4456 4.2983c0.57581 0.33244 1.2851 0.33244 1.8609 0l7.4436-4.2983c0.57581-0.33244 0.93045-0.94647 0.93045-1.6114v-8.5965c0-0.66489-0.35464-1.2789-0.93045-1.6114l-7.4436-4.2983c-0.28789-0.16623-0.60913-0.24955-0.93045-0.24955zm0-266.87c-0.32131 0-0.64254-0.08332-0.93045-0.24955l-7.4456-4.2983c-0.57581-0.33244-0.93045-0.94647-0.93045-1.6114v-8.5965c0-0.66489 0.35464-1.2789 0.93045-1.6114l7.4456-4.2983c0.57581-0.33245 1.2851-0.33245 1.8609 0l7.4436 4.2983c0.57581 0.33245 0.93045 0.94648 0.93045 1.6114v8.5965c0 0.66489-0.35464 1.2789-0.93045 1.6114l-7.4436 4.2983c-0.28789 0.16622-0.60913 0.24955-0.93045 0.24955zm-257.75 308.02c-0.53085 0-1.0622 0.1374-1.5378 0.41204l-12.299 7.1012c-0.95134 0.54926-1.5379 1.5652-1.5379 2.6637v14.201c0 1.0985 0.58653 2.1144 1.5379 2.6637l12.299 7.1012c0.95133 0.54924 2.1244 0.54924 3.0757 0l12.299-7.1012c0.95134-0.54926 1.5379-1.5652 1.5379-2.6637v-14.201c0-1.0985-0.58652-2.1144-1.5379-2.6637l-12.299-7.1012c-0.47566-0.27464-1.007-0.41204-1.5379-0.41204zm0-349.16c-0.53085 0-1.0622-0.1374-1.5378-0.41203l-12.299-7.1012c-0.95134-0.54926-1.5379-1.5652-1.5379-2.6637v-14.201c0-1.0985 0.58653-2.1144 1.5379-2.6637l12.299-7.1012c0.95133-0.54925 2.1244-0.54925 3.0757 0l12.299 7.1012c0.95134 0.54926 1.5379 1.5652 1.5379 2.6637v14.201c0 1.0985-0.58652 2.1144-1.5379 2.6637l-12.299 7.1012c-0.47566 0.27463-1.007 0.41203-1.5379 0.41203zm42.958 350.53c-0.48896 0-0.97789 0.1262-1.416 0.37915l-11.328 6.5422c-0.87624 0.50588-1.416 1.4391-1.416 2.4509v13.081c0 1.0118 0.53976 1.9469 1.416 2.4528l11.328 6.5402c0.87624 0.50589 1.9558 0.50589 2.832 0l11.328-6.5402c0.87624-0.5059 1.416-1.441 1.416-2.4528v-13.081c0-1.0118-0.53976-1.947-1.416-2.4528l-11.328-6.5403c-0.43811-0.25295-0.92704-0.37915-1.416-0.37915zm0-351.89c-0.48896 0-0.97789-0.1262-1.416-0.37915l-11.328-6.5422c-0.87624-0.50589-1.416-1.4391-1.416-2.4509v-13.081c0-1.0118 0.53976-1.9469 1.416-2.4528l11.328-6.5403c0.87624-0.50589 1.9558-0.50589 2.832 0l11.328 6.5403c0.87624 0.50589 1.416 1.441 1.416 2.4528v13.081c0 1.0118-0.53976 1.947-1.416 2.4528l-11.328 6.5402c-0.43811 0.25295-0.92704 0.37915-1.416 0.37915zm42.958 353.25c-0.44704 0-0.89356 0.11693-1.2941 0.34819l-10.357 5.9793c-0.80112 0.46253-1.2961 1.3169-1.2961 2.242v11.96c0 0.92506 0.49494 1.7795 1.2961 2.242l10.357 5.9793c0.80114 0.46254 1.7871 0.46254 2.5882 0l10.357-5.9793c0.80112-0.46252 1.296-1.3169 1.296-2.242v-11.96c0-0.92506-0.49493-1.7794-1.296-2.242l-10.357-5.9793c-0.40056-0.23126-0.84708-0.34819-1.2941-0.34819zm0-354.62c-0.44704 0-0.89356-0.11693-1.2941-0.34819l-10.357-5.9793c-0.80112-0.46252-1.2961-1.3169-1.2961-2.242v-11.96c0-0.92506 0.49494-1.7794 1.2961-2.242l10.357-5.9793c0.80114-0.46253 1.7871-0.46253 2.5882 0l10.357 5.9793c0.80112 0.46253 1.296 1.3169 1.296 2.242v11.96c0 0.92506-0.49493 1.7795-1.296 2.242l-10.357 5.9793c-0.40056 0.23126-0.84708 0.34819-1.2941 0.34819zm42.958 355.98c-0.40513 0-0.81119 0.1038-1.1742 0.31338l-9.3858 5.4183c-0.72602 0.41918-1.1722 1.1947-1.1722 2.0331v10.839c0 0.83833 0.44623 1.612 1.1722 2.0311l9.3858 5.4202c0.72602 0.41918 1.6204 0.41918 2.3464 0l9.3877-5.4202c0.72602-0.41917 1.1722-1.1928 1.1722-2.0311v-10.839c0-0.83834-0.44623-1.6139-1.1722-2.0331l-9.3877-5.4183c-0.36301-0.20958-0.76712-0.31338-1.1722-0.31338zm0-357.35c-0.40513 0-0.81119-0.10379-1.1742-0.31338l-9.3858-5.4183c-0.72602-0.41918-1.1722-1.1947-1.1722-2.0331v-10.839c0-0.83833 0.44623-1.612 1.1722-2.0311l9.3858-5.4202c0.72602-0.41918 1.6204-0.41918 2.3464 0l9.3877 5.4202c0.72602 0.41917 1.1722 1.1928 1.1722 2.0311v10.839c0 0.83835-0.44623 1.6139-1.1722 2.0331l-9.3877 5.4183c-0.36301 0.20959-0.76712 0.31338-1.1722 0.31338zm42.958 358.71c-0.36322 0-0.72687 0.0926-1.0523 0.28049l-8.4147 4.8592c-0.65092 0.3758-1.0523 1.0706-1.0523 1.8222v9.7166c0 0.75161 0.4014 1.4464 1.0523 1.8222l8.4147 4.8573c0.65091 0.37581 1.4537 0.37581 2.1046 0l8.4147-4.8573c0.65092-0.37581 1.0523-1.0706 1.0523-1.8222v-9.7166c0-0.75161-0.4014-1.4464-1.0523-1.8222l-8.4147-4.8592c-0.32546-0.1879-0.6891-0.28049-1.0523-0.28049zm0-360.08c-0.36322 0-0.72687-0.0926-1.0523-0.28048l-8.4147-4.8592c-0.65092-0.37581-1.0523-1.0706-1.0523-1.8222v-9.7166c0-0.75161 0.4014-1.4464 1.0523-1.8222l8.4147-4.8573c0.65091-0.37581 1.4537-0.37581 2.1046 0l8.4147 4.8573c0.65092 0.3758 1.0523 1.0706 1.0523 1.8222v9.7166c0 0.75161-0.4014 1.4464-1.0523 1.8222l-8.4147 4.8592c-0.32546 0.1879-0.6891 0.28048-1.0523 0.28048z" fill="url(#b)" stroke="#000" stroke-width=".99867" style="paint-order:markers stroke fill"/></g><g class="UnoptimicedTransforms" transform="translate(-150.02)" fill="#f2f2f2"><text transform="translate(196.22 135.32)" fill="#f1f1f1" font-family="Orbitron" font-size="85.333px" stroke="#000000" stroke-linecap="round" stroke-linejoin="round" style="font-variant-caps:normal;font-variant-east-asian:normal;font-variant-ligatures:normal;font-variant-numeric:normal;paint-order:markers stroke fill;shape-inside:url(#rect6067);white-space:pre" xml:space="preserve"><tspan x="202.05273" y="217.53439">channels</tspan></text></g></svg>
