<svg version="1.1" viewBox="0 0 512 400" xmlns="http://www.w3.org/2000/svg" xmlns:xlink="http://www.w3.org/1999/xlink"><g fill-rule="evenodd" stroke="#000" stroke-linejoin="round" stroke-miterlimit="0" stroke-width="5.25"><path d="m9.1557 89.701 246.84-66.142 246.84 66.142-246.84 66.142z" fill="#b5a97d"/><path d="m256 156.79 246.84-66.142v231.5l-246.84 66.142z" fill="#e9daa1"/><path d="m9.1557 90.646 246.84 66.142v231.5l-246.84-66.142z" fill="#cfc18f"/></g><g fill="#9c9c9c" fill-rule="evenodd" stroke="#000" stroke-linejoin="round" stroke-miterlimit="0" stroke-width="5.25"><path d="m414.69 113.32-74.054 19.841v59.527l74.054-19.841z"/><path d="m167.84 47.182-74.054 19.841 246.85 66.141 74.054-19.841z"/></g><g transform="translate(-63.474 -17.008)"><path id="a" d="m96.433 276.55 12.342 23.15-6.1711-1.6536-1.4e-4 39.685-12.342-3.3075v-39.685l-6.1711-1.6535z" fill="#4e4e4e" fill-rule="evenodd" stroke="#000" stroke-linejoin="round" stroke-miterlimit="0" stroke-width="1.75" style="mix-blend-mode:normal"/><use transform="translate(31.737 8.5038)" xlink:href="#a"/></g><path d="m348.14 289.89-76.736 20.561a6.5161 6.5161 127.5 0 0-4.8296 6.2941v56.142a3.8366 3.8366 37.5 0 0 4.8296 3.7059l76.736-20.561a6.5161 6.5161 127.5 0 0 4.8296-6.2941v-56.142a3.8366 3.8366 37.5 0 0-4.8296-3.7059z" fill="#f2f2f2" fill-rule="evenodd" stroke="#000" stroke-linejoin="round" stroke-miterlimit="0" stroke-width="1.75"/></svg>
