<?xml version="1.0" encoding="UTF-8" standalone="no"?>
<!-- Created with Inkscape (http://www.inkscape.org/) -->

<svg
   width="1280"
   height="640"
   viewBox="0 0 1280 640"
   version="1.1"
   id="svg5"
   inkscape:version="1.2.2 (b0a8486541, 2022-12-01)"
   sodipodi:docname="repo.inkscape.svg"
   inkscape:export-filename="repo.png"
   inkscape:export-xdpi="96"
   inkscape:export-ydpi="96"
   xmlns:inkscape="http://www.inkscape.org/namespaces/inkscape"
   xmlns:sodipodi="http://sodipodi.sourceforge.net/DTD/sodipodi-0.dtd"
   xmlns:xlink="http://www.w3.org/1999/xlink"
   xmlns="http://www.w3.org/2000/svg"
   xmlns:svg="http://www.w3.org/2000/svg">
  <sodipodi:namedview
     id="namedview7"
     pagecolor="#ffffff"
     bordercolor="#000000"
     borderopacity="0.25"
     inkscape:showpageshadow="2"
     inkscape:pageopacity="0.0"
     inkscape:pagecheckerboard="false"
     inkscape:deskcolor="#d1d1d1"
     inkscape:document-units="px"
     showgrid="false"
     inkscape:zoom="1.2598564"
     inkscape:cx="662.77395"
     inkscape:cy="247.64727"
     inkscape:window-width="2560"
     inkscape:window-height="1371"
     inkscape:window-x="1920"
     inkscape:window-y="32"
     inkscape:window-maximized="1"
     inkscape:current-layer="svg5" />
  <defs
     id="defs2">
    <inkscape:path-effect
       effect="bool_op"
       operand-path="#rect6219"
       id="path-effect4319"
       is_visible="true"
       lpeversion="1"
       operation="diff"
       swap-operands="false"
       filltype-this="from-curve"
       filter=""
       filltype-operand="from-curve" />
    <inkscape:path-effect
       effect="bool_op"
       operand-path="#rect1181"
       id="path-effect446"
       is_visible="true"
       lpeversion="1"
       operation="inters"
       swap-operands="false"
       filltype-this="from-curve"
       filter=""
       filltype-operand="from-curve" />
    <inkscape:path-effect
       effect="bool_op"
       operand-path=""
       id="path-effect387"
       is_visible="true"
       lpeversion="1"
       operation="inters"
       swap-operands="false"
       filltype-this="from-curve"
       filter=""
       filltype-operand="from-curve" />
    <inkscape:path-effect
       effect="bool_op"
       operand-path="#rect6275"
       id="path-effect8748"
       is_visible="true"
       lpeversion="1.2"
       operation="inters"
       swap-operands="false"
       filltype-this="from-curve"
       filter=""
       filltype-operand="from-curve" />
    <inkscape:path-effect
       effect="mirror_symmetry"
       start_point="762.48181,-197.67965"
       end_point="762.48181,275.13351"
       center_point="762.48181,38.726929"
       id="path-effect8623"
       is_visible="true"
       lpeversion="1.2"
       lpesatellites=""
       mode="vertical"
       discard_orig_path="false"
       fuse_paths="true"
       oposite_fuse="true"
       split_items="false"
       split_open="false"
       link_styles="true" />
    <inkscape:path-effect
       effect="mirror_symmetry"
       start_point="180.14104,145.5641"
       end_point="471.31143,15.994686"
       center_point="471.31143,145.5641"
       id="path-effect8613"
       is_visible="true"
       lpeversion="1.2"
       lpesatellites=""
       mode="horizontal"
       discard_orig_path="false"
       fuse_paths="true"
       oposite_fuse="false"
       split_items="false"
       split_open="false"
       link_styles="true" />
    <filter
       id="selectable_hidder_filter"
       width="1.0015851"
       height="1.0015851"
       x="-0.00079254806"
       y="-0.00079254806"
       style="color-interpolation-filters:sRGB"
       inkscape:label="LPE boolean visibility">
      <feComposite
         id="boolops_hidder_primitive"
         result="composite1"
         operator="arithmetic"
         in2="SourceGraphic"
         in="BackgroundImage"
         k1="0"
         k2="0"
         k3="0"
         k4="0" />
    </filter>
    <inkscape:path-effect
       effect="bool_op"
       operand-path=""
       id="path-effect8510"
       is_visible="true"
       lpeversion="1"
       operation="inters"
       swap-operands="false"
       filltype-this="from-curve"
       filter=""
       filltype-operand="from-curve" />
    <linearGradient
       id="shapes">
      <stop
         style="stop-color:#5c00ff;stop-opacity:1;"
         offset="0.15418811"
         id="stop6428" />
      <stop
         style="stop-color:#ff0089;stop-opacity:1;"
         offset="1"
         id="stop6430" />
    </linearGradient>
    <linearGradient
       id="shapes-1">
      <stop
         style="stop-color:#8e00ff;stop-opacity:1;"
         offset="0.05745342"
         id="stop6423" />
      <stop
         style="stop-color:#ff3800;stop-opacity:1;"
         offset="1"
         id="stop6425" />
    </linearGradient>
    <inkscape:path-effect
       effect="tiling"
       id="path-effect5856"
       is_visible="true"
       lpeversion="1"
       unit="px"
       seed="1;1"
       lpesatellites=""
       num_rows="3"
       num_cols="3"
       gapx="0"
       gapy="0"
       offset="0"
       offset_type="false"
       scale="0"
       rotate="0"
       mirrorrowsx="false"
       mirrorrowsy="false"
       mirrorcolsx="false"
       mirrorcolsy="false"
       mirrortrans="false"
       shrink_interp="false"
       split_items="false"
       link_styles="false"
       interpolate_scalex="false"
       interpolate_scaley="true"
       interpolate_rotatex="false"
       interpolate_rotatey="true"
       random_scale="false"
       random_rotate="false"
       random_gap_y="false"
       random_gap_x="false"
       transformorigin="translate(519.00438,36.512097)" />
    <inkscape:path-effect
       effect="tiling"
       id="path-effect1559"
       is_visible="true"
       lpeversion="1"
       unit="px"
       seed="1;1"
       lpesatellites=""
       num_rows="4"
       num_cols="9"
       gapx="10"
       gapy="10"
       offset="0"
       offset_type="false"
       scale="-10"
       rotate="0"
       mirrorrowsx="false"
       mirrorrowsy="false"
       mirrorcolsx="false"
       mirrorcolsy="false"
       mirrortrans="false"
       shrink_interp="false"
       split_items="false"
       link_styles="false"
       interpolate_scalex="true"
       interpolate_scaley="true"
       interpolate_rotatex="true"
       interpolate_rotatey="true"
       random_scale="false"
       random_rotate="false"
       random_gap_y="false"
       random_gap_x="false"
       transformorigin="translate(800.78501,24.004726)" />
    <inkscape:path-effect
       effect="clone_original"
       linkeditem=""
       id="path-effect1557"
       is_visible="true"
       lpeversion="1"
       method="d"
       attributes=""
       css_properties=""
       allow_transforms="true" />
    <inkscape:path-effect
       effect="tiling"
       id="path-effect1551"
       is_visible="true"
       lpeversion="1"
       unit="px"
       seed="1;1"
       lpesatellites=""
       num_rows="9"
       num_cols="17"
       gapx="15"
       gapy="15"
       offset="0"
       offset_type="false"
       scale="0"
       rotate="0"
       mirrorrowsx="false"
       mirrorrowsy="false"
       mirrorcolsx="false"
       mirrorcolsy="false"
       mirrortrans="false"
       shrink_interp="false"
       split_items="false"
       link_styles="false"
       interpolate_scalex="false"
       interpolate_scaley="false"
       interpolate_rotatex="false"
       interpolate_rotatey="true"
       random_scale="false"
       random_rotate="false"
       random_gap_y="false"
       random_gap_x="false"
       transformorigin="translate(519.00436,36.512097)" />
    <inkscape:path-effect
       effect="offset"
       id="path-effect1549"
       is_visible="true"
       lpeversion="1.2"
       linejoin_type="bevel"
       unit="px"
       offset="13.7"
       miter_limit="4"
       attempt_force_join="false"
       update_on_knot_move="true" />
    <inkscape:path-effect
       effect="bounding_box"
       id="path-effect1547"
       is_visible="true"
       lpeversion="1"
       linkedpath=""
       visualbounds="false" />
    <inkscape:path-effect
       effect="fillet_chamfer"
       id="path-effect727"
       is_visible="true"
       lpeversion="1"
       nodesatellites_param="F,1,0,1,0,0.1,0,1 @ F,1,0,1,0,0.1,0,1 @ F,1,0,1,0,0.1,0,1 @ F,1,0,1,0,0.1,0,1 @ F,1,0,1,0,0.1,0,1 @ F,1,0,1,0,0.1,0,1"
       unit="px"
       method="auto"
       mode="F"
       radius="10"
       chamfer_steps="1"
       flexible="true"
       use_knot_distance="true"
       apply_no_radius="true"
       apply_with_radius="true"
       only_selected="false"
       hide_knots="false" />
    <rect
       x="202.05354"
       y="138.06992"
       width="437.94646"
       height="98.781725"
       id="rect6067" />
    <linearGradient
       id="linearGradient1297">
      <stop
         style="stop-color:#1d0064;stop-opacity:1;"
         offset="0"
         id="stop5434" />
      <stop
         style="stop-color:#130032;stop-opacity:1;"
         offset="1"
         id="stop5436" />
    </linearGradient>
    <inkscape:path-effect
       effect="tiling"
       id="path-effect1446"
       is_visible="true"
       lpeversion="1"
       unit="px"
       seed="1;1"
       lpesatellites=""
       num_rows="32"
       num_cols="62"
       gapx="50"
       gapy="50"
       offset="0"
       offset_type="false"
       scale="3"
       rotate="0"
       mirrorrowsx="false"
       mirrorrowsy="false"
       mirrorcolsx="false"
       mirrorcolsy="false"
       mirrortrans="false"
       shrink_interp="false"
       split_items="false"
       link_styles="true"
       interpolate_scalex="false"
       interpolate_scaley="true"
       interpolate_rotatex="false"
       interpolate_rotatey="true"
       random_scale="false"
       random_rotate="false"
       random_gap_y="false"
       random_gap_x="false"
       transformorigin="" />
    <inkscape:path-effect
       effect="construct_grid"
       id="path-effect1444"
       is_visible="true"
       lpeversion="1"
       nr_x="5"
       nr_y="5" />
    <linearGradient
       id="linearGradient1297-1">
      <stop
         style="stop-color:#000000;stop-opacity:0.48907104;"
         offset="0"
         id="stop1293" />
      <stop
         style="stop-color:#130032;stop-opacity:0;"
         offset="1"
         id="stop1295" />
    </linearGradient>
    <radialGradient
       inkscape:collect="always"
       xlink:href="#shapes"
       id="radialGradient8472"
       cx="180.14062"
       cy="4.0151939"
       fx="180.14062"
       fy="4.0151939"
       r="409.32367"
       gradientTransform="matrix(1.0454651,0,-6.6690101e-7,0.45679457,-8.190099,41.564318)"
       gradientUnits="userSpaceOnUse" />
  </defs>
  <g
     inkscape:label="background"
     inkscape:groupmode="layer"
     id="layer1"
     clip-path="none"
     sodipodi:insensitive="true"
     style="display:inline">
    <path
       style="display:inline;fill:#000000;fill-opacity:1;stroke:none;stroke-width:0.939;stroke-linecap:round;stroke-linejoin:round"
       id="rect5806"
       width="1668.0642"
       height="795.86646"
       x="-197.56346"
       y="-77.453857"
       inkscape:label="color"
       inkscape:path-effect="#path-effect446"
       class="UnoptimicedTransforms"
       d="M 0,0 V 640 H 1280 V 0 Z"
       sodipodi:type="rect" />
    <rect
       style="fill:#000000;fill-opacity:1;stroke:none;stroke-width:1.30982;stroke-linecap:round;stroke-linejoin:round;filter:url(#selectable_hidder_filter)"
       id="rect1181"
       width="1280"
       height="640"
       x="0"
       y="0"
       ry="0"
       inkscape:label="mask"
       class="UnoptimicedTransforms" />
  </g>
  <g
     inkscape:groupmode="layer"
     id="layer3"
     inkscape:label="Layer 3"
     sodipodi:insensitive="true"
     class="UnoptimicedTransforms"
     style="display:inline;fill:#f2f2f2">
    <rect
       style="display:none;fill:none;stroke:#00ff00;stroke-width:1.00005;stroke-linecap:round;stroke-linejoin:round;stroke-dasharray:none;filter:url(#selectable_hidder_filter)"
       id="rect6275"
       width="630.90808"
       height="630.90808"
       x="254.80965"
       y="-438.57199"
       transform="matrix(0.6752742,0.37909261,-0.6752742,0.37909261,171.77728,150.49035)"
       inkscape:label="mask"
       class="UnoptimicedTransforms" />
    <path
       sodipodi:type="star"
       style="display:inline;fill:url(#radialGradient8472);fill-opacity:1;stroke:none;stroke-width:1.00032;stroke-linecap:round;stroke-linejoin:round;stroke-dasharray:none"
       id="path725"
       inkscape:flatsided="true"
       sodipodi:sides="6"
       sodipodi:cx="200.36977"
       sodipodi:cy="38.726929"
       sodipodi:r1="23.358122"
       sodipodi:r2="20.228727"
       sodipodi:arg1="-0.52359878"
       sodipodi:arg2="0"
       inkscape:rounded="-1.3079815e-15"
       inkscape:randomized="0"
       d="m 200.36914,15.996094 c -0.69876,0 -1.39756,0.179665 -2.02344,0.541015 l -16.18359,9.34375 c -1.25176,0.7227 -2.02148,2.056544 -2.02149,3.501953 v 9.34375 9.34375 c 0,1.44541 0.76973,2.781207 2.02149,3.503907 l 16.18359,9.341797 c 1.25177,0.722699 2.79512,0.722699 4.04688,0 l 16.18359,-9.341797 c 1.25176,-0.7227 2.02149,-2.058497 2.02149,-3.503907 v -9.34375 -9.34375 c 0,-1.445409 -0.76973,-2.779253 -2.02149,-3.501953 l -16.18359,-9.34375 c -0.62588,-0.36135 -1.32468,-0.541015 -2.02344,-0.541015 z m 50.45703,2.271484 c -0.62849,0 -1.25702,0.163062 -1.82031,0.488281 l -14.5625,8.408203 c -1.12658,0.650439 -1.82031,1.85343 -1.82031,3.154297 v 8.408203 8.410157 c 0,1.300867 0.69373,2.501905 1.82031,3.152343 l 14.5625,8.408204 c 1.12658,0.650438 2.51404,0.650438 3.64062,0 l 14.56446,-8.408204 c 1.12658,-0.650438 1.82227,-1.851476 1.82226,-3.152343 v -8.410157 -8.408203 c 10e-6,-1.300867 -0.69568,-2.503858 -1.82226,-3.154297 l -14.56446,-8.408203 c -0.56329,-0.325219 -1.19181,-0.488281 -1.82031,-0.488281 z m 50.45899,2.273438 c -0.55872,0 -1.11649,0.144514 -1.61719,0.433593 l -12.94727,7.47461 c -1.00141,0.578158 -1.61914,1.646418 -1.61914,2.802734 v 7.474609 7.47461 c 0,1.156316 0.61773,2.224576 1.61914,2.802734 l 12.94727,7.47461 c 1.0014,0.578158 2.23492,0.578158 3.23633,0 l 12.94336,-7.47461 c 1.00141,-0.578158 1.61914,-1.646418 1.61914,-2.802734 v -7.47461 -7.474609 c 0,-1.156316 -0.61773,-2.224576 -1.61914,-2.802734 l -12.94336,-7.47461 c -0.50071,-0.289079 -1.06043,-0.433593 -1.61914,-0.433593 z m 50.45703,2.273437 c -0.48894,0 -0.9779,0.125958 -1.41602,0.378906 l -11.32812,6.541016 c -0.87624,0.505897 -1.41602,1.441341 -1.41602,2.453125 v 6.539062 6.541016 c 0,1.011784 0.53978,1.947228 1.41602,2.453125 l 11.32812,6.539063 c 0.87624,0.505896 1.95581,0.505896 2.83203,0 l 11.32813,-6.539063 c 0.87623,-0.505897 1.41601,-1.441341 1.41601,-2.453125 V 38.726562 32.1875 c 0,-1.011784 -0.53978,-1.947228 -1.41601,-2.453125 L 353.1582,23.193359 c -0.43811,-0.252948 -0.92708,-0.378906 -1.41601,-0.378906 z m 50.45703,2.273438 c -0.41916,0 -0.83736,0.107405 -1.21289,0.324218 l -9.71094,5.605469 c -0.75105,0.433616 -1.21289,1.236274 -1.21289,2.103516 v 5.605468 5.605469 c 0,0.867242 0.46184,1.6699 1.21289,2.103516 l 9.71094,5.605469 c 0.75105,0.433625 1.67668,0.433625 2.42773,0 l 9.70899,-5.605469 c 0.75105,-0.433616 1.21484,-1.236274 1.21484,-2.103516 v -5.605469 -5.605468 c 0,-0.867242 -0.46379,-1.6699 -1.21484,-2.103516 l -9.70899,-5.605469 c -0.37553,-0.216813 -0.79568,-0.324218 -1.21484,-0.324218 z m 50.45703,2.271484 c -0.3489,0 -0.69683,0.09081 -1.00977,0.271484 l -8.09179,4.671875 c -0.62588,0.361355 -1.01171,1.029254 -1.01172,1.751954 v 4.671874 4.671876 c 10e-6,0.722699 0.38584,1.390598 1.01172,1.751953 l 8.09179,4.671875 c 0.62588,0.361354 1.3956,0.361354 2.02149,0 l 8.0918,-4.671875 c 0.62587,-0.361355 1.01171,-1.029254 1.01171,-1.751953 v -4.671876 -4.671874 c 0,-0.7227 -0.38584,-1.390599 -1.01171,-1.751954 l -8.0918,-4.671875 c -0.31294,-0.180677 -0.66282,-0.271484 -1.01172,-0.271484 z m 49.64844,2.490234 -6.47266,3.738282 c -0.5007,0.289074 -0.80859,0.824185 -0.80859,1.402343 v 3.736328 3.738282 c 0,0.578158 0.30789,1.11327 0.80859,1.402344 l 6.47266,3.736328 c 0.50069,0.289084 1.11844,0.289084 1.61914,0 l 6.47265,-3.736328 c 0.50071,-0.289074 0.8086,-0.824186 0.8086,-1.402344 v -3.738282 -3.736328 c 0,-0.578158 -0.30789,-1.113269 -0.8086,-1.402343 l -6.47265,-3.738282 c -0.5007,-0.289084 -1.11845,-0.289084 -1.61914,0 z m 50.66015,2.220703 -4.85546,2.802735 c -0.37553,0.216803 -0.60743,0.617165 -0.60743,1.050781 v 2.802734 2.802735 c 0,0.433616 0.2319,0.833978 0.60743,1.050781 l 4.85546,2.802734 c 0.37553,0.216813 0.83737,0.216813 1.21289,0 l 4.85547,-2.802734 c 0.37557,-0.216803 0.60742,-0.617165 0.60742,-1.050781 v -2.802735 -2.802734 c 0,-0.433616 -0.23185,-0.833978 -0.60742,-1.050781 l -4.85547,-2.802735 c -0.37552,-0.216812 -0.83736,-0.216812 -1.21289,0 z m 50.66016,2.21875 -3.23828,1.869141 c -0.25038,0.144542 -0.4043,0.410135 -0.4043,0.699219 v 1.86914 1.869141 c 0,0.289084 0.15392,0.554677 0.4043,0.699219 l 3.23828,1.86914 c 0.25038,0.144542 0.55822,0.144542 0.80859,0 l 3.23633,-1.86914 c 0.25038,-0.144542 0.4043,-0.410135 0.4043,-0.699219 v -1.869141 -1.86914 c 0,-0.289084 -0.15392,-0.554677 -0.4043,-0.699219 l -3.23633,-1.869141 c -0.25037,-0.144541 -0.55821,-0.144541 -0.80859,0 z M 200.36976,73.732101 c -0.62865,0 -1.25699,0.162261 -1.82028,0.487475 l -14.56421,8.408897 c -1.12658,0.650438 -1.82222,1.852234 -1.82222,3.153102 v 16.817795 c 0,1.30087 0.69564,2.5046 1.82222,3.15503 l 14.56421,8.40891 c 1.12658,0.65043 2.51398,0.65043 3.64057,0 l 14.56421,-8.40891 c 1.12658,-0.65043 1.82221,-1.85416 1.82221,-3.15503 V 85.781575 c 0,-1.300868 -0.69563,-2.502664 -1.82221,-3.153102 l -14.56421,-8.408897 c -0.56329,-0.325214 -1.19164,-0.487475 -1.82029,-0.487475 z m 0,-70.010339 c -0.62865,0 -1.25699,-0.1622606 -1.82028,-0.487475 l -14.56421,-8.4088966 c -1.12658,-0.6504388 -1.82222,-1.8522347 -1.82222,-3.1531023 V -25.145505 c 0,-1.300868 0.69564,-2.504605 1.82222,-3.155034 l 14.56421,-8.408906 c 1.12658,-0.650429 2.51398,-0.650429 3.64057,0 l 14.56421,8.408906 c 1.12658,0.650429 1.82221,1.854166 1.82221,3.155034 v 16.8177931 c 0,1.3008676 -0.69563,2.5026635 -1.82221,3.1531023 L 202.19005,3.234287 c -0.56329,0.3252144 -1.19164,0.487475 -1.82029,0.487475 z m 50.45728,72.283274 c -0.5588,0 -1.11647,0.144225 -1.61717,0.433309 l -12.94704,7.474584 c -1.00141,0.578158 -1.6191,1.646643 -1.6191,2.802959 v 14.949172 c 0,1.15631 0.61769,2.22673 1.6191,2.8049 l 12.94704,7.47457 c 1.0014,0.57817 2.23487,0.57817 3.23628,0 l 12.9451,-7.47457 c 1.0014,-0.57817 1.61911,-1.64859 1.61911,-2.8049 V 86.715888 c 0,-1.156316 -0.61771,-2.224801 -1.61911,-2.802959 l -12.9451,-7.474584 c -0.50071,-0.289084 -1.06032,-0.433309 -1.61911,-0.433309 z m 0,-74.5562095 c -0.5588,0 -1.11647,-0.144225 -1.61717,-0.4333089 L 236.26283,-6.459066 c -1.00141,-0.5781579 -1.6191,-1.6466431 -1.6191,-2.8029589 V -24.211192 c 0,-1.156316 0.61769,-2.226732 1.6191,-2.8049 l 12.94704,-7.474574 c 1.0014,-0.578168 2.23487,-0.578168 3.23628,0 l 12.9451,7.474574 c 1.0014,0.578168 1.61911,1.648584 1.61911,2.8049 v 14.9491671 c 0,1.1563158 -0.61771,2.224801 -1.61911,2.8029589 l -12.9451,7.4745836 c -0.50071,0.2890839 -1.06032,0.4333089 -1.61911,0.4333089 z m 50.45727,76.8291455 c -0.48894,0 -0.97787,0.128141 -1.41599,0.381084 l -11.32793,6.540261 c -0.87623,0.505887 -1.41599,1.43911 -1.41599,2.450894 v 13.080519 c 0,1.01179 0.53976,1.94694 1.41599,2.45284 l 11.32793,6.54025 c 0.87623,0.5059 1.95576,0.5059 2.83198,0 l 11.32793,-6.54025 c 0.87624,-0.5059 1.416,-1.44105 1.416,-2.45284 V 87.650211 c 0,-1.011784 -0.53976,-1.945007 -1.416,-2.450894 L 302.7003,78.659056 c -0.43811,-0.252943 -0.92704,-0.381084 -1.41599,-0.381084 z m 0,-79.10208097 c -0.48894,0 -0.97787,-0.12814059 -1.41599,-0.38108403 l -11.32793,-6.5402606 c -0.87623,-0.505887 -1.41599,-1.4391105 -1.41599,-2.4508944 v -13.080521 c 0,-1.011784 0.53976,-1.946939 1.41599,-2.452836 l 11.32793,-6.54025 c 0.87623,-0.505897 1.95576,-0.505897 2.83198,0 l 11.32793,6.54025 c 0.87624,0.505897 1.416,1.441052 1.416,2.452836 v 13.080521 c 0,1.0117839 -0.53976,1.9450074 -1.416,2.4508944 L 302.7003,-1.205193 c -0.43811,0.25294344 -0.92704,0.38108403 -1.41599,0.38108403 z M 351.74159,80.552849 c -0.4191,0 -0.83735,0.108173 -1.21288,0.324976 l -9.71076,5.605938 c -0.75106,0.433626 -1.21288,1.233529 -1.21288,2.100771 v 11.211875 c 0,0.867241 0.46182,1.669091 1.21288,2.102701 l 9.71076,5.60594 c 0.75106,0.43362 1.67663,0.43362 2.42769,0 l 9.70882,-5.60594 c 0.75106,-0.43361 1.21482,-1.23546 1.21482,-2.102701 V 88.584534 c 0,-0.867242 -0.46376,-1.667145 -1.21482,-2.100771 l -9.70882,-5.605938 c -0.37553,-0.216803 -0.79571,-0.324976 -1.21481,-0.324976 z m 0,-83.6518347 c -0.4191,0 -0.83735,-0.1081737 -1.21288,-0.3249767 l -9.71076,-5.6059377 c -0.75106,-0.4336258 -1.21288,-1.2335289 -1.21288,-2.1007709 v -11.211875 c 0,-0.867242 0.46182,-1.669086 1.21288,-2.102702 l 9.71076,-5.605938 c 0.75106,-0.433626 1.67663,-0.433626 2.42769,0 l 9.70882,5.605938 c 0.75106,0.433616 1.21482,1.23546 1.21482,2.102702 v 11.211875 c 0,0.867242 -0.46376,1.6671451 -1.21482,2.1007709 l -9.70882,5.6059377 c -0.37553,0.216803 -0.79571,0.3249767 -1.21481,0.3249767 z m 50.45727,85.9247697 c -0.34925,0 -0.69682,0.09014 -1.00976,0.270821 l -8.09166,4.671605 c -0.62588,0.361354 -1.0117,1.027947 -1.0117,1.750647 v 9.343229 c 0,0.7227 0.38582,1.391224 1.0117,1.752574 l 8.09166,4.67161 c 0.62588,0.36135 1.39558,0.36135 2.02146,0 l 8.09166,-4.67161 c 0.62588,-0.36135 1.0117,-1.029874 1.0117,-1.752574 v -9.343229 c 0,-0.7227 -0.38582,-1.389293 -1.0117,-1.750647 l -8.09166,-4.671605 c -0.31294,-0.180683 -0.66245,-0.270821 -1.0117,-0.270821 z m 0,-88.1977052 c -0.34925,0 -0.69682,-0.090138 -1.00976,-0.2708205 l -8.09166,-4.6716053 c -0.62588,-0.361354 -1.0117,-1.027947 -1.0117,-1.750647 v -9.343229 c 0,-0.7227 0.38582,-1.391224 1.0117,-1.752579 l 8.09166,-4.671605 c 0.62588,-0.361354 1.39558,-0.361354 2.02146,0 l 8.09166,4.671605 c 0.62588,0.361355 1.0117,1.029879 1.0117,1.752579 v 9.343229 c 0,0.7227 -0.38582,1.389293 -1.0117,1.750647 l -8.09166,4.6716053 c -0.31294,0.1806824 -0.66245,0.2708205 -1.0117,0.2708205 z m 49.64869,90.6872952 -6.47255,3.737292 c -0.50071,0.289084 -0.80859,0.822356 -0.80859,1.400514 v 7.474583 c 0,0.578158 0.30788,1.113371 0.80859,1.402445 l 6.47255,3.737292 c 0.5007,0.28908 1.11841,0.28908 1.6191,0 l 6.47256,-3.737292 c 0.5007,-0.289074 0.80858,-0.824287 0.80858,-1.402445 V 90.45318 c 0,-0.578158 -0.30788,-1.11143 -0.80858,-1.400514 l -6.47256,-3.737292 c -0.50069,-0.289074 -1.1184,-0.289074 -1.6191,0 z m 0,-93.1768851 -6.47255,-3.7372919 c -0.50071,-0.289084 -0.80859,-0.822356 -0.80859,-1.400514 V -20.4739 c 0,-0.578158 0.30788,-1.113371 0.80859,-1.402445 l 6.47255,-3.737292 c 0.5007,-0.289084 1.11841,-0.289084 1.6191,0 l 6.47256,3.737292 c 0.5007,0.289074 0.80858,0.824287 0.80858,1.402445 v 7.474583 c 0,0.578158 -0.30788,1.11143 -0.80858,1.400514 l -6.47256,3.7372919 c -0.50069,0.289074 -1.1184,0.289074 -1.6191,0 z m 50.66039,95.3956641 -4.85538,2.802969 c -0.37553,0.216803 -0.60741,0.616765 -0.60741,1.050381 v 5.605937 c 0,0.433616 0.23188,0.835509 0.60741,1.052322 l 4.85538,2.802968 c 0.37553,0.2168 0.83735,0.2168 1.21288,0 l 4.85538,-2.802968 c 0.37553,-0.216813 0.6074,-0.618706 0.6074,-1.052322 v -5.605937 c 0,-0.433616 -0.23187,-0.833578 -0.6074,-1.050381 l -4.85538,-2.802969 c -0.37553,-0.216813 -0.83735,-0.216813 -1.21288,0 z m 0,-97.614443 -4.85538,-2.802969 c -0.37553,-0.216803 -0.60741,-0.616765 -0.60741,-1.050381 v -5.605937 c 0,-0.433616 0.23188,-0.835509 0.60741,-1.052322 l 4.85538,-2.802969 c 0.37553,-0.216803 0.83735,-0.216803 1.21288,0 l 4.85538,2.802969 c 0.37553,0.216813 0.6074,0.618706 0.6074,1.052322 v 5.605937 c 0,0.433616 -0.23187,0.833578 -0.6074,1.050381 l -4.85538,2.802969 c -0.37553,0.2168125 -0.83735,0.2168125 -1.21288,0 z m -302.13818,141.5508 c -0.55879,1e-5 -1.1184,0.14423 -1.61911,0.43331 l -12.9451,7.47458 c -1.0014,0.57816 -1.6191,1.64664 -1.6191,2.80297 v 14.94916 c 0,1.15632 0.6177,2.2248 1.6191,2.80297 l 12.9451,7.47457 c 1.00142,0.57817 2.23681,0.57817 3.23822,0 l 12.9451,-7.47457 c 1.00141,-0.57817 1.6191,-1.64665 1.6191,-2.80297 v -14.94916 c 0,-1.15633 -0.61769,-2.22481 -1.6191,-2.80297 l -12.9451,-7.47458 c -0.5007,-0.28908 -1.06031,-0.43331 -1.61911,-0.43331 z m 0,-185.487155 c -0.55879,-1e-5 -1.1184,-0.144235 -1.61911,-0.433309 l -12.9451,-7.474583 c -1.0014,-0.578158 -1.6191,-1.646643 -1.6191,-2.802969 v -14.949157 c 0,-1.156326 0.6177,-2.224801 1.6191,-2.802969 l 12.9451,-7.474574 c 1.00142,-0.578168 2.23681,-0.578168 3.23822,0 l 12.9451,7.474574 c 1.00141,0.578168 1.6191,1.646643 1.6191,2.802969 v 14.949157 c 0,1.156326 -0.61769,2.224811 -1.6191,2.802969 l -12.9451,7.474583 c -0.5007,0.289074 -1.06031,0.433309 -1.61911,0.433309 z m 50.45728,187.760095 c -0.48895,0 -0.97788,0.1262 -1.416,0.37915 l -11.32793,6.54026 c -0.87623,0.50588 -1.41599,1.44105 -1.41599,2.45283 v 13.08051 c 0,1.01179 0.53976,1.94695 1.41599,2.45284 l 11.32793,6.54026 c 0.87624,0.50589 1.95575,0.50589 2.83199,0 l 11.32793,-6.54026 c 0.87624,-0.50589 1.416,-1.44105 1.416,-2.45284 v -13.08051 c 0,-1.01178 -0.53976,-1.94695 -1.416,-2.45283 l -11.32793,-6.54026 c -0.43811,-0.25295 -0.92704,-0.37915 -1.41599,-0.37915 z m 0,-190.03304 c -0.48895,0 -0.97788,-0.1262 -1.416,-0.379143 l -11.32793,-6.540261 c -0.87623,-0.505887 -1.41599,-1.441051 -1.41599,-2.452835 V -78.74234 c 0,-1.011784 0.53976,-1.946949 1.41599,-2.452836 l 11.32793,-6.540261 c 0.87624,-0.505886 1.95575,-0.505886 2.83199,0 l 11.32793,6.540261 c 0.87624,0.505887 1.416,1.441052 1.416,2.452836 v 13.080511 c 0,1.011784 -0.53976,1.946948 -1.416,2.452835 l -11.32793,6.540261 c -0.43811,0.252943 -0.92704,0.379143 -1.41599,0.379143 z m 50.45727,192.30598 c -0.4191,0 -0.83734,0.10817 -1.21287,0.32498 l -9.71077,5.60593 c -0.75105,0.43363 -1.21287,1.23547 -1.21287,2.10272 v 11.21186 c 0,0.86724 0.46182,1.66909 1.21287,2.10271 l 9.71077,5.60593 c 0.75104,0.43363 1.67663,0.43363 2.42769,0 l 9.70882,-5.60593 c 0.75106,-0.43362 1.21481,-1.23547 1.21481,-2.10271 v -11.21186 c 0,-0.86725 -0.46375,-1.66909 -1.21481,-2.10272 l -9.70882,-5.60593 c -0.37553,-0.21681 -0.79572,-0.32498 -1.21482,-0.32498 z m 0,-194.578916 c -0.4191,0 -0.83734,-0.108173 -1.21287,-0.324976 l -9.71077,-5.605938 c -0.75105,-0.433626 -1.21287,-1.23547 -1.21287,-2.102712 v -11.211866 c 0,-0.867241 0.46182,-1.669086 1.21287,-2.102711 l 9.71077,-5.605928 c 0.75104,-0.433626 1.67663,-0.433626 2.42769,0 l 9.70882,5.605928 c 0.75106,0.433625 1.21481,1.23547 1.21481,2.102711 v 11.211866 c 0,0.867242 -0.46375,1.669086 -1.21481,2.102712 l -9.70882,5.605938 c -0.37553,0.216803 -0.79572,0.324976 -1.21482,0.324976 z m 50.45728,196.851846 c -0.34925,0 -0.69876,0.0901 -1.0117,0.27082 l -8.08973,4.67161 c -0.62587,0.36135 -1.01169,1.02988 -1.01169,1.75259 v 9.34322 c 0,0.7227 0.38582,1.39122 1.01169,1.75258 l 8.08973,4.67161 c 0.62588,0.36135 1.39752,0.36135 2.02339,0 l 8.09166,-4.67161 c 0.62589,-0.36136 1.0117,-1.02988 1.0117,-1.75258 v -9.34322 c 0,-0.72271 -0.38581,-1.39124 -1.0117,-1.75259 l -8.09166,-4.67161 c -0.31293,-0.18068 -0.66245,-0.27082 -1.01169,-0.27082 z m 0,-199.124781 c -0.34925,0 -0.69876,-0.09014 -1.0117,-0.270821 l -8.08973,-4.671605 c -0.62587,-0.361354 -1.01169,-1.029878 -1.01169,-1.752588 v -9.34322 c 0,-0.722699 0.38582,-1.391223 1.01169,-1.752578 l 8.08973,-4.671615 c 0.62588,-0.361345 1.39752,-0.361345 2.02339,0 l 8.09166,4.671615 c 0.62589,0.361355 1.0117,1.029879 1.0117,1.752578 v 9.34322 c 0,0.72271 -0.38581,1.391234 -1.0117,1.752588 l -8.09166,4.671605 c -0.31293,0.180683 -0.66245,0.270821 -1.01169,0.270821 z m 49.64868,201.614371 -6.47254,3.7373 c -0.50071,0.28908 -0.81052,0.82428 -0.81052,1.40245 v 7.47457 c 0,0.57817 0.30981,1.11144 0.81052,1.40052 l 6.47254,3.73729 c 0.50071,0.28908 1.11841,0.28908 1.61911,0 l 6.47256,-3.73729 c 0.50069,-0.28908 0.80858,-0.82235 0.80858,-1.40052 v -7.47457 c 0,-0.57817 -0.30789,-1.11337 -0.80858,-1.40245 l -6.47256,-3.7373 c -0.5007,-0.28907 -1.1184,-0.28907 -1.61911,0 z m 0,-204.103961 -6.47254,-3.737292 c -0.50071,-0.289084 -0.81052,-0.824287 -0.81052,-1.402455 v -7.474574 c 0,-0.578167 0.30981,-1.111439 0.81052,-1.400513 l 6.47254,-3.737292 c 0.50071,-0.289084 1.11841,-0.289084 1.61911,0 l 6.47256,3.737292 c 0.50069,0.289074 0.80858,0.822346 0.80858,1.400513 v 7.474574 c 0,0.578168 -0.30789,1.113371 -0.80858,1.402455 l -6.47256,3.737292 c -0.5007,0.289074 -1.1184,0.289074 -1.61911,0 z M 200.36976,189.20699 c -0.48895,0 -0.97787,0.12813 -1.41599,0.38108 l -11.32793,6.54026 c -0.87623,0.50588 -1.416,1.43912 -1.416,2.4509 v 13.08051 c 10e-6,1.01179 0.53977,1.94695 1.416,2.45284 l 11.32793,6.54026 c 0.87623,0.50589 1.95575,0.50589 2.83199,0 l 11.32793,-6.54026 c 0.87623,-0.50589 1.41599,-1.44105 1.41599,-2.45284 v -13.08051 c -1e-5,-1.01178 -0.53976,-1.94502 -1.41599,-2.4509 l -11.32793,-6.54026 c -0.43812,-0.25295 -0.92705,-0.38108 -1.416,-0.38108 z m 0,-300.96012 c -0.48895,0 -0.97787,-0.12813 -1.41599,-0.38107 l -11.32793,-6.54026 c -0.87623,-0.50589 -1.416,-1.43913 -1.416,-2.45091 v -13.08051 c 10e-6,-1.01178 0.53977,-1.94695 1.416,-2.45284 l 11.32793,-6.54026 c 0.87623,-0.50588 1.95575,-0.50588 2.83199,0 l 11.32793,6.54026 c 0.87623,0.50589 1.41599,1.44106 1.41599,2.45284 v 13.08051 c -1e-5,1.01178 -0.53976,1.94502 -1.41599,2.45091 l -11.32793,6.54026 c -0.43812,0.25294 -0.92705,0.38107 -1.416,0.38107 z m 50.45728,303.23499 c -0.4191,0 -0.83736,0.10817 -1.21288,0.32499 l -9.71076,5.60592 c -0.75105,0.43363 -1.21288,1.23354 -1.21288,2.10079 v 11.21186 c 0,0.86724 0.46183,1.66909 1.21288,2.10271 l 9.71076,5.60593 c 0.75105,0.43363 1.67664,0.43363 2.4277,0 l 9.70882,-5.60593 c 0.75105,-0.43362 1.21288,-1.23547 1.21288,-2.10271 v -11.21186 c 0,-0.86725 -0.46183,-1.66716 -1.21288,-2.10079 l -9.70882,-5.60592 c -0.37553,-0.21682 -0.79573,-0.32499 -1.21482,-0.32499 z m 0,-305.50986 c -0.4191,0 -0.83736,-0.10817 -1.21288,-0.32498 l -9.71076,-5.60593 c -0.75105,-0.43363 -1.21288,-1.23354 -1.21288,-2.10078 v -11.21187 c 0,-0.86724 0.46183,-1.66908 1.21288,-2.10271 l 9.71076,-5.60593 c 0.75105,-0.43362 1.67664,-0.43362 2.4277,0 l 9.70882,5.60593 c 0.75105,0.43363 1.21288,1.23547 1.21288,2.10271 v 11.21187 c 0,0.86724 -0.46183,1.66715 -1.21288,2.10078 l -9.70882,5.60593 c -0.37553,0.21681 -0.79573,0.32498 -1.21482,0.32498 z m 50.45727,307.7828 c -0.34924,0 -0.69875,0.0901 -1.0117,0.27082 l -8.09165,4.67161 c -0.62588,0.36135 -1.00977,1.02794 -1.00977,1.75065 v 9.34322 c 0,0.7227 0.38389,1.39122 1.00977,1.75258 l 8.09165,4.67161 c 0.62588,0.36135 1.39753,0.36135 2.0234,0 l 8.09166,-4.67161 c 0.62587,-0.36136 1.0117,-1.02988 1.0117,-1.75258 v -9.34322 c 0,-0.72271 -0.38583,-1.3893 -1.0117,-1.75065 l -8.09166,-4.67161 c -0.31294,-0.18068 -0.66245,-0.27082 -1.0117,-0.27082 z m 0,-310.05573 c -0.34924,0 -0.69875,-0.0902 -1.0117,-0.27082 l -8.09165,-4.67162 c -0.62588,-0.36134 -1.00977,-1.02794 -1.00977,-1.75064 v -9.34322 c 0,-0.7227 0.38389,-1.39123 1.00977,-1.75258 l 8.09165,-4.67162 c 0.62588,-0.36134 1.39753,-0.36134 2.0234,0 l 8.09166,4.67162 c 0.62587,0.36135 1.0117,1.02988 1.0117,1.75258 v 9.34322 c 0,0.7227 -0.38583,1.3893 -1.0117,1.75064 l -8.09166,4.67162 c -0.31294,0.18067 -0.66245,0.27082 -1.0117,0.27082 z"
       transform="matrix(1.0096723,0,0,1.0096723,437.6922,280.89849)"
       inkscape:label="shapes"
       inkscape:path-effect="#path-effect727;#path-effect1559;#path-effect8748;#path-effect8613"
       class="UnoptimicedTransforms" />
  </g>
  <g
     inkscape:groupmode="layer"
     id="layer5"
     inkscape:label="logo"
     style="display:inline;fill:#f2f2f2"
     transform="translate(-150.01719)">
    <rect
       style="display:inline;fill:#000000;stroke:none;stroke-width:0.458575;stroke-linecap:round;stroke-linejoin:round"
       id="rect6219"
       width="455.60507"
       height="166.55243"
       x="412.19757"
       y="236.72379"
       inkscape:label="background"
       class="UnoptimicedTransforms" />
    <text
       xml:space="preserve"
       id="text6065"
       style="font-style:normal;font-variant:normal;font-weight:normal;font-stretch:normal;font-size:85.3333px;font-family:Orbitron;-inkscape-font-specification:'Orbitron, Normal ';font-variant-ligatures:normal;font-variant-caps:normal;font-variant-numeric:normal;font-variant-east-asian:normal;white-space:pre;shape-inside:url(#rect6067);display:inline;fill:#e6e6e6;fill-opacity:1;stroke:none;stroke-width:0.939;stroke-linecap:round;stroke-linejoin:round"
       transform="translate(220.85948,135.31893)"
       inkscape:label="name"><tspan
         x="202.05273"
         y="217.53439"
         id="tspan4610">channels</tspan></text>
  </g>
</svg>
