<svg version="1.1" viewBox="0 0 1280 640" xmlns="http://www.w3.org/2000/svg" xmlns:xlink="http://www.w3.org/1999/xlink"><defs><radialGradient id="a" cx="180.14" cy="4.0152" r="409.32" gradientTransform="matrix(1.0455 0 -6.669e-7 .45679 -8.1901 41.564)" gradientUnits="userSpaceOnUse"><stop stop-color="#5c00ff" offset=".15419"/><stop stop-color="#ff0089" offset="1"/></radialGradient><radialGradient id="b" cx="640" cy="320" r="640" gradientUnits="userSpaceOnUse"><stop stop-color="#1a1a1a" offset="0"/><stop stop-color="#0d0d0d" offset="1"/></radialGradient><clipPath id="c"><path d="m266.76-31.997-1.1126 143.35-95.126-1.0943 4.4504 140.61 217.51 10.943 1.1126-53.072h82.331l-0.55625-48.695 85.113 1.0943 1.6688-49.789 86.781-3.2828 2.7814-48.148 43.391-0.54713 0.55627-42.129-46.172-3.2828-1.1126-43.771-85.669-1.0943-1.6689-49.242-81.218-1.6414-1.6689-42.677-85.669-2.7357 0.5563-45.412-214.73-3.8299-6.1192 143.9z" fill-opacity=".091483" stroke="#0f0" stroke-width=".99867"/></clipPath></defs><g display="none"><rect y="-320" width="1280" height="1280" display="inline" fill="url(#b)" stroke-width="1.2781"/></g><g transform="matrix(.98354 0 0 1 3.4233 0)" fill="#f2f2f2"><path class="UnoptimicedTransforms" transform="matrix(1.0097 0 0 1.0097 437.69 280.9)" d="m200.37 15.994c-0.6985 0-1.3956 0.18162-2.0215 0.54297l-16.184 9.3438c-1.2518 0.7227-2.0234 2.0565-2.0234 3.502v18.688c1e-5 1.4454 0.77169 2.7812 2.0234 3.5039l16.184 9.3438c1.2518 0.7227 2.7932 0.7227 4.0449 0l16.184-9.3438c1.2518-0.7227 2.0215-2.0585 2.0215-3.5039v-18.688c0-1.4454-0.76973-2.7793-2.0215-3.502l-16.184-9.3438c-0.62588-0.36135-1.3249-0.54297-2.0234-0.54297zm42.959 1.3652c-0.65658 0-1.314 0.16814-1.9023 0.50781l-15.213 8.7832c-1.1766 0.67934-1.9004 1.9343-1.9004 3.293v17.566c0 1.3587 0.72374 2.6136 1.9004 3.293l15.213 8.7832c1.1766 0.67934 2.6261 0.67934 3.8027 0l15.213-8.7832c1.1766-0.67934 1.9004-1.9343 1.9004-3.293v-17.566c0-1.3587-0.72374-2.6136-1.9004-3.293l-15.213-8.7832c-0.58833-0.33967-1.2438-0.50781-1.9004-0.50781zm42.957 1.3633c-0.61468 0-1.2305 0.15857-1.7812 0.47656l-14.24 8.2227c-1.1015 0.63598-1.7812 1.8101-1.7812 3.082v16.445c0 1.272 0.67971 2.448 1.7812 3.084l14.24 8.2207c1.1015 0.63598 2.459 0.63598 3.5605 0l14.242-8.2207c1.1016-0.63598 1.7793-1.812 1.7793-3.084v-16.445c0-1.272-0.67775-2.4461-1.7793-3.082l-14.242-8.2227c-0.55077-0.31799-1.1646-0.47656-1.7793-0.47656zm42.957 1.3633c-0.57277 0-1.145 0.149-1.6582 0.44531l-13.271 7.6621c-1.0264 0.59262-1.6582 1.6878-1.6582 2.873v15.322c0 1.1852 0.63176 2.2804 1.6582 2.873l13.271 7.6621c1.0264 0.59262 2.29 0.59262 3.3164 0l13.271-7.6621c1.0264-0.59262 1.6582-1.6878 1.6582-2.873v-15.322c0-1.1852-0.63176-2.2804-1.6582-2.873l-13.271-7.6621c-0.51322-0.29631-1.0854-0.44531-1.6582-0.44531zm42.957 1.3652c-0.53086 0-1.0614 0.13748-1.5371 0.41211l-12.299 7.0996c-0.95133 0.54925-1.5371 1.5656-1.5371 2.6641v14.201c0 1.0985 0.58578 2.1129 1.5371 2.6621l12.299 7.1016c0.95133 0.54925 2.1229 0.54925 3.0742 0l12.299-7.1016c0.95133-0.54925 1.5391-1.5636 1.5391-2.6621v-14.201c0-1.0985-0.58773-2.1148-1.5391-2.6641l-12.299-7.0996c-0.47567-0.27463-1.0062-0.41211-1.5371-0.41211zm42.957 1.3633c-0.48895 0-0.9779 0.12596-1.416 0.37891l-11.328 6.541c-0.87623 0.50589-1.416 1.4413-1.416 2.4531v13.08c0 1.0118 0.53979 1.9472 1.416 2.4531l11.328 6.5391c0.87623 0.50589 1.9558 0.50589 2.832 0l11.328-6.5391c0.87623-0.50589 1.416-1.4413 1.416-2.4531v-13.08c0-1.0118-0.53979-1.9472-1.416-2.4531l-11.328-6.541c-0.43812-0.25294-0.92707-0.37891-1.416-0.37891zm42.959 1.3633c-0.44703 0-0.89436 0.11639-1.2949 0.34766l-10.357 5.9785c-0.80112 0.46253-1.2949 1.3191-1.2949 2.2441v11.959c0 0.92506 0.4938 1.7797 1.2949 2.2422l10.357 5.9785c0.80113 0.46253 1.7868 0.46253 2.5879 0l10.357-5.9785c0.80113-0.46253 1.2949-1.3171 1.2949-2.2422v-11.959c0-0.92506-0.4938-1.7816-1.2949-2.2441l-10.357-5.9785c-0.40056-0.23126-0.84593-0.34766-1.293-0.34766zm42.957 1.3652c-0.40513 0-0.81082 0.10487-1.1738 0.31445l-9.3867 5.418c-0.72602 0.41917-1.1719 1.1949-1.1719 2.0332v10.838c0 0.83834 0.44586 1.6121 1.1719 2.0312l9.3867 5.4199c0.72602 0.41917 1.6216 0.41917 2.3476 0l9.3848-5.4199c0.72602-0.41917 1.1738-1.1929 1.1738-2.0312v-10.838c0-0.83834-0.44781-1.614-1.1738-2.0332l-9.3848-5.418c-0.36301-0.20958-0.7687-0.31445-1.1738-0.31445zm42.957 1.3633c-0.36322 0-0.72728 0.09335-1.0527 0.28125l-8.4141 4.8594c-0.65091 0.3758-1.0527 1.0707-1.0527 1.8223v9.7168c0 0.75161 0.40182 1.4465 1.0527 1.8223l8.4141 4.8574c0.65092 0.3758 1.4546 0.3758 2.1055 0l8.4141-4.8574c0.65092-0.3758 1.0527-1.0707 1.0527-1.8223v-9.7168c0-0.75161-0.40182-1.4465-1.0527-1.8223l-8.4141-4.8594c-0.32546-0.1879-0.68952-0.28125-1.0527-0.28125zm42.957 1.3633c-0.32131 0-0.64179 0.08378-0.92969 0.25l-7.4453 4.2969c-0.57581 0.33244-0.92969 0.9484-0.92969 1.6133v8.5957c0 0.66489 0.35388 1.2789 0.92969 1.6113l7.4453 4.2969c0.57581 0.33244 1.2855 0.33244 1.8613 0l7.4434-4.2969c0.57581-0.33244 0.93164-0.94644 0.93164-1.6113v-8.5957c0-0.66488-0.35583-1.2808-0.93164-1.6133l-7.4434-4.2969c-0.28791-0.16622-0.61033-0.25-0.93164-0.25zm42.957 1.3652c-0.2794 0-0.55824 0.07226-0.80859 0.2168l-6.4727 3.7363c-0.5007 0.28908-0.80859 0.82418-0.80859 1.4023v7.4746c0 0.57816 0.30789 1.1113 0.80859 1.4004l6.4727 3.7383c0.5007 0.28908 1.1184 0.28908 1.6191 0l6.4726-3.7383c0.50071-0.28908 0.8086-0.82223 0.8086-1.4004v-7.4746c0-0.57816-0.30789-1.1133-0.8086-1.4023l-6.4726-3.7363c-0.25036-0.14454-0.53115-0.2168-0.81055-0.2168zm42.959 1.3633c-0.23748 0-0.4747 0.06073-0.6875 0.18359l-5.5039 3.1777c-0.4256 0.24572-0.6875 0.69997-0.6875 1.1914v6.3535c0 0.49144 0.2619 0.94569 0.6875 1.1914l5.5039 3.1758c0.4256 0.24572 0.94941 0.24572 1.375 0l5.502-3.1758c0.42559-0.24572 0.6875-0.69997 0.6875-1.1914v-6.3535c0-0.49144-0.26191-0.94569-0.6875-1.1914l-5.502-3.1777c-0.21279-0.12286-0.45001-0.18359-0.6875-0.18359zm-453.52 46.911v17.565c0 1.3587-0.72485 2.6142-1.9015 3.2935l-15.212 8.7827c-1.1767 0.67934-2.6264 0.67934-3.803 0l-15.212-8.7827c-1.1766-0.67934-1.9015-1.9348-1.9015-3.2935v-17.565c0-1.3587 0.72485-2.6142 1.9015-3.2935l15.212-8.7827c1.1766-0.67934 2.6263-0.67934 3.803 0l15.212 8.7827c1.1766 0.67934 1.9015 1.9348 1.9015 3.2935zm0-78.364v-17.565c0-1.3587-0.72485-2.6142-1.9015-3.2935l-15.212-8.7827c-1.1767-0.67934-2.6264-0.67934-3.803 0l-15.212 8.7827c-1.1766 0.67934-1.9015 1.9348-1.9015 3.2935v17.565c0 1.3587 0.72485 2.6142 1.9015 3.2935l15.212 8.7827c1.1766 0.67934 2.6263 0.67934 3.803 0l15.212-8.7827c1.1766-0.67934 1.9015-1.9348 1.9015-3.2935zm41.744 78.924v16.444c0 1.272-0.67858 2.4473-1.7801 3.0833l-14.241 8.2221c-1.1016 0.63598-2.4587 0.63598-3.5603 0l-14.241-8.2221c-1.1016-0.63598-1.7801-1.8113-1.7801-3.0833v-16.444c0-1.272 0.67858-2.4473 1.7801-3.0833l14.241-8.2221c1.1016-0.63598 2.4587-0.63598 3.5603 0l14.241 8.2221c1.1016 0.63598 1.7801 1.8113 1.7801 3.0833zm0-79.485v-16.444c0-1.272-0.67858-2.4473-1.7801-3.0833l-14.241-8.2221c-1.1016-0.63598-2.4587-0.63598-3.5603 0l-14.241 8.2221c-1.1016 0.63598-1.7801 1.8113-1.7801 3.0833v16.444c0 1.272 0.67858 2.4473 1.7801 3.0833l14.241 8.2221c1.1016 0.63598 2.4587 0.63598 3.5603 0l14.241-8.2221c1.1016-0.63598 1.7801-1.8113 1.7801-3.0833zm41.744 80.045v15.323c0 1.1852-0.63231 2.2804-1.6588 2.873l-13.27 7.6615c-1.0264 0.59262-2.2911 0.59262-3.3175 0l-13.27-7.6615c-1.0264-0.59262-1.6588-1.6878-1.6588-2.873v-15.323c0-1.1852 0.63231-2.2804 1.6588-2.873l13.27-7.6615c1.0264-0.59262 2.2911-0.59262 3.3175 0l13.27 7.6615c1.0264 0.59262 1.6588 1.6878 1.6588 2.873zm0-80.606v-15.323c0-1.1852-0.63231-2.2804-1.6588-2.873l-13.27-7.6615c-1.0264-0.59262-2.2911-0.59262-3.3175 0l-13.27 7.6615c-1.0264 0.59262-1.6588 1.6878-1.6588 2.873v15.323c0 1.1852 0.63231 2.2804 1.6588 2.873l13.27 7.6615c1.0264 0.59262 2.2911 0.59262 3.3175 0l13.27-7.6615c1.0264-0.59262 1.6588-1.6878 1.6588-2.873zm41.744 81.167v14.202c0 1.0985-0.58605 2.1136-1.5374 2.6628l-12.299 7.1009c-0.95133 0.54925-2.1234 0.54925-3.0748 0l-12.299-7.1009c-0.95134-0.54925-1.5374-1.5643-1.5374-2.6628v-14.202c0-1.0985 0.58604-2.1136 1.5374-2.6628l12.299-7.1009c0.95134-0.54925 2.1234-0.54925 3.0748 0l12.299 7.1009c0.95133 0.54926 1.5374 1.5643 1.5374 2.6628zm0-81.727v-14.202c0-1.0985-0.58605-2.1136-1.5374-2.6628l-12.299-7.1009c-0.95133-0.54926-2.1234-0.54926-3.0748 0l-12.299 7.1009c-0.95134 0.54925-1.5374 1.5643-1.5374 2.6628v14.202c0 1.0985 0.58604 2.1136 1.5374 2.6628l12.299 7.1009c0.95134 0.54925 2.1234 0.54925 3.0748 0l12.299-7.1009c0.95133-0.54925 1.5374-1.5643 1.5374-2.6628zm41.744 82.288v13.081c0 1.0118-0.53978 1.9467-1.416 2.4526l-11.328 6.5403c-0.87623 0.50589-1.9558 0.50589-2.832 0l-11.328-6.5403c-0.87623-0.50589-1.416-1.4408-1.416-2.4526v-13.081c0-1.0118 0.53978-1.9467 1.416-2.4526l11.328-6.5403c0.87623-0.50589 1.9558-0.50589 2.832 0l11.328 6.5403c0.87623 0.50589 1.416 1.4408 1.416 2.4526zm0-82.848v-13.081c0-1.0118-0.53978-1.9467-1.416-2.4526l-11.328-6.5403c-0.87623-0.50589-1.9558-0.50589-2.832 0l-11.328 6.5403c-0.87623 0.50589-1.416 1.4408-1.416 2.4526v13.081c0 1.0118 0.53978 1.9467 1.416 2.4526l11.328 6.5403c0.87623 0.50589 1.9558 0.50589 2.832 0l11.328-6.5403c0.87623-0.50589 1.416-1.4408 1.416-2.4526zm41.744 83.409v11.959c0 0.92506-0.49351 1.7798-1.2946 2.2424l-10.357 5.9797c-0.80112 0.46253-1.7882 0.46253-2.5893 0l-10.357-5.9797c-0.80113-0.46253-1.2946-1.3173-1.2946-2.2424v-11.959c0-0.92506 0.49351-1.7798 1.2946-2.2424l10.357-5.9797c0.80112-0.46253 1.7882-0.46253 2.5893 0l10.357 5.9797c0.80113 0.46253 1.2946 1.3173 1.2946 2.2424zm0-83.97v-11.959c0-0.92506-0.49351-1.7798-1.2946-2.2424l-10.357-5.9797c-0.80112-0.46253-1.7882-0.46253-2.5893 0l-10.357 5.9797c-0.80113 0.46253-1.2946 1.3173-1.2946 2.2424v11.959c0 0.92506 0.49351 1.7798 1.2946 2.2424l10.357 5.9797c0.80112 0.46253 1.7882 0.46253 2.5893 0l10.357-5.9797c0.80113-0.46253 1.2946-1.3173 1.2946-2.2424zm41.744 84.53v10.838c0 0.83834-0.44725 1.613-1.1733 2.0322l-9.3861 5.4191c-0.72602 0.41917-1.6205 0.41917-2.3465 0l-9.3861-5.4191c-0.72602-0.41917-1.1733-1.1938-1.1733-2.0322v-10.838c0-0.83834 0.44724-1.613 1.1733-2.0322l9.3861-5.4191c0.72602-0.41917 1.6205-0.41917 2.3465 0l9.3861 5.4191c0.72601 0.41917 1.1733 1.1938 1.1733 2.0322zm0-85.091v-10.838c0-0.83834-0.44725-1.613-1.1733-2.0322l-9.3861-5.4191c-0.72602-0.41917-1.6205-0.41917-2.3465 0l-9.3861 5.4191c-0.72602 0.41917-1.1733 1.1938-1.1733 2.0322v10.838c0 0.83834 0.44724 1.613 1.1733 2.0322l9.3861 5.4191c0.72602 0.41917 1.6205 0.41917 2.3465 0l9.3861-5.4191c0.72601-0.41917 1.1733-1.1938 1.1733-2.0322zm41.744 85.651v9.717c0 0.75161-0.40098 1.4461-1.0519 1.8219l-8.4152 4.8585c-0.65092 0.3758-1.4529 0.3758-2.1038 0l-8.4152-4.8585c-0.65091-0.3758-1.0519-1.0703-1.0519-1.8219v-9.717c0-0.75161 0.40098-1.4461 1.0519-1.8219l8.4152-4.8585c0.65091-0.3758 1.4529-0.3758 2.1038 0l8.4152 4.8585c0.65091 0.3758 1.0519 1.0703 1.0519 1.8219zm0-86.212v-9.717c0-0.75161-0.40098-1.4461-1.0519-1.8219l-8.4152-4.8585c-0.65092-0.3758-1.4529-0.3758-2.1038 0l-8.4152 4.8585c-0.65091 0.3758-1.0519 1.0703-1.0519 1.8219v9.717c0 0.75161 0.40098 1.4461 1.0519 1.8219l8.4152 4.8585c0.65091 0.37581 1.4529 0.37581 2.1038 0l8.4152-4.8585c0.65091-0.37581 1.0519-1.0703 1.0519-1.8219zm41.744 86.773v8.5958c0 0.66489-0.35471 1.2793-0.93052 1.6117l-7.4442 4.2979c-0.57581 0.33244-1.2852 0.33244-1.861 0l-7.4442-4.2979c-0.5758-0.33244-0.93052-0.94682-0.93052-1.6117v-8.5958c0-0.66489 0.35472-1.2793 0.93052-1.6117l7.4442-4.2979c0.5758-0.33244 1.2852-0.33244 1.861 0l7.4442 4.2979c0.57581 0.33244 0.93052 0.94682 0.93052 1.6117zm0-87.333v-8.5958c0-0.66489-0.35471-1.2793-0.93052-1.6117l-7.4442-4.2979c-0.57581-0.33244-1.2852-0.33244-1.861 0l-7.4442 4.2979c-0.5758 0.33244-0.93052 0.94682-0.93052 1.6117v8.5958c0 0.66489 0.35472 1.2793 0.93052 1.6117l7.4442 4.2979c0.5758 0.33244 1.2852 0.33244 1.861 1e-8l7.4442-4.2979c0.57581-0.33244 0.93052-0.94682 0.93052-1.6117zm41.744 87.894v7.4746c0 0.57816-0.30844 1.1124-0.80915 1.4015l-6.4732 3.7373c-0.5007 0.28908-1.1176 0.28908-1.6183 0l-6.4732-3.7373c-0.5007-0.28908-0.80915-0.82332-0.80915-1.4015v-7.4746c0-0.57816 0.30845-1.1124 0.80915-1.4015l6.4732-3.7373c0.50071-0.28908 1.1176-0.28908 1.6183 0l6.4732 3.7373c0.50071 0.28908 0.80915 0.82332 0.80915 1.4015zm0-88.454v-7.4746c0-0.57816-0.30844-1.1124-0.80915-1.4015l-6.4732-3.7373c-0.5007-0.28908-1.1176-0.28908-1.6183 0l-6.4732 3.7373c-0.5007 0.28908-0.80915 0.82332-0.80915 1.4015v7.4746c0 0.57816 0.30845 1.1124 0.80915 1.4015l6.4732 3.7373c0.50071 0.28908 1.1176 0.28908 1.6183 1e-8l6.4732-3.7373c0.50071-0.28908 0.80915-0.82333 0.80915-1.4015zm41.744 89.015v6.3534c0 0.49144-0.26218 0.94554-0.68777 1.1913l-5.5022 3.1767c-0.4256 0.24572-0.94995 0.24572-1.3756 0l-5.5022-3.1767c-0.4256-0.24572-0.68778-0.69983-0.68778-1.1913v-6.3534c0-0.49144 0.26218-0.94554 0.68778-1.1913l5.5022-3.1767c0.4256-0.24572 0.94995-0.24572 1.3756 0l5.5022 3.1767c0.42559 0.24572 0.68777 0.69983 0.68777 1.1913zm0-89.576v-6.3534c0-0.49144-0.26218-0.94554-0.68777-1.1913l-5.5022-3.1767c-0.4256-0.24572-0.94995-0.24572-1.3756 0l-5.5022 3.1767c-0.4256 0.24572-0.68778 0.69983-0.68778 1.1913v6.3534c0 0.49144 0.26218 0.94555 0.68778 1.1913l5.5022 3.1767c0.4256 0.24572 0.94995 0.24572 1.3756 0l5.5022-3.1767c0.42559-0.24572 0.68777-0.69983 0.68777-1.1913zm41.744 90.136v5.2322c0 0.40471-0.21591 0.77868-0.5664 0.98104l-4.5312 2.6161c-0.35049 0.20236-0.78231 0.20236-1.1328 0l-4.5312-2.6161c-0.35049-0.20236-0.5664-0.57633-0.5664-0.98104v-5.2322c0-0.40471 0.21591-0.77868 0.5664-0.98104l4.5312-2.6161c0.35049-0.20236 0.78231-0.20236 1.1328 0l4.5312 2.6161c0.35049 0.20236 0.5664 0.57633 0.5664 0.98104zm0-90.697v-5.2322c0-0.40471-0.21591-0.77868-0.5664-0.98104l-4.5312-2.6161c-0.35049-0.20236-0.78231-0.20236-1.1328 0l-4.5312 2.6161c-0.35049 0.20236-0.5664 0.57633-0.5664 0.98104v5.2322c0 0.40471 0.21591 0.77868 0.5664 0.98104l4.5312 2.6161c0.35049 0.20236 0.78231 0.20236 1.1328 0l4.5312-2.6161c0.35049-0.20236 0.5664-0.57633 0.5664-0.98104zm-460.39 133.06v16.444c0 1.272-0.67858 2.4473-1.7801 3.0833l-14.241 8.2221c-1.1015 0.63598-2.4587 0.63598-3.5602 0l-14.241-8.2221c-1.1015-0.63598-1.7801-1.8113-1.7801-3.0833v-16.444c0-1.272 0.67858-2.4473 1.7801-3.0833l14.241-8.2221c1.1016-0.63598 2.4587-0.63598 3.5602 0l14.241 8.2221c1.1015 0.63598 1.7801 1.8113 1.7801 3.0833zm0-175.41v-16.444c0-1.272-0.67858-2.4473-1.7801-3.0833l-14.241-8.2221c-1.1015-0.63598-2.4587-0.63598-3.5602 0l-14.241 8.2221c-1.1015 0.63598-1.7801 1.8113-1.7801 3.0833v16.444c0 1.272 0.67858 2.4473 1.7801 3.0833l14.241 8.2221c1.1016 0.63598 2.4587 0.63598 3.5602 0l14.241-8.2221c1.1015-0.63598 1.7801-1.8113 1.7801-3.0833zm41.744 175.97v15.323c0 1.1852-0.63232 2.2804-1.6588 2.873l-13.27 7.6615c-1.0264 0.59261-2.2911 0.59261-3.3175 0l-13.27-7.6615c-1.0264-0.59261-1.6588-1.6878-1.6588-2.873v-15.323c0-1.1852 0.63232-2.2804 1.6588-2.873l13.27-7.6615c1.0264-0.59261 2.2911-0.59261 3.3175 0l13.27 7.6615c1.0264 0.59261 1.6588 1.6878 1.6588 2.873zm0-176.54v-15.323c0-1.1852-0.63232-2.2804-1.6588-2.873l-13.27-7.6615c-1.0264-0.59262-2.2911-0.59262-3.3175 0l-13.27 7.6615c-1.0264 0.59262-1.6588 1.6878-1.6588 2.873v15.323c0 1.1852 0.63232 2.2804 1.6588 2.873l13.27 7.6615c1.0264 0.59262 2.2911 0.59262 3.3175 0l13.27-7.6615c1.0264-0.59262 1.6588-1.6878 1.6588-2.873zm41.744 177.1v14.202c0 1.0985-0.58605 2.1136-1.5374 2.6628l-12.299 7.1009c-0.95134 0.54926-2.1234 0.54926-3.0748 0l-12.299-7.1009c-0.95133-0.54926-1.5374-1.5643-1.5374-2.6628v-14.202c0-1.0985 0.58605-2.1136 1.5374-2.6628l12.299-7.1009c0.95134-0.54926 2.1234-0.54926 3.0748 0l12.299 7.1009c0.95134 0.54925 1.5374 1.5643 1.5374 2.6628zm0-177.66v-14.202c0-1.0985-0.58605-2.1136-1.5374-2.6628l-12.299-7.1009c-0.95134-0.54925-2.1234-0.54925-3.0748 0l-12.299 7.1009c-0.95133 0.54925-1.5374 1.5643-1.5374 2.6628v14.202c0 1.0985 0.58605 2.1136 1.5374 2.6628l12.299 7.1009c0.95134 0.54925 2.1234 0.54925 3.0748 0l12.299-7.1009c0.95134-0.54925 1.5374-1.5643 1.5374-2.6628zm41.744 178.22v13.081c0 1.0118-0.53978 1.9467-1.416 2.4526l-11.328 6.5403c-0.87623 0.50589-1.9558 0.50589-2.832 0l-11.328-6.5403c-0.87623-0.50589-1.416-1.4408-1.416-2.4526v-13.081c0-1.0118 0.53978-1.9467 1.416-2.4526l11.328-6.5403c0.87623-0.50589 1.9558-0.50589 2.832 0l11.328 6.5403c0.87623 0.5059 1.416 1.4408 1.416 2.4526zm0-178.78v-13.081c0-1.0118-0.53978-1.9467-1.416-2.4526l-11.328-6.5403c-0.87623-0.50589-1.9558-0.50589-2.832 0l-11.328 6.5403c-0.87623 0.50589-1.416 1.4408-1.416 2.4526v13.081c0 1.0118 0.53978 1.9467 1.416 2.4526l11.328 6.5403c0.87623 0.50589 1.9558 0.50589 2.832 0l11.328-6.5403c0.87623-0.50589 1.416-1.4408 1.416-2.4526zm41.744 179.34v11.959c0 0.92506-0.49352 1.7798-1.2946 2.2424l-10.357 5.9797c-0.80112 0.46253-1.7882 0.46253-2.5893 0l-10.357-5.9797c-0.80113-0.46253-1.2946-1.3173-1.2946-2.2424v-11.959c0-0.92506 0.49351-1.7798 1.2946-2.2424l10.357-5.9797c0.80113-0.46253 1.7882-0.46253 2.5893 0l10.357 5.9797c0.80112 0.46253 1.2946 1.3173 1.2946 2.2424zm0-179.9v-11.959c0-0.92506-0.49352-1.7798-1.2946-2.2424l-10.357-5.9797c-0.80112-0.46253-1.7882-0.46253-2.5893 0l-10.357 5.9797c-0.80113 0.46253-1.2946 1.3173-1.2946 2.2424v11.959c0 0.92506 0.49351 1.7798 1.2946 2.2424l10.357 5.9797c0.80113 0.46253 1.7882 0.46253 2.5893 0l10.357-5.9797c0.80112-0.46253 1.2946-1.3173 1.2946-2.2424zm41.744 180.46v10.838c0 0.83834-0.44725 1.613-1.1733 2.0322l-9.3861 5.4191c-0.72602 0.41916-1.6205 0.41916-2.3465 0l-9.3861-5.4191c-0.72602-0.41917-1.1733-1.1938-1.1733-2.0322v-10.838c0-0.83834 0.44725-1.613 1.1733-2.0322l9.3861-5.4191c0.72602-0.41917 1.6205-0.41917 2.3465 0l9.3861 5.4191c0.72602 0.41917 1.1733 1.1938 1.1733 2.0322zm0-181.02v-10.838c0-0.83834-0.44725-1.613-1.1733-2.0322l-9.3861-5.4191c-0.72602-0.41917-1.6205-0.41917-2.3465 0l-9.3861 5.4191c-0.72602 0.41917-1.1733 1.1938-1.1733 2.0322v10.838c0 0.83834 0.44725 1.613 1.1733 2.0322l9.3861 5.4191c0.72602 0.41917 1.6205 0.41917 2.3465 0l9.3861-5.4191c0.72602-0.41917 1.1733-1.1938 1.1733-2.0322zm41.744 181.58v9.717c0 0.75161-0.40098 1.4461-1.0519 1.8219l-8.4152 4.8585c-0.65091 0.37581-1.4529 0.37581-2.1038 0l-8.4152-4.8585c-0.65092-0.3758-1.0519-1.0703-1.0519-1.8219v-9.717c0-0.75161 0.40098-1.4461 1.0519-1.8219l8.4152-4.8585c0.65091-0.37581 1.4529-0.37581 2.1038 0l8.4152 4.8585c0.65092 0.3758 1.0519 1.0703 1.0519 1.8219zm0-182.14v-9.717c0-0.75161-0.40098-1.4461-1.0519-1.8219l-8.4152-4.8585c-0.65091-0.37581-1.4529-0.37581-2.1038 0l-8.4152 4.8585c-0.65092 0.3758-1.0519 1.0703-1.0519 1.8219v9.717c0 0.75161 0.40098 1.4461 1.0519 1.8219l8.4152 4.8585c0.65091 0.3758 1.4529 0.3758 2.1038 0l8.4152-4.8585c0.65092-0.37581 1.0519-1.0703 1.0519-1.8219zm41.744 182.7v8.5958c0 0.66489-0.35471 1.2793-0.93052 1.6117l-7.4442 4.2979c-0.57581 0.33244-1.2852 0.33244-1.861 0l-7.4442-4.2979c-0.57581-0.33245-0.93052-0.94683-0.93052-1.6117v-8.5958c0-0.66489 0.35471-1.2793 0.93052-1.6117l7.4442-4.2979c0.57581-0.33244 1.2852-0.33244 1.861 0l7.4442 4.2979c0.57581 0.33244 0.93052 0.94682 0.93052 1.6117zm0-183.26v-8.5958c0-0.66489-0.35471-1.2793-0.93052-1.6117l-7.4442-4.2979c-0.57581-0.33244-1.2852-0.33244-1.861-1e-6l-7.4442 4.2979c-0.57581 0.33244-0.93052 0.94682-0.93052 1.6117v8.5958c0 0.66489 0.35471 1.2793 0.93052 1.6117l7.4442 4.2979c0.57581 0.33244 1.2852 0.33244 1.861 0l7.4442-4.2979c0.57581-0.33244 0.93052-0.94682 0.93052-1.6117zm41.744 183.82v7.4746c0 0.57816-0.30845 1.1124-0.80915 1.4015l-6.4732 3.7373c-0.50071 0.28908-1.1176 0.28908-1.6183 0l-6.4732-3.7373c-0.50071-0.28908-0.80915-0.82333-0.80915-1.4015v-7.4746c0-0.57816 0.30844-1.1124 0.80915-1.4015l6.4732-3.7373c0.5007-0.28908 1.1176-0.28908 1.6183 0l6.4732 3.7373c0.5007 0.28908 0.80915 0.82333 0.80915 1.4015zm0-184.38v-7.4746c0-0.57816-0.30845-1.1124-0.80915-1.4015l-6.4732-3.7373c-0.50071-0.28908-1.1176-0.28908-1.6183 0l-6.4732 3.7373c-0.50071 0.28908-0.80915 0.82332-0.80915 1.4015v7.4746c0 0.57816 0.30844 1.1124 0.80915 1.4015l6.4732 3.7373c0.5007 0.28908 1.1176 0.28908 1.6183 0l6.4732-3.7373c0.5007-0.28908 0.80915-0.82332 0.80915-1.4015zm41.744 184.94v6.3534c0 0.49144-0.26218 0.94555-0.68778 1.1913l-5.5022 3.1767c-0.4256 0.24572-0.94996 0.24572-1.3756 0l-5.5022-3.1767c-0.4256-0.24572-0.68778-0.69983-0.68778-1.1913v-6.3534c0-0.49144 0.26218-0.94555 0.68778-1.1913l5.5022-3.1767c0.4256-0.24572 0.94996-0.24572 1.3756 0l5.5022 3.1767c0.4256 0.24572 0.68778 0.69983 0.68778 1.1913zm0-185.5v-6.3534c0-0.49144-0.26218-0.94554-0.68778-1.1913l-5.5022-3.1767c-0.4256-0.24572-0.94996-0.24572-1.3756 0l-5.5022 3.1767c-0.4256 0.24572-0.68778 0.69983-0.68778 1.1913v6.3534c0 0.49144 0.26218 0.94555 0.68778 1.1913l5.5022 3.1767c0.4256 0.24572 0.94996 0.24572 1.3756 0l5.5022-3.1767c0.4256-0.24572 0.68778-0.69983 0.68778-1.1913zm41.744 186.07v5.2322c0 0.40471-0.21591 0.77868-0.56641 0.98104l-4.5312 2.6161c-0.35049 0.20236-0.78232 0.20236-1.1328 0l-4.5312-2.6161c-0.3505-0.20236-0.56641-0.57633-0.56641-0.98104v-5.2322c0-0.40471 0.21591-0.77868 0.56641-0.98104l4.5312-2.6161c0.35049-0.20236 0.78232-0.20236 1.1328 0l4.5312 2.6161c0.3505 0.20236 0.56641 0.57633 0.56641 0.98104zm0-186.63v-5.2322c0-0.40471-0.21591-0.77868-0.56641-0.98104l-4.5312-2.6161c-0.35049-0.20236-0.78232-0.20236-1.1328 0l-4.5312 2.6161c-0.3505 0.20236-0.56641 0.57633-0.56641 0.98104v5.2322c0 0.40471 0.21591 0.77868 0.56641 0.98104l4.5312 2.6161c0.35049 0.20236 0.78232 0.20236 1.1328 0l4.5312-2.6161c0.3505-0.20236 0.56641-0.57633 0.56641-0.98104zm41.744 187.19v4.111c0 0.31799-0.16965 0.61183-0.44503 0.77082l-3.5603 2.0555c-0.27539 0.15899-0.61468 0.15899-0.89006 0l-3.5603-2.0555c-0.27539-0.15899-0.44503-0.45283-0.44503-0.77082v-4.111c0-0.31799 0.16964-0.61183 0.44503-0.77082l3.5603-2.0555c0.27538-0.15899 0.61467-0.15899 0.89006 0l3.5603 2.0555c0.27538 0.15899 0.44503 0.45283 0.44503 0.77082zm0-187.75v-4.111c0-0.31799-0.16965-0.61182-0.44503-0.77082l-3.5603-2.0555c-0.27539-0.15899-0.61468-0.15899-0.89006 0l-3.5603 2.0555c-0.27539 0.159-0.44503 0.45283-0.44503 0.77082v4.111c0 0.31799 0.16964 0.61182 0.44503 0.77082l3.5603 2.0555c0.27538 0.159 0.61467 0.159 0.89006 0l3.5603-2.0555c0.27538-0.159 0.44503-0.45283 0.44503-0.77082zm-460.39 230.11v15.323c0 1.1852-0.63231 2.2804-1.6588 2.873l-13.27 7.6615c-1.0264 0.59262-2.2911 0.59262-3.3175 0l-13.27-7.6615c-1.0264-0.59262-1.6588-1.6878-1.6588-2.873v-15.323c0-1.1852 0.63231-2.2804 1.6588-2.873l13.27-7.6615c1.0264-0.59262 2.2911-0.59262 3.3175 0l13.27 7.6615c1.0264 0.59262 1.6588 1.6878 1.6588 2.873zm0-272.46v-15.323c0-1.1852-0.63231-2.2804-1.6588-2.873l-13.27-7.6615c-1.0264-0.59262-2.2911-0.59262-3.3175 0l-13.27 7.6615c-1.0264 0.59262-1.6588 1.6878-1.6588 2.873v15.323c0 1.1852 0.63231 2.2804 1.6588 2.873l13.27 7.6615c1.0264 0.59262 2.2911 0.59262 3.3175 0l13.27-7.6615c1.0264-0.59262 1.6588-1.6878 1.6588-2.873zm41.744 273.02v14.202c0 1.0985-0.58604 2.1136-1.5374 2.6628l-12.299 7.1009c-0.95133 0.54925-2.1234 0.54925-3.0748 0l-12.299-7.1009c-0.95134-0.54925-1.5374-1.5643-1.5374-2.6628v-14.202c0-1.0985 0.58604-2.1136 1.5374-2.6628l12.299-7.1009c0.95133-0.54925 2.1234-0.54925 3.0748 0l12.299 7.1009c0.95134 0.54926 1.5374 1.5643 1.5374 2.6628zm0-273.59v-14.202c0-1.0985-0.58604-2.1136-1.5374-2.6628l-12.299-7.1009c-0.95133-0.54925-2.1234-0.54925-3.0748 0l-12.299 7.1009c-0.95134 0.54926-1.5374 1.5643-1.5374 2.6628v14.202c0 1.0985 0.58604 2.1136 1.5374 2.6628l12.299 7.1009c0.95133 0.54925 2.1234 0.54925 3.0748 0l12.299-7.1009c0.95134-0.54925 1.5374-1.5643 1.5374-2.6628zm41.744 274.15v13.081c0 1.0118-0.53978 1.9467-1.416 2.4526l-11.328 6.5403c-0.87624 0.50589-1.9558 0.50589-2.832 0l-11.328-6.5403c-0.87623-0.50589-1.416-1.4408-1.416-2.4526v-13.081c0-1.0118 0.53978-1.9467 1.416-2.4526l11.328-6.5403c0.87623-0.50589 1.9558-0.50589 2.832 0l11.328 6.5403c0.87623 0.50589 1.416 1.4408 1.416 2.4526zm0-274.71v-13.081c0-1.0118-0.53978-1.9467-1.416-2.4526l-11.328-6.5403c-0.87624-0.5059-1.9558-0.5059-2.832 0l-11.328 6.5403c-0.87623 0.50589-1.416 1.4408-1.416 2.4526v13.081c0 1.0118 0.53978 1.9467 1.416 2.4526l11.328 6.5403c0.87623 0.50589 1.9558 0.50589 2.832 0l11.328-6.5403c0.87623-0.50589 1.416-1.4408 1.416-2.4526zm41.744 275.27v11.959c0 0.92505-0.49351 1.7798-1.2946 2.2424l-10.357 5.9797c-0.80113 0.46253-1.7882 0.46253-2.5893 0l-10.357-5.9797c-0.80112-0.46252-1.2946-1.3173-1.2946-2.2424v-11.959c0-0.92506 0.49352-1.7798 1.2946-2.2424l10.357-5.9797c0.80112-0.46253 1.7882-0.46253 2.5893 0l10.357 5.9797c0.80113 0.46253 1.2946 1.3173 1.2946 2.2424zm0-275.83v-11.959c0-0.92506-0.49351-1.7798-1.2946-2.2424l-10.357-5.9797c-0.80113-0.46253-1.7882-0.46253-2.5893 0l-10.357 5.9797c-0.80112 0.46253-1.2946 1.3173-1.2946 2.2424v11.959c0 0.92506 0.49352 1.7798 1.2946 2.2424l10.357 5.9797c0.80112 0.46253 1.7882 0.46253 2.5893 0l10.357-5.9797c0.80113-0.46253 1.2946-1.3173 1.2946-2.2424zm41.744 276.39v10.838c0 0.83834-0.44724 1.613-1.1733 2.0322l-9.3861 5.4191c-0.72602 0.41917-1.6205 0.41917-2.3465 0l-9.3861-5.4191c-0.72602-0.41917-1.1733-1.1938-1.1733-2.0322v-10.838c0-0.83833 0.44725-1.613 1.1733-2.0322l9.3861-5.4191c0.72602-0.41917 1.6205-0.41917 2.3465 0l9.3861 5.4191c0.72602 0.41916 1.1733 1.1938 1.1733 2.0322zm0-276.95v-10.838c0-0.83833-0.44724-1.613-1.1733-2.0322l-9.3861-5.4191c-0.72602-0.41917-1.6205-0.41917-2.3465 0l-9.3861 5.4191c-0.72602 0.41916-1.1733 1.1938-1.1733 2.0322v10.838c0 0.83834 0.44725 1.613 1.1733 2.0322l9.3861 5.4191c0.72602 0.41917 1.6205 0.41917 2.3465 0l9.3861-5.4191c0.72602-0.41917 1.1733-1.1938 1.1733-2.0322zm41.744 277.51v9.717c0 0.75161-0.40098 1.4461-1.0519 1.8219l-8.4152 4.8585c-0.65091 0.3758-1.4529 0.3758-2.1038 0l-8.4152-4.8585c-0.65091-0.37581-1.0519-1.0703-1.0519-1.8219v-9.717c0-0.75161 0.40098-1.4461 1.0519-1.8219l8.4152-4.8585c0.65092-0.3758 1.4529-0.3758 2.1038 0l8.4152 4.8585c0.65091 0.37581 1.0519 1.0703 1.0519 1.8219zm0-278.07v-9.717c0-0.75161-0.40098-1.4461-1.0519-1.8219l-8.4152-4.8585c-0.65091-0.3758-1.4529-0.3758-2.1038 0l-8.4152 4.8585c-0.65091 0.37581-1.0519 1.0703-1.0519 1.8219v9.717c0 0.75161 0.40098 1.4461 1.0519 1.8219l8.4152 4.8585c0.65092 0.37581 1.4529 0.37581 2.1038 0l8.4152-4.8585c0.65091-0.37581 1.0519-1.0703 1.0519-1.8219zm41.744 278.63v8.5958c0 0.66489-0.35471 1.2793-0.93052 1.6117l-7.4442 4.2979c-0.57581 0.33244-1.2852 0.33244-1.861 0l-7.4442-4.2979c-0.57581-0.33244-0.93052-0.94682-0.93052-1.6117v-8.5958c0-0.66488 0.35471-1.2793 0.93052-1.6117l7.4442-4.2979c0.57581-0.33245 1.2852-0.33245 1.861 0l7.4442 4.2979c0.57581 0.33244 0.93052 0.94682 0.93052 1.6117zm0-279.19v-8.5958c0-0.66488-0.35471-1.2793-0.93052-1.6117l-7.4442-4.2979c-0.57581-0.33245-1.2852-0.33245-1.861 0l-7.4442 4.2979c-0.57581 0.33245-0.93052 0.94683-0.93052 1.6117v8.5958c0 0.66489 0.35471 1.2793 0.93052 1.6117l7.4442 4.2979c0.57581 0.33244 1.2852 0.33244 1.861 0l7.4442-4.2979c0.57581-0.33244 0.93052-0.94682 0.93052-1.6117zm41.744 279.75v7.4746c0 0.57816-0.30844 1.1124-0.80914 1.4015l-6.4732 3.7373c-0.5007 0.28908-1.1176 0.28908-1.6183 0l-6.4732-3.7373c-0.5007-0.28908-0.80915-0.82332-0.80915-1.4015v-7.4746c0-0.57817 0.30845-1.1124 0.80915-1.4015l6.4732-3.7373c0.50071-0.28908 1.1176-0.28908 1.6183 0l6.4732 3.7373c0.5007 0.28908 0.80914 0.82332 0.80914 1.4015zm0-280.31v-7.4746c0-0.57816-0.30844-1.1124-0.80914-1.4015l-6.4732-3.7373c-0.5007-0.28908-1.1176-0.28908-1.6183 0l-6.4732 3.7373c-0.5007 0.28908-0.80915 0.82333-0.80915 1.4015v7.4746c0 0.57816 0.30845 1.1124 0.80915 1.4015l6.4732 3.7373c0.50071 0.28908 1.1176 0.28908 1.6183 0l6.4732-3.7373c0.5007-0.28908 0.80914-0.82332 0.80914-1.4015zm41.744 280.87v6.3534c0 0.49144-0.26217 0.94555-0.68777 1.1913l-5.5022 3.1767c-0.42559 0.24572-0.94995 0.24572-1.3756 0l-5.5022-3.1767c-0.4256-0.24571-0.68778-0.69982-0.68778-1.1913v-6.3534c0-0.49144 0.26218-0.94554 0.68778-1.1913l5.5022-3.1767c0.4256-0.24572 0.94996-0.24572 1.3756 0l5.5022 3.1767c0.4256 0.24572 0.68777 0.69982 0.68777 1.1913zm0-281.43v-6.3534c0-0.49144-0.26217-0.94554-0.68777-1.1913l-5.5022-3.1767c-0.42559-0.24572-0.94995-0.24572-1.3756 0l-5.5022 3.1767c-0.4256 0.24572-0.68778 0.69982-0.68778 1.1913v6.3534c0 0.49144 0.26218 0.94555 0.68778 1.1913l5.5022 3.1767c0.4256 0.24572 0.94996 0.24572 1.3756 0l5.5022-3.1767c0.4256-0.24572 0.68777-0.69983 0.68777-1.1913zm41.744 281.99v5.2322c0 0.40471-0.21592 0.77868-0.56641 0.98104l-4.5312 2.6161c-0.3505 0.20235-0.78232 0.20235-1.1328 0l-4.5312-2.6161c-0.35049-0.20236-0.5664-0.57633-0.5664-0.98104v-5.2322c0-0.40472 0.21591-0.77869 0.5664-0.98104l4.5312-2.6161c0.35049-0.20236 0.78231-0.20236 1.1328 0l4.5312 2.6161c0.35049 0.20235 0.56641 0.57632 0.56641 0.98104zm0-282.55v-5.2322c0-0.40472-0.21592-0.77869-0.56641-0.98104l-4.5312-2.6161c-0.3505-0.20236-0.78232-0.20236-1.1328 0l-4.5312 2.6161c-0.35049 0.20235-0.5664 0.57632-0.5664 0.98104v5.2322c0 0.40471 0.21591 0.77868 0.5664 0.98104l4.5312 2.6161c0.35049 0.20236 0.78231 0.20236 1.1328 0l4.5312-2.6161c0.35049-0.20236 0.56641-0.57633 0.56641-0.98104zm41.744 283.12v4.111c0 0.31799-0.16965 0.61182-0.44504 0.77082l-3.5602 2.0555c-0.27539 0.159-0.61468 0.159-0.89007 0l-3.5602-2.0555c-0.27539-0.159-0.44503-0.45283-0.44503-0.77082v-4.111c0-0.31799 0.16964-0.61182 0.44503-0.77082l3.5602-2.0555c0.27539-0.159 0.61468-0.159 0.89007 0l3.5602 2.0555c0.27539 0.159 0.44504 0.45283 0.44504 0.77082zm0-283.68v-4.111c0-0.31799-0.16965-0.61182-0.44504-0.77082l-3.5602-2.0555c-0.27539-0.159-0.61468-0.159-0.89007 0l-3.5602 2.0555c-0.27539 0.159-0.44503 0.45283-0.44503 0.77082v4.111c0 0.31799 0.16964 0.61183 0.44503 0.77082l3.5602 2.0555c0.27539 0.159 0.61468 0.159 0.89007 0l3.5602-2.0555c0.27539-0.15899 0.44504-0.45283 0.44504-0.77082zm41.744 284.24v2.9898c0 0.23126-0.12338 0.44496-0.32366 0.56059l-2.5893 1.4949c-0.20028 0.11563-0.44704 0.11563-0.64732 0l-2.5893-1.4949c-0.20028-0.11563-0.32366-0.32933-0.32366-0.56059v-2.9898c0-0.23127 0.12338-0.44497 0.32366-0.5606l2.5893-1.4949c0.20028-0.11563 0.44704-0.11563 0.64732 0l2.5893 1.4949c0.20028 0.11563 0.32366 0.32933 0.32366 0.5606zm0-284.8v-2.9898c0-0.23127-0.12338-0.44497-0.32366-0.5606l-2.5893-1.4949c-0.20028-0.11563-0.44704-0.11563-0.64732 0l-2.5893 1.4949c-0.20028 0.11563-0.32366 0.32933-0.32366 0.5606v2.9898c0 0.23126 0.12338 0.44496 0.32366 0.56059l2.5893 1.4949c0.20028 0.11563 0.44704 0.11563 0.64732 0l2.5893-1.4949c0.20028-0.11563 0.32366-0.32933 0.32366-0.56059zm-460.39 327.16v14.202c0 1.0985-0.58605 2.1136-1.5374 2.6628l-12.299 7.1009c-0.95134 0.54925-2.1234 0.54925-3.0748 0l-12.299-7.1009c-0.95134-0.54926-1.5374-1.5643-1.5374-2.6628v-14.202c0-1.0985 0.58605-2.1136 1.5374-2.6628l12.299-7.1009c0.95134-0.54926 2.1234-0.54926 3.0748 0l12.299 7.1009c0.95133 0.54925 1.5374 1.5643 1.5374 2.6628zm0-369.51v-14.202c0-1.0985-0.58605-2.1136-1.5374-2.6628l-12.299-7.1009c-0.95134-0.54926-2.1234-0.54926-3.0748 0l-12.299 7.1009c-0.95134 0.54925-1.5374 1.5643-1.5374 2.6628v14.202c0 1.0985 0.58605 2.1136 1.5374 2.6628l12.299 7.1009c0.95134 0.54925 2.1234 0.54925 3.0748 0l12.299-7.1009c0.95133-0.54926 1.5374-1.5643 1.5374-2.6628zm41.744 370.07v13.081c0 1.0118-0.53978 1.9467-1.416 2.4526l-11.328 6.5403c-0.87623 0.50589-1.9558 0.50589-2.832 0l-11.328-6.5403c-0.87623-0.50589-1.416-1.4408-1.416-2.4526v-13.081c0-1.0118 0.53978-1.9467 1.416-2.4526l11.328-6.5403c0.87623-0.50589 1.9558-0.50589 2.832 0l11.328 6.5403c0.87623 0.5059 1.416 1.4408 1.416 2.4526zm0-370.64v-13.081c0-1.0118-0.53978-1.9467-1.416-2.4526l-11.328-6.5403c-0.87623-0.50589-1.9558-0.50589-2.832 0l-11.328 6.5403c-0.87623 0.5059-1.416 1.4408-1.416 2.4526v13.081c0 1.0118 0.53978 1.9467 1.416 2.4526l11.328 6.5403c0.87623 0.50589 1.9558 0.50589 2.832 0l11.328-6.5403c0.87623-0.50589 1.416-1.4408 1.416-2.4526zm41.744 371.2v11.959c0 0.92506-0.49351 1.7798-1.2946 2.2424l-10.357 5.9797c-0.80112 0.46253-1.7882 0.46253-2.5893 0l-10.357-5.9797c-0.80113-0.46253-1.2946-1.3173-1.2946-2.2424v-11.959c0-0.92506 0.49351-1.7798 1.2946-2.2424l10.357-5.9797c0.80112-0.46253 1.7882-0.46253 2.5893 0l10.357 5.9797c0.80113 0.46253 1.2946 1.3173 1.2946 2.2424zm0-371.76v-11.959c0-0.92506-0.49351-1.7798-1.2946-2.2424l-10.357-5.9797c-0.80112-0.46253-1.7882-0.46253-2.5893 0l-10.357 5.9797c-0.80113 0.46253-1.2946 1.3173-1.2946 2.2424v11.959c0 0.92506 0.49351 1.7798 1.2946 2.2424l10.357 5.9797c0.80112 0.46253 1.7882 0.46253 2.5893 0l10.357-5.9797c0.80113-0.46253 1.2946-1.3173 1.2946-2.2424zm41.744 372.32v10.838c0 0.83833-0.44725 1.613-1.1733 2.0322l-9.3861 5.4191c-0.72602 0.41916-1.6205 0.41916-2.3465 0l-9.3861-5.4191c-0.72602-0.41916-1.1733-1.1938-1.1733-2.0322v-10.838c0-0.83834 0.44724-1.613 1.1733-2.0322l9.3861-5.4191c0.72602-0.41917 1.6205-0.41917 2.3465 0l9.3861 5.4191c0.72602 0.41917 1.1733 1.1938 1.1733 2.0322zm0-372.88v-10.838c0-0.83834-0.44725-1.613-1.1733-2.0322l-9.3861-5.4191c-0.72602-0.41917-1.6205-0.41917-2.3465 0l-9.3861 5.4191c-0.72602 0.41917-1.1733 1.1938-1.1733 2.0322v10.838c0 0.83833 0.44724 1.613 1.1733 2.0322l9.3861 5.4191c0.72602 0.41916 1.6205 0.41916 2.3465 0l9.3861-5.4191c0.72602-0.41917 1.1733-1.1938 1.1733-2.0322zm41.744 373.44v9.717c0 0.75161-0.40098 1.4461-1.0519 1.8219l-8.4152 4.8585c-0.65092 0.37581-1.4529 0.37581-2.1038 0l-8.4152-4.8585c-0.65092-0.3758-1.0519-1.0703-1.0519-1.8219v-9.717c0-0.75161 0.40098-1.4461 1.0519-1.8219l8.4152-4.8585c0.65091-0.37581 1.4529-0.37581 2.1038 0l8.4152 4.8585c0.65091 0.3758 1.0519 1.0703 1.0519 1.8219zm0-374v-9.717c0-0.75161-0.40098-1.4461-1.0519-1.8219l-8.4152-4.8585c-0.65092-0.37581-1.4529-0.37581-2.1038 0l-8.4152 4.8585c-0.65092 0.3758-1.0519 1.0703-1.0519 1.8219v9.717c0 0.75161 0.40098 1.4461 1.0519 1.8219l8.4152 4.8585c0.65091 0.37581 1.4529 0.37581 2.1038 0l8.4152-4.8585c0.65091-0.3758 1.0519-1.0703 1.0519-1.8219zm41.744 374.56v8.5958c0 0.66488-0.35471 1.2793-0.93052 1.6117l-7.4442 4.2979c-0.57581 0.33244-1.2852 0.33244-1.861 0l-7.4442-4.2979c-0.57581-0.33245-0.93052-0.94683-0.93052-1.6117v-8.5958c0-0.66489 0.35471-1.2793 0.93052-1.6117l7.4442-4.2979c0.57581-0.33244 1.2852-0.33244 1.861 0l7.4442 4.2979c0.57581 0.33244 0.93052 0.94682 0.93052 1.6117zm0-375.12v-8.5958c0-0.66489-0.35471-1.2793-0.93052-1.6117l-7.4442-4.2979c-0.57581-0.33244-1.2852-0.33244-1.861 0l-7.4442 4.2979c-0.57581 0.33244-0.93052 0.94682-0.93052 1.6117v8.5958c0 0.66488 0.35471 1.2793 0.93052 1.6117l7.4442 4.2979c0.57581 0.33244 1.2852 0.33244 1.861 0l7.4442-4.2979c0.57581-0.33245 0.93052-0.94683 0.93052-1.6117zm41.744 375.68v7.4746c0 0.57816-0.30845 1.1124-0.80915 1.4015l-6.4732 3.7373c-0.5007 0.28908-1.1176 0.28908-1.6183 0l-6.4732-3.7373c-0.50071-0.28908-0.80915-0.82333-0.80915-1.4015v-7.4746c0-0.57816 0.30844-1.1124 0.80915-1.4015l6.4732-3.7373c0.5007-0.28909 1.1176-0.28909 1.6183 0l6.4732 3.7373c0.5007 0.28909 0.80915 0.82333 0.80915 1.4015zm0-376.24v-7.4746c0-0.57816-0.30845-1.1124-0.80915-1.4015l-6.4732-3.7373c-0.5007-0.28908-1.1176-0.28908-1.6183 0l-6.4732 3.7373c-0.50071 0.28909-0.80915 0.82333-0.80915 1.4015v7.4746c0 0.57816 0.30844 1.1124 0.80915 1.4015l6.4732 3.7373c0.5007 0.28908 1.1176 0.28908 1.6183 0l6.4732-3.7373c0.5007-0.28908 0.80915-0.82333 0.80915-1.4015zm41.744 376.8v6.3534c0 0.49143-0.26218 0.94554-0.68778 1.1913l-5.5022 3.1767c-0.4256 0.24571-0.94996 0.24571-1.3756 0l-5.5022-3.1767c-0.42559-0.24572-0.68777-0.69983-0.68777-1.1913v-6.3534c0-0.49144 0.26218-0.94555 0.68777-1.1913l5.5022-3.1767c0.42559-0.24572 0.94995-0.24572 1.3756 0l5.5022 3.1767c0.4256 0.24572 0.68778 0.69983 0.68778 1.1913zm0-377.36v-6.3534c0-0.49144-0.26218-0.94555-0.68778-1.1913l-5.5022-3.1767c-0.4256-0.24572-0.94996-0.24572-1.3756 0l-5.5022 3.1767c-0.42559 0.24572-0.68777 0.69983-0.68777 1.1913v6.3534c0 0.49143 0.26218 0.94554 0.68777 1.1913l5.5022 3.1767c0.42559 0.24572 0.94995 0.24572 1.3756 0l5.5022-3.1767c0.4256-0.24572 0.68778-0.69983 0.68778-1.1913zm41.744 377.92v5.2322c0 0.40471-0.21591 0.77869-0.5664 0.98104l-4.5312 2.6161c-0.35049 0.20236-0.78231 0.20236-1.1328 0l-4.5312-2.6161c-0.35049-0.20235-0.56641-0.57632-0.56641-0.98104v-5.2322c0-0.40471 0.21592-0.77868 0.56641-0.98104l4.5312-2.6161c0.3505-0.20236 0.78232-0.20236 1.1328 0l4.5312 2.6161c0.35049 0.20236 0.5664 0.57633 0.5664 0.98104zm0-378.48v-5.2322c0-0.40471-0.21591-0.77868-0.5664-0.98104l-4.5312-2.6161c-0.35049-0.20236-0.78231-0.20236-1.1328 0l-4.5312 2.6161c-0.35049 0.20236-0.56641 0.57633-0.56641 0.98104v5.2322c0 0.40471 0.21592 0.77869 0.56641 0.98104l4.5312 2.6161c0.3505 0.20236 0.78232 0.20236 1.1328 0l4.5312-2.6161c0.35049-0.20235 0.5664-0.57633 0.5664-0.98104zm41.744 379.04v4.111c0 0.31799-0.16964 0.61182-0.44503 0.77081l-3.5603 2.0555c-0.27538 0.15899-0.61467 0.15899-0.89006 0l-3.5603-2.0555c-0.27538-0.15899-0.44503-0.45282-0.44503-0.77081v-4.111c0-0.31799 0.16965-0.61183 0.44503-0.77082l3.5603-2.0555c0.27539-0.15899 0.61468-0.15899 0.89006 0l3.5603 2.0555c0.27539 0.15899 0.44503 0.45283 0.44503 0.77082zm0-379.6v-4.111c0-0.31799-0.16964-0.61183-0.44503-0.77082l-3.5603-2.0555c-0.27538-0.15899-0.61467-0.15899-0.89006 0l-3.5603 2.0555c-0.27538 0.15899-0.44503 0.45283-0.44503 0.77082v4.111c0 0.31799 0.16965 0.61182 0.44503 0.77081l3.5603 2.0555c0.27539 0.15899 0.61468 0.15899 0.89006 0l3.5603-2.0555c0.27539-0.15899 0.44503-0.45282 0.44503-0.77081zm41.744 380.17v2.9898c0 0.23127-0.12338 0.44496-0.32366 0.5606l-2.5893 1.4949c-0.20029 0.11563-0.44704 0.11563-0.64732 0l-2.5893-1.4949c-0.20028-0.11564-0.32366-0.32933-0.32366-0.5606v-2.9898c0-0.23126 0.12338-0.44496 0.32366-0.56059l2.5893-1.4949c0.20028-0.11564 0.44703-0.11564 0.64732 0l2.5893 1.4949c0.20028 0.11563 0.32366 0.32933 0.32366 0.56059zm0-380.73v-2.9898c0-0.23126-0.12338-0.44496-0.32366-0.56059l-2.5893-1.4949c-0.20029-0.11564-0.44704-0.11564-0.64732 0l-2.5893 1.4949c-0.20028 0.11563-0.32366 0.32933-0.32366 0.56059v2.9898c0 0.23127 0.12338 0.44496 0.32366 0.5606l2.5893 1.4949c0.20028 0.11563 0.44703 0.11563 0.64732 0l2.5893-1.4949c0.20028-0.11564 0.32366-0.32933 0.32366-0.5606zm41.744 381.29v1.8686c0 0.14454-0.0771 0.2781-0.20229 0.35037l-1.6183 0.93432c-0.12518 0.0723-0.2794 0.0723-0.40458 0l-1.6183-0.93432c-0.12517-0.0723-0.20228-0.20583-0.20228-0.35037v-1.8686c0-0.14454 0.0771-0.2781 0.20228-0.35037l1.6183-0.93433c0.12518-0.0723 0.2794-0.0723 0.40458 0l1.6183 0.93433c0.12518 0.0723 0.20229 0.20583 0.20229 0.35037zm0-381.85v-1.8686c0-0.14454-0.0771-0.27811-0.20229-0.35038l-1.6183-0.93432c-0.12518-0.0723-0.2794-0.0723-0.40458 0l-1.6183 0.93432c-0.12517 0.0723-0.20228 0.20584-0.20228 0.35038v1.8686c0 0.14454 0.0771 0.2781 0.20228 0.35037l1.6183 0.93432c0.12518 0.0723 0.2794 0.0723 0.40458 0l1.6183-0.93432c0.12518-0.0723 0.20229-0.20583 0.20229-0.35037z" clip-path="url(#c)" fill="url(#a)" stroke="#000" stroke-linecap="round" stroke-linejoin="round" stroke-width=".99867" style="paint-order:markers stroke fill"/></g><g class="UnoptimicedTransforms" transform="translate(-150.02)" fill="#f2f2f2"><path transform="translate(196.22 135.32)" d="m217.5 203.52c-1.024 0-1.8773-0.85333-1.8773-1.8773v-27.307c0-1.024 0.85333-1.8773 1.8773-1.8773h39.083v-9.216h-39.083c-6.144 0-11.093 4.9493-11.093 11.093v27.307c0 6.144 4.9493 11.093 11.093 11.093h39.253v-9.216zm86.443-40.277h-30.037v-16.213h-9.216v65.707h9.216v-38.4c0-1.024 0.85333-1.8773 1.8773-1.8773h28.16c1.024 0 1.8773 0.85333 1.8773 1.8773v38.4h9.216v-38.4c0-6.144-5.0347-11.093-11.093-11.093zm56.832 0h-39.253v9.216h39.253c1.024 0 1.8773 0.85333 1.8773 1.8773v9.0453h-41.131v18.261c0 6.144 4.9493 11.093 11.093 11.093h39.253v-38.4c0-6.144-4.9493-11.093-11.093-11.093zm1.8773 40.277h-30.037c-1.024 0-1.8773-0.85333-1.8773-1.8773v-9.0453h31.915zm55.808-40.277h-39.253v49.493h9.216v-38.4c0-1.024 0.85333-1.8773 1.8773-1.8773h28.16c1.024 0 1.8773 0.85333 1.8773 1.8773v38.4h9.216v-38.4c0-6.144-4.9493-11.093-11.093-11.093zm59.392 0h-39.253v49.493h9.216v-38.4c0-1.024 0.85334-1.8773 1.8773-1.8773h28.16c1.024 0 1.8773 0.85333 1.8773 1.8773v38.4h9.216v-38.4c0-6.144-4.9493-11.093-11.093-11.093zm59.136 0h-28.16c-6.144 0-11.093 4.9493-11.093 11.093v27.307c0 6.144 4.9493 11.093 11.093 11.093h39.253v-9.216h-39.253c-1.024 0-1.8773-0.85333-1.8773-1.8773v-9.0453h41.131v-18.261c0-6.144-4.9493-11.093-11.093-11.093zm-30.037 20.139v-9.0453c0-1.024 0.85333-1.8773 1.8773-1.8773h28.16c1.024 0 1.8773 0.85333 1.8773 1.8773v9.0453zm49.493-9.0453v0 27.307c0 6.144 4.9493 11.093 11.093 11.093h9.216v-9.216h-9.216c-1.024 0-1.8773-0.85333-1.8773-1.8773v-54.613h-9.216zm75.776 0c0-6.144-4.9493-11.093-11.093-11.093h-28.16c-6.144 0-11.093 4.9493-11.093 11.093v7.168c0 6.144 4.9493 11.093 11.093 11.093h28.16c1.024 0 1.8773 0.85333 1.8773 1.8773v7.168c0 1.024-0.85333 1.8773-1.8773 1.8773h-28.16c-1.024 0-1.8773-0.85333-1.8773-1.8773v-1.8773h-9.216v1.8773c0 6.144 4.9493 11.093 11.093 11.093h28.16c6.144 0 11.093-4.9493 11.093-11.093v-7.168c0-6.144-4.9493-11.093-11.093-11.093h-28.16c-1.024 0-1.8773-0.85333-1.8773-1.8773v-7.168c0-1.024 0.85333-1.8773 1.8773-1.8773h28.16c1.024 0 1.8773 0.85333 1.8773 1.8773v1.8773h9.216z" fill="#f1f1f1" stroke="#000" stroke-linecap="round" stroke-linejoin="round" style="paint-order:markers stroke fill;white-space:pre" aria-label="channels"/></g></svg>
