<?xml version="1.0" encoding="UTF-8" standalone="no"?>
<!-- Created with Inkscape (http://www.inkscape.org/) -->

<svg
   width="1280"
   height="640"
   viewBox="0 0 1280 640"
   version="1.1"
   id="svg5"
   inkscape:version="1.3.2 (091e20ef0f, 2023-11-25)"
   sodipodi:docname="logo.inkscape.svg"
   xmlns:inkscape="http://www.inkscape.org/namespaces/inkscape"
   xmlns:sodipodi="http://sodipodi.sourceforge.net/DTD/sodipodi-0.dtd"
   xmlns:xlink="http://www.w3.org/1999/xlink"
   xmlns="http://www.w3.org/2000/svg"
   xmlns:svg="http://www.w3.org/2000/svg">
  <sodipodi:namedview
     id="namedview7"
     pagecolor="#ffffff"
     bordercolor="#000000"
     borderopacity="0.25"
     inkscape:showpageshadow="2"
     inkscape:pageopacity="0.0"
     inkscape:pagecheckerboard="true"
     inkscape:deskcolor="#d1d1d1"
     inkscape:document-units="px"
     showgrid="false"
     inkscape:zoom="0.82214484"
     inkscape:cx="596.6102"
     inkscape:cy="329.62562"
     inkscape:window-width="1920"
     inkscape:window-height="1014"
     inkscape:window-x="0"
     inkscape:window-y="0"
     inkscape:window-maximized="1"
     inkscape:current-layer="background_layer"
     labelstyle="default"
     inkscape:clip-to-page="false" />
  <defs
     id="defs2">
    <linearGradient
       id="linearGradient1"
       inkscape:collect="always">
      <stop
         style="stop-color:#5a00a6;stop-opacity:1;"
         offset="0"
         id="stop1" />
      <stop
         style="stop-color:#0e0e0e;stop-opacity:1;"
         offset="0.5"
         id="stop3" />
      <stop
         style="stop-color:#730070;stop-opacity:1;"
         offset="1"
         id="stop2" />
    </linearGradient>
    <inkscape:path-effect
       effect="bool_op"
       operand-path="#path335"
       id="path-effect1002"
       is_visible="true"
       lpeversion="1"
       operation="diff"
       swap-operands="false"
       filltype-this="from-curve"
       filter=""
       filltype-operand="from-curve" />
    <inkscape:path-effect
       effect="powerclip"
       id="path-effect337"
       is_visible="true"
       lpeversion="1"
       inverse="true"
       flatten="false"
       hide_clip="false"
       message="Use fill-rule evenodd on &lt;b&gt;fill and stroke&lt;/b&gt; dialog if no flatten result after convert clip to paths." />
    <inkscape:path-effect
       effect="powerclip"
       id="path-effect328"
       is_visible="true"
       lpeversion="1"
       inverse="true"
       flatten="false"
       hide_clip="false"
       message="Use fill-rule evenodd on &lt;b&gt;fill and stroke&lt;/b&gt; dialog if no flatten result after convert clip to paths." />
    <inkscape:path-effect
       effect="bool_op"
       operand-path="#rect6219"
       id="path-effect1975"
       is_visible="true"
       lpeversion="1.2"
       operation="diff"
       swap-operands="false"
       filltype-this="from-curve"
       filter=""
       filltype-operand="from-curve" />
    <inkscape:path-effect
       effect="clone_original"
       linkeditem=""
       id="path-effect1973"
       is_visible="true"
       lpeversion="1"
       method="originald"
       attributes=""
       css_properties=""
       allow_transforms="true" />
    <inkscape:path-effect
       effect="bool_op"
       operand-path=""
       id="path-effect1971"
       is_visible="true"
       lpeversion="1"
       operation="union"
       swap-operands="false"
       filltype-this="from-curve"
       filter=""
       filltype-operand="from-curve" />
    <inkscape:path-effect
       effect="bool_op"
       operand-path="#layer5"
       id="path-effect1895"
       is_visible="true"
       lpeversion="1"
       operation="inters"
       swap-operands="false"
       filltype-this="from-curve"
       filter=""
       filltype-operand="from-curve" />
    <inkscape:path-effect
       effect="mirror_symmetry"
       start_point="123.42741,311.49757"
       end_point="1068.1281,-633.20316"
       center_point="595.77778,-160.85279"
       id="path-effect1305"
       is_visible="true"
       lpeversion="1.2"
       lpesatellites=""
       mode="horizontal"
       discard_orig_path="false"
       fuse_paths="true"
       oposite_fuse="false"
       split_items="false"
       split_open="false"
       link_styles="true" />
    <inkscape:path-effect
       effect="clone_original"
       linkeditem=""
       method="bsplinespiro"
       allow_transforms="false"
       id="path-effect999"
       lpeversion="1" />
    <inkscape:path-effect
       effect="bool_op"
       operand-path="#rect6219"
       id="path-effect4319"
       is_visible="true"
       lpeversion="1"
       operation="diff"
       swap-operands="false"
       filltype-this="from-curve"
       filter=""
       filltype-operand="from-curve" />
    <inkscape:path-effect
       effect="bool_op"
       operand-path="#rect1181"
       id="path-effect446"
       is_visible="true"
       lpeversion="1.2"
       operation="inters"
       swap-operands="false"
       filltype-this="from-curve"
       filter=""
       filltype-operand="from-curve" />
    <inkscape:path-effect
       effect="bool_op"
       operand-path=""
       id="path-effect387"
       is_visible="true"
       lpeversion="1"
       operation="inters"
       swap-operands="false"
       filltype-this="from-curve"
       filter=""
       filltype-operand="from-curve" />
    <inkscape:path-effect
       effect="bool_op"
       operand-path=""
       id="path-effect8748"
       is_visible="true"
       lpeversion="1.2"
       operation="diff"
       swap-operands="false"
       filltype-this="from-curve"
       filter=""
       filltype-operand="from-curve" />
    <inkscape:path-effect
       effect="mirror_symmetry"
       start_point="762.48181,-197.67965"
       end_point="762.48181,275.13351"
       center_point="762.48181,38.726929"
       id="path-effect8623"
       is_visible="true"
       lpeversion="1.2"
       lpesatellites=""
       mode="vertical"
       discard_orig_path="false"
       fuse_paths="true"
       oposite_fuse="true"
       split_items="false"
       split_open="false"
       link_styles="true" />
    <inkscape:path-effect
       effect="mirror_symmetry"
       start_point="-436.94654,38.726932"
       end_point="852.01,38.726932"
       center_point="207.53009,38.726932"
       id="path-effect8613"
       is_visible="true"
       lpeversion="1.2"
       lpesatellites=""
       mode="horizontal"
       discard_orig_path="false"
       fuse_paths="true"
       oposite_fuse="false"
       split_items="false"
       split_open="false"
       link_styles="true" />
    <filter
       id="selectable_hidder_filter"
       width="1.0038982"
       height="1.0038982"
       x="-0.0019490928"
       y="-0.0019491362"
       style="color-interpolation-filters:sRGB"
       inkscape:label="LPE boolean visibility">
      <feComposite
         id="boolops_hidder_primitive"
         result="composite1"
         operator="arithmetic"
         in2="SourceGraphic"
         in="BackgroundImage"
         k1="0"
         k2="0"
         k3="0"
         k4="0" />
    </filter>
    <inkscape:path-effect
       effect="bool_op"
       operand-path=""
       id="path-effect8510"
       is_visible="true"
       lpeversion="1"
       operation="inters"
       swap-operands="false"
       filltype-this="from-curve"
       filter=""
       filltype-operand="from-curve" />
    <linearGradient
       id="shapes">
      <stop
         style="stop-color:#5c00ff;stop-opacity:1;"
         offset="0.15418811"
         id="stop6428" />
      <stop
         style="stop-color:#ff0089;stop-opacity:1;"
         offset="1"
         id="stop6430" />
    </linearGradient>
    <linearGradient
       id="shapes-1">
      <stop
         style="stop-color:#8e00ff;stop-opacity:1;"
         offset="0.05745342"
         id="stop6423" />
      <stop
         style="stop-color:#ff3800;stop-opacity:1;"
         offset="1"
         id="stop6425" />
    </linearGradient>
    <inkscape:path-effect
       effect="tiling"
       id="path-effect5856"
       is_visible="true"
       lpeversion="1"
       unit="px"
       seed="1;1"
       lpesatellites=""
       num_rows="3"
       num_cols="3"
       gapx="0"
       gapy="0"
       offset="0"
       offset_type="false"
       scale="0"
       rotate="0"
       mirrorrowsx="false"
       mirrorrowsy="false"
       mirrorcolsx="false"
       mirrorcolsy="false"
       mirrortrans="false"
       shrink_interp="false"
       split_items="false"
       link_styles="false"
       interpolate_scalex="false"
       interpolate_scaley="true"
       interpolate_rotatex="false"
       interpolate_rotatey="true"
       random_scale="false"
       random_rotate="false"
       random_gap_y="false"
       random_gap_x="false"
       transformorigin="translate(519.00438,36.512097)" />
    <inkscape:path-effect
       effect="tiling"
       id="path-effect1559"
       is_visible="true"
       lpeversion="1"
       unit="px"
       seed="1;1"
       lpesatellites=""
       num_rows="5"
       num_cols="12"
       gapx="2.5"
       gapy="2.5"
       offset="0"
       offset_type="false"
       scale="-6"
       rotate="0"
       mirrorrowsx="false"
       mirrorrowsy="false"
       mirrorcolsx="false"
       mirrorcolsy="false"
       mirrortrans="false"
       shrink_interp="false"
       split_items="false"
       link_styles="false"
       interpolate_scalex="true"
       interpolate_scaley="true"
       interpolate_rotatex="true"
       interpolate_rotatey="true"
       random_scale="false"
       random_rotate="false"
       random_gap_y="false"
       random_gap_x="false"
       transformorigin="translate(800.78501,24.004726)" />
    <inkscape:path-effect
       effect="clone_original"
       linkeditem=""
       id="path-effect1557"
       is_visible="true"
       lpeversion="1"
       method="d"
       attributes=""
       css_properties=""
       allow_transforms="true" />
    <inkscape:path-effect
       effect="tiling"
       id="path-effect1551"
       is_visible="true"
       lpeversion="1"
       unit="px"
       seed="1;1"
       lpesatellites=""
       num_rows="9"
       num_cols="17"
       gapx="15"
       gapy="15"
       offset="0"
       offset_type="false"
       scale="0"
       rotate="0"
       mirrorrowsx="false"
       mirrorrowsy="false"
       mirrorcolsx="false"
       mirrorcolsy="false"
       mirrortrans="false"
       shrink_interp="false"
       split_items="false"
       link_styles="false"
       interpolate_scalex="false"
       interpolate_scaley="false"
       interpolate_rotatex="false"
       interpolate_rotatey="true"
       random_scale="false"
       random_rotate="false"
       random_gap_y="false"
       random_gap_x="false"
       transformorigin="translate(519.00436,36.512097)" />
    <inkscape:path-effect
       effect="offset"
       id="path-effect1549"
       is_visible="true"
       lpeversion="1.2"
       linejoin_type="bevel"
       unit="px"
       offset="13.7"
       miter_limit="4"
       attempt_force_join="false"
       update_on_knot_move="true" />
    <inkscape:path-effect
       effect="bounding_box"
       id="path-effect1547"
       is_visible="true"
       lpeversion="1"
       linkedpath=""
       visualbounds="false" />
    <inkscape:path-effect
       effect="fillet_chamfer"
       id="path-effect727"
       is_visible="true"
       lpeversion="1"
       nodesatellites_param="F,1,0,1,0,0.1,0,1 @ F,1,0,1,0,0.1,0,1 @ F,1,0,1,0,0.1,0,1 @ F,1,0,1,0,0.1,0,1 @ F,1,0,1,0,0.1,0,1 @ F,1,0,1,0,0.1,0,1"
       unit="px"
       method="auto"
       mode="F"
       radius="10"
       chamfer_steps="1"
       flexible="true"
       use_knot_distance="true"
       apply_no_radius="true"
       apply_with_radius="true"
       only_selected="false"
       hide_knots="false" />
    <rect
       x="202.05354"
       y="138.06992"
       width="437.94646"
       height="98.781725"
       id="rect6067" />
    <linearGradient
       id="linearGradient1297">
      <stop
         style="stop-color:#1d0064;stop-opacity:1;"
         offset="0"
         id="stop5434" />
      <stop
         style="stop-color:#130032;stop-opacity:1;"
         offset="1"
         id="stop5436" />
    </linearGradient>
    <inkscape:path-effect
       effect="tiling"
       id="path-effect1446"
       is_visible="true"
       lpeversion="1"
       unit="px"
       seed="1;1"
       lpesatellites=""
       num_rows="32"
       num_cols="62"
       gapx="50"
       gapy="50"
       offset="0"
       offset_type="false"
       scale="3"
       rotate="0"
       mirrorrowsx="false"
       mirrorrowsy="false"
       mirrorcolsx="false"
       mirrorcolsy="false"
       mirrortrans="false"
       shrink_interp="false"
       split_items="false"
       link_styles="true"
       interpolate_scalex="false"
       interpolate_scaley="true"
       interpolate_rotatex="false"
       interpolate_rotatey="true"
       random_scale="false"
       random_rotate="false"
       random_gap_y="false"
       random_gap_x="false"
       transformorigin="" />
    <inkscape:path-effect
       effect="construct_grid"
       id="path-effect1444"
       is_visible="true"
       lpeversion="1"
       nr_x="5"
       nr_y="5" />
    <linearGradient
       id="linearGradient1297-1">
      <stop
         style="stop-color:#000000;stop-opacity:0.48907104;"
         offset="0"
         id="stop1293" />
      <stop
         style="stop-color:#130032;stop-opacity:0;"
         offset="1"
         id="stop1295" />
    </linearGradient>
    <radialGradient
       inkscape:collect="always"
       xlink:href="#shapes"
       id="radialGradient8472"
       cx="180.14062"
       cy="4.0151939"
       fx="180.14062"
       fy="4.0151939"
       r="409.32367"
       gradientTransform="matrix(1.0454651,0,-6.6690101e-7,0.45679457,-8.190099,41.564318)"
       gradientUnits="userSpaceOnUse" />
    <filter
       id="selectable_hidder_filter-3"
       width="1.0015851"
       height="1.0015851"
       x="-0.00079254614"
       y="-0.00079254614"
       style="color-interpolation-filters:sRGB"
       inkscape:label="LPE boolean visibility">
      <feComposite
         id="boolops_hidder_primitive-6"
         result="composite1"
         operator="arithmetic"
         in2="SourceGraphic"
         in="BackgroundImage"
         k1="0"
         k2="0"
         k3="0"
         k4="0" />
    </filter>
    <inkscape:path-effect
       effect="bool_op"
       operand-path=""
       id="path-effect1002-7"
       is_visible="true"
       lpeversion="1"
       operation="diff"
       swap-operands="false"
       filltype-this="from-curve"
       filter="selectable_hidder_filter-3"
       filltype-operand="from-curve" />
    <filter
       id="filter1262"
       width="1"
       height="1"
       x="0"
       y="0"
       style="color-interpolation-filters:sRGB"
       inkscape:label="LPE boolean visibility">
      <feComposite
         id="feComposite1260"
         result="composite1"
         operator="arithmetic"
         in2="SourceGraphic"
         in="BackgroundImage"
         k1="0"
         k2="0"
         k3="0"
         k4="0" />
    </filter>
    <linearGradient
       inkscape:collect="always"
       xlink:href="#linearGradient1"
       id="linearGradient2"
       x1="145.09525"
       y1="-213.46306"
       x2="1227.3953"
       y2="826.1366"
       gradientUnits="userSpaceOnUse" />
    <filter
       style="color-interpolation-filters:sRGB"
       id="filter3"
       inkscape:label="inner blur"
       x="-0.05625"
       y="-0.1125"
       width="1.1125"
       height="1.225">
      <feGaussianBlur
         stdDeviation="30"
         id="feGaussianBlur5"
         result="result1" />
      <feColorMatrix
         id="feColorMatrix6"
         values="0.70000000 0.0000000 0.0000000 0.0000000 0.0000000 0.0000000 0.70000000 0.0000000 0.0000000 0.0000000 0.0000000 0.0000000 0.70000000 0.0000000 0.0000000 0.0000000 0.0000000 0.0000000 0.60000000 0.0000000 "
         result="result3" />
      <feBlend
         mode="color-dodge"
         id="feBlend6"
         in2="SourceGraphic"
         result="result2"
         in="result3" />
      <feComposite
         id="feComposite6"
         in="result2"
         operator="over"
         in2="SourceGraphic" />
    </filter>
  </defs>
  <g
     inkscape:groupmode="layer"
     id="background_layer"
     inkscape:label="background"
     style="display:inline">
    <rect
       style="display:inline;opacity:1;fill:url(#linearGradient2);fill-opacity:1;stroke-width:0.903725;filter:url(#filter3)"
       id="rect1"
       width="1280"
       height="640"
       x="0"
       y="0" />
  </g>
  <g
     inkscape:groupmode="layer"
     id="layer3"
     inkscape:label="shapes"
     style="display:none;fill:#f2f2f2"
     clip-path="none"
     transform="matrix(0.98354075,0,0,1,3.423333,0)"
     sodipodi:insensitive="true">
    <path
       style="display:inline;fill:#000000;fill-opacity:0.0914827;stroke:#00ff00;stroke-width:1.00833;stroke-dasharray:none"
       d="m 707.03431,248.59223 -1.12335,144.73592 -96.04593,-1.10486 4.49341,141.97379 219.61371,11.04854 1.12334,-53.58543 h 83.1274 l -0.56163,-49.16602 85.93584,1.10485 1.685,-50.27087 87.6207,-3.31456 2.8083,-48.6136 43.8105,-0.55242 0.5617,-42.5369 -46.6187,-3.31456 -1.1234,-44.19417 -86.4975,-1.10486 -1.685,-49.71844 -82.00407,-1.65728 -1.68501,-43.08932 -86.49747,-2.76214 0.56168,-45.85146 -216.80535,-3.86698 -6.17835,145.28834 z"
       id="path2"
       inkscape:label="shape clip" />
    <path
       id="path1"
       class="UnoptimicedTransforms"
       transform="matrix(1.0096723,0,0,1.0096723,437.6922,280.89849)"
       clip-path="none"
       d="m 200.36914,15.994141 c -0.6985,0 -1.39561,0.181617 -2.02148,0.542968 l -16.1836,9.34375 c -1.25175,0.722702 -2.02343,2.056549 -2.02344,3.501953 v 9.34375 9.34375 c 10e-6,1.445405 0.77169,2.781205 2.02344,3.503907 l 16.1836,9.34375 c 1.25175,0.722702 2.79316,0.722702 4.04492,0 l 16.18359,-9.34375 c 1.25176,-0.722702 2.02149,-2.058502 2.02149,-3.503907 v -9.34375 -9.34375 c 0,-1.445404 -0.76973,-2.779251 -2.02149,-3.501953 l -16.18359,-9.34375 c -0.62588,-0.361351 -1.32494,-0.542968 -2.02344,-0.542968 z m 42.95898,1.365234 c -0.65658,0 -1.31401,0.168143 -1.90234,0.507812 l -15.21289,8.783204 c -1.17665,0.67934 -1.90039,1.934288 -1.90039,3.292968 v 8.783203 8.783204 c 0,1.35868 0.72374,2.613628 1.90039,3.292968 l 15.21289,8.783203 c 1.17665,0.67934 2.62608,0.67934 3.80274,0 l 15.21289,-8.783203 c 1.17665,-0.67934 1.90039,-1.934288 1.90039,-3.292968 v -8.783204 -8.783203 c 0,-1.35868 -0.72374,-2.613628 -1.90039,-3.292968 l -15.21289,-8.783204 c -0.58833,-0.339669 -1.24381,-0.507812 -1.9004,-0.507812 z m 42.95704,1.363281 c -0.61468,0 -1.23048,0.158574 -1.78125,0.476563 l -14.24024,8.222656 c -1.10154,0.635978 -1.78125,1.810076 -1.78125,3.082031 v 8.222656 8.222657 c 0,1.271955 0.67971,2.448006 1.78125,3.083984 l 14.24024,8.220703 c 1.10154,0.635978 2.459,0.635978 3.56054,0 l 14.24219,-8.220703 c 1.10155,-0.635978 1.7793,-1.812029 1.7793,-3.083984 v -8.222657 -8.222656 c 0,-1.271955 -0.67775,-2.446053 -1.7793,-3.082031 l -14.24219,-8.222656 c -0.55077,-0.317989 -1.16462,-0.476563 -1.77929,-0.476563 z m 42.95703,1.363281 c -0.57277,0 -1.14499,0.149005 -1.65821,0.445313 l -13.27148,7.662109 c -1.02644,0.592616 -1.6582,1.687816 -1.6582,2.873047 v 7.660156 7.66211 c 0,1.185231 0.63176,2.280431 1.6582,2.873047 l 13.27148,7.662109 c 1.02644,0.592616 2.28997,0.592616 3.31641,0 l 13.27148,-7.662109 c 1.02645,-0.592616 1.65821,-1.687816 1.65821,-2.873047 v -7.66211 -7.660156 c 0,-1.185231 -0.63176,-2.280431 -1.65821,-2.873047 L 330.90039,20.53125 c -0.51322,-0.296308 -1.08544,-0.445312 -1.6582,-0.445313 z m 42.95703,1.365235 c -0.53086,0 -1.06144,0.137482 -1.53711,0.412109 l -12.29883,7.09961 c -0.95133,0.549253 -1.53711,1.565555 -1.53711,2.664062 v 7.099609 7.101563 c 0,1.098507 0.58578,2.112856 1.53711,2.662109 l 12.29883,7.101563 c 0.95133,0.549253 2.12288,0.549253 3.07422,0 l 12.29883,-7.101563 c 0.95133,-0.549253 1.53906,-1.563602 1.53906,-2.662109 v -7.101563 -7.099609 c 0,-1.098507 -0.58773,-2.114809 -1.53906,-2.664062 l -12.29883,-7.09961 c -0.47567,-0.274627 -1.00625,-0.412109 -1.53711,-0.412109 z m 42.95703,1.363281 c -0.48895,0 -0.9779,0.125961 -1.41602,0.378906 l -11.32812,6.541016 c -0.87623,0.505891 -1.41602,1.441342 -1.41602,2.453125 v 6.539062 6.541016 c 0,1.011783 0.53979,1.947234 1.41602,2.453125 l 11.32812,6.539063 c 0.87623,0.505891 1.95581,0.505891 2.83204,0 l 11.32812,-6.539063 c 0.87623,-0.505891 1.41602,-1.441342 1.41602,-2.453125 V 38.726562 32.1875 c 0,-1.011783 -0.53979,-1.947234 -1.41602,-2.453125 l -11.32812,-6.541016 c -0.43812,-0.252945 -0.92707,-0.378906 -1.41602,-0.378906 z m 42.95898,1.363281 c -0.44703,0 -0.89436,0.116392 -1.29492,0.347657 l -10.35742,5.978515 c -0.80112,0.46253 -1.29492,1.319082 -1.29492,2.244141 v 5.978515 5.980469 c 0,0.925059 0.4938,1.779658 1.29492,2.242188 l 10.35742,5.978515 c 0.80113,0.46253 1.78677,0.46253 2.58789,0 l 10.35742,-5.978515 c 0.80113,-0.46253 1.29493,-1.317129 1.29493,-2.242188 v -5.980469 -5.978515 c 0,-0.925059 -0.4938,-1.781611 -1.29493,-2.244141 L 459.4082,24.525391 c -0.40056,-0.231265 -0.84593,-0.347657 -1.29297,-0.347657 z m 42.95704,1.365235 c -0.40513,0 -0.81082,0.104869 -1.17383,0.314453 l -9.38672,5.417969 c -0.72602,0.419167 -1.17188,1.194868 -1.17188,2.033203 v 5.417968 5.419922 c 0,0.838335 0.44586,1.612083 1.17188,2.03125 l 9.38672,5.419922 c 0.72602,0.419167 1.62163,0.419167 2.34765,0 l 9.38477,-5.419922 c 0.72602,-0.419167 1.17383,-1.192915 1.17383,-2.03125 v -5.419922 -5.417968 c 0,-0.838335 -0.44781,-1.614036 -1.17383,-2.033203 l -9.38477,-5.417969 c -0.36301,-0.209584 -0.7687,-0.314453 -1.17382,-0.314453 z m 42.95703,1.363281 c -0.36322,0 -0.72728,0.09335 -1.05274,0.28125 l -8.41406,4.859375 c -0.65091,0.375805 -1.05273,1.070655 -1.05273,1.822266 v 4.857421 4.859375 c 0,0.751611 0.40182,1.446461 1.05273,1.822266 l 8.41406,4.857422 c 0.65092,0.375805 1.45456,0.375805 2.10547,0 l 8.41406,-4.857422 c 0.65092,-0.375805 1.05274,-1.070655 1.05274,-1.822266 v -4.859375 -4.857421 c 0,-0.751611 -0.40182,-1.446461 -1.05274,-1.822266 L 545.08203,27.1875 c -0.32546,-0.187903 -0.68952,-0.28125 -1.05273,-0.28125 z m 42.95703,1.363281 c -0.32131,0 -0.64179,0.08378 -0.92969,0.25 l -7.44531,4.296875 c -0.57581,0.332443 -0.92969,0.948396 -0.92969,1.613281 v 4.296875 4.298829 c 0,0.664886 0.35388,1.278885 0.92969,1.611328 l 7.44531,4.296875 c 0.57581,0.332443 1.28552,0.332443 1.86133,0 l 7.44336,-4.296875 c 0.57581,-0.332443 0.93164,-0.946442 0.93164,-1.611328 v -4.298829 -4.296875 c 0,-0.664885 -0.35583,-1.280838 -0.93164,-1.613281 l -7.44336,-4.296875 c -0.28791,-0.166221 -0.61033,-0.25 -0.93164,-0.25 z m 42.95703,1.365235 c -0.2794,0 -0.55824,0.07226 -0.80859,0.216796 l -6.47266,3.736329 c -0.5007,0.28908 -0.80859,0.824182 -0.80859,1.402343 v 3.736328 3.738282 c 0,0.578161 0.30789,1.11131 0.80859,1.40039 l 6.47266,3.738282 c 0.5007,0.28908 1.11843,0.28908 1.61914,0 l 6.47265,-3.738282 c 0.50071,-0.28908 0.8086,-0.822229 0.8086,-1.40039 v -3.738282 -3.736328 c 0,-0.578161 -0.30789,-1.113263 -0.8086,-1.402343 l -6.47265,-3.736329 c -0.25036,-0.14454 -0.53115,-0.216796 -0.81055,-0.216796 z m 42.95898,1.363281 c -0.23748,0 -0.4747,0.06073 -0.6875,0.183594 l -5.5039,3.177734 c -0.4256,0.245719 -0.6875,0.699969 -0.6875,1.191406 v 3.175781 3.177735 c 0,0.491437 0.2619,0.945687 0.6875,1.191406 l 5.5039,3.175781 c 0.4256,0.245719 0.94941,0.245719 1.375,0 l 5.50196,-3.175781 c 0.42559,-0.245719 0.6875,-0.699969 0.6875,-1.191406 v -3.177735 -3.175781 c 0,-0.491437 -0.26191,-0.945687 -0.6875,-1.191406 l -5.50196,-3.177734 c -0.21279,-0.12286 -0.45001,-0.183594 -0.6875,-0.183594 z M 219.38477,77.908761 v 17.565307 c 0,1.358681 -0.72485,2.614155 -1.9015,3.293495 l -15.212,8.782657 c -1.17666,0.67934 -2.62635,0.67934 -3.803,0 l -15.21201,-8.782656 c -1.17665,-0.679341 -1.9015,-1.934814 -1.9015,-3.293496 V 77.908761 c 0,-1.358682 0.72485,-2.614155 1.9015,-3.293495 l 15.21201,-8.782654 c 1.17665,-0.679341 2.62634,-0.679341 3.803,0 l 15.212,8.782653 c 1.17665,0.679341 1.9015,1.934814 1.9015,3.293496 z m 0,-78.36365857 V -18.020205 c 0,-1.358681 -0.72485,-2.614155 -1.9015,-3.293495 l -15.212,-8.782654 c -1.17666,-0.679341 -2.62635,-0.679341 -3.803,0 l -15.21201,8.782653 c -1.17665,0.679341 -1.9015,1.934814 -1.9015,3.293496 v 17.56530726 c 0,1.35868128 0.72485,2.61415454 1.9015,3.29349524 l 15.21201,8.7826535 c 1.17665,0.679341 2.62634,0.679341 3.803,0 l 15.212,-8.7826534 c 1.17665,-0.6793406 1.9015,-1.93481389 1.9015,-3.29349517 z M 261.1285,78.469355 v 16.444118 c 0,1.271957 -0.67858,2.447294 -1.78013,3.083272 l -14.24102,8.222055 c -1.10155,0.63598 -2.45871,0.63598 -3.56026,0 l -14.24102,-8.222054 c -1.10155,-0.635979 -1.78013,-1.811316 -1.78013,-3.083273 V 78.469356 c 0,-1.271957 0.67858,-2.447294 1.78013,-3.083272 l 14.24102,-8.222059 c 1.10155,-0.635979 2.45871,-0.635979 3.56026,0 l 14.24102,8.222058 c 1.10155,0.635979 1.78013,1.811316 1.78013,3.083272 z m 0,-79.4848475 V -17.45961 c 0,-1.271957 -0.67858,-2.447294 -1.78013,-3.083272 l -14.24102,-8.222059 c -1.10155,-0.635979 -2.45871,-0.635979 -3.56026,0 l -14.24102,8.222058 c -1.10155,0.635979 -1.78013,1.811316 -1.78013,3.083273 v 16.4441173 c 0,1.27195698 0.67858,2.4472937 1.78013,3.0832721 l 14.24102,8.2220586 c 1.10155,0.635979 2.45871,0.635979 3.56026,0 l 14.24102,-8.2220584 c 1.10155,-0.6359785 1.78013,-1.81131516 1.78013,-3.0832721 z M 302.87223,79.02995 v 15.322928 c 0,1.185233 -0.63231,2.280433 -1.65876,2.873049 l -13.27004,7.661463 c -1.02644,0.59262 -2.29107,0.59262 -3.31751,0 l -13.27005,-7.661462 c -1.02644,-0.592617 -1.65875,-1.687817 -1.65875,-2.873049 V 79.029951 c 0,-1.185233 0.63231,-2.280433 1.65875,-2.873049 l 13.27005,-7.661464 c 1.02644,-0.592617 2.29107,-0.592617 3.31751,0 l 13.27004,7.661463 c 1.02645,0.592617 1.65876,1.687817 1.65876,2.873049 z m 0,-80.6060374 V -16.899015 c 0,-1.185233 -0.63231,-2.280433 -1.65876,-2.873049 l -13.27004,-7.661464 c -1.02644,-0.592617 -2.29107,-0.592617 -3.31751,0 l -13.27005,7.661463 c -1.02644,0.592617 -1.65875,1.687817 -1.65875,2.873049 v 15.3229284 c 0,1.18523263 0.63231,2.28043272 1.65875,2.873049 l 13.27005,7.6614641 c 1.02644,0.5926163 2.29107,0.5926163 3.31751,0 l 13.27004,-7.6614639 c 1.02645,-0.59261634 1.65876,-1.68781643 1.65876,-2.873049 z m 41.74373,81.1666324 v 14.201738 c 0,1.098509 -0.58605,2.113572 -1.53738,2.662826 l -12.29907,7.100871 c -0.95133,0.54925 -2.12343,0.54925 -3.07477,0 l -12.29906,-7.100871 c -0.95134,-0.549254 -1.53738,-1.564317 -1.53738,-2.662825 V 79.590545 c 0,-1.098508 0.58604,-2.113571 1.53738,-2.662825 l 12.29906,-7.10087 c 0.95134,-0.549254 2.12344,-0.549254 3.07477,0 l 12.29907,7.100869 c 0.95133,0.549255 1.53738,1.564318 1.53738,2.662826 z m 0,-81.7272274 V -16.33842 c 0,-1.098509 -0.58605,-2.113572 -1.53738,-2.662826 l -12.29907,-7.100869 c -0.95133,-0.549255 -2.12343,-0.549255 -3.07477,0 l -12.29906,7.100869 c -0.95134,0.549254 -1.53738,1.564317 -1.53738,2.662825 v 14.2017385 c 0,1.0985083 0.58604,2.11357177 1.53738,2.66282591 l 12.29906,7.10086909 c 0.95134,0.5492541 2.12344,0.5492542 3.07477,0 l 12.29907,-7.10086897 c 0.95133,-0.54925413 1.53738,-1.56431763 1.53738,-2.66282593 z M 386.35969,80.15114 v 13.080549 c 0,1.011783 -0.53978,1.94671 -1.41601,2.452602 l -11.32809,6.540279 c -0.87623,0.50589 -1.95579,0.50589 -2.83202,0 l -11.32809,-6.540279 c -0.87623,-0.505892 -1.41601,-1.440818 -1.41601,-2.452602 V 80.15114 c 0,-1.011784 0.53978,-1.94671 1.41601,-2.452602 l 11.32809,-6.540275 c 0.87623,-0.505892 1.95579,-0.505892 2.83202,0 l 11.32809,6.540274 c 0.87623,0.505892 1.41601,1.440819 1.41601,2.452603 z m 0,-82.8484173 V -15.777826 c 0,-1.011783 -0.53978,-1.94671 -1.41601,-2.452602 l -11.32809,-6.540275 c -0.87623,-0.505891 -1.95579,-0.505891 -2.83202,0 l -11.32809,6.540275 c -0.87623,0.505892 -1.41601,1.440818 -1.41601,2.452602 v 13.0805486 c 0,1.0117839 0.53978,1.94671082 1.41601,2.45260279 l 11.32809,6.54027421 c 0.87623,0.5058919 1.95579,0.5058919 2.83202,0 l 11.32809,-6.5402741 c 0.87623,-0.50589196 1.41601,-1.4408189 1.41601,-2.4526028 z m 41.74373,83.4090123 v 11.959359 c 0,0.925059 -0.49351,1.77985 -1.29464,2.242379 l -10.35711,5.979677 c -0.80112,0.46253 -1.78815,0.46253 -2.58927,0 l -10.35711,-5.979677 c -0.80113,-0.462529 -1.29464,-1.31732 -1.29464,-2.242379 V 80.711735 c 0,-0.925059 0.49351,-1.77985 1.29464,-2.242379 l 10.35711,-5.97968 c 0.80112,-0.462529 1.78815,-0.462529 2.58927,0 l 10.35711,5.97968 c 0.80113,0.462529 1.29464,1.31732 1.29464,2.242379 z m 0,-83.9696072 V -15.217231 c 0,-0.925059 -0.49351,-1.77985 -1.29464,-2.242379 l -10.35711,-5.97968 c -0.80112,-0.462529 -1.78815,-0.462529 -2.58927,0 l -10.35711,5.97968 c -0.80113,0.462529 -1.29464,1.31732 -1.29464,2.242379 v 11.9593587 c 0,0.9250596 0.49351,1.7798499 1.29464,2.2423797 l 10.35711,5.9796792 c 0.80112,0.4625298 1.78815,0.4625298 2.58927,0 l 10.35711,-5.9796791 c 0.80113,-0.4625298 1.29464,-1.3173201 1.29464,-2.2423797 z M 469.84715,81.27233 v 10.838169 c 0,0.838335 -0.44725,1.612989 -1.17326,2.032156 l -9.38613,5.419085 c -0.72602,0.419167 -1.62052,0.419167 -2.34654,0 l -9.38613,-5.419085 c -0.72602,-0.419167 -1.17326,-1.193821 -1.17326,-2.032156 V 81.27233 c 0,-0.838335 0.44724,-1.612989 1.17326,-2.032156 l 9.38613,-5.419085 c 0.72602,-0.419167 1.62052,-0.419167 2.34654,0 l 9.38613,5.419085 c 0.72601,0.419167 1.17326,1.193821 1.17326,2.032156 z m 0,-85.0907971 V -14.656636 c 0,-0.838335 -0.44725,-1.612989 -1.17326,-2.032156 l -9.38613,-5.419085 c -0.72602,-0.419167 -1.62052,-0.419167 -2.34654,0 l -9.38613,5.419085 c -0.72602,0.419167 -1.17326,1.193821 -1.17326,2.032156 v 10.8381687 c 0,0.8383353 0.44724,1.612989 1.17326,2.0321567 l 9.38613,5.4190843 c 0.72602,0.4191676 1.62052,0.4191676 2.34654,0 l 9.38613,-5.4190843 c 0.72601,-0.4191676 1.17326,-1.1938213 1.17326,-2.0321565 z m 41.74373,85.6513921 v 9.716979 c 0,0.751611 -0.40098,1.446128 -1.05189,1.821933 l -8.41515,4.85849 c -0.65092,0.375805 -1.45288,0.375805 -2.10379,0 l -8.41515,-4.85849 c -0.65091,-0.375805 -1.05189,-1.070322 -1.05189,-1.821933 v -9.716979 c 0,-0.751611 0.40098,-1.446128 1.05189,-1.821933 l 8.41515,-4.85849 c 0.65091,-0.375805 1.45287,-0.375805 2.10379,0 l 8.41515,4.85849 c 0.65091,0.375805 1.05189,1.070322 1.05189,1.821933 z m 0,-86.2119871 v -9.7169789 c 0,-0.751611 -0.40098,-1.446128 -1.05189,-1.821933 l -8.41515,-4.85849 c -0.65092,-0.375805 -1.45288,-0.375805 -2.10379,0 l -8.41515,4.85849 c -0.65091,0.375805 -1.05189,1.070322 -1.05189,1.821933 v 9.7169788 c 0,0.7516109 0.40098,1.4461281 1.05189,1.8219335 l 8.41515,4.8584894 c 0.65091,0.3758055 1.45287,0.3758055 2.10379,0 l 8.41515,-4.8584893 c 0.65091,-0.3758054 1.05189,-1.0703226 1.05189,-1.8219335 z M 553.33461,82.39352 v 8.595789 c 0,0.664886 -0.35471,1.279267 -0.93052,1.61171 l -7.44417,4.297895 c -0.57581,0.332443 -1.28524,0.332443 -1.86104,0 l -7.44418,-4.297895 c -0.5758,-0.332443 -0.93052,-0.946823 -0.93052,-1.61171 V 82.39352 c 0,-0.664886 0.35472,-1.279267 0.93052,-1.61171 l 7.44418,-4.297895 c 0.5758,-0.332443 1.28523,-0.332443 1.86104,0 l 7.44417,4.297895 c 0.57581,0.332443 0.93052,0.946823 0.93052,1.61171 z m 0,-87.333177 v -8.595789 c 0,-0.664886 -0.35471,-1.279267 -0.93052,-1.61171 l -7.44417,-4.297895 c -0.57581,-0.332443 -1.28524,-0.332443 -1.86104,0 l -7.44418,4.297895 c -0.5758,0.332443 -0.93052,0.946823 -0.93052,1.61171 v 8.5957889 c 0,0.6648866 0.35472,1.2792671 0.93052,1.6117104 l 7.44418,4.29789448 c 0.5758,0.33244332 1.28523,0.33244332 1.86104,10e-9 l 7.44417,-4.29789439 c 0.57581,-0.3324433 0.93052,-0.9468238 0.93052,-1.6117104 z m 41.74373,87.893772 v 7.474599 c 0,0.578162 -0.30844,1.112406 -0.80915,1.401487 l -6.47319,3.7373 c -0.5007,0.289081 -1.11759,0.289081 -1.6183,0 l -6.47319,-3.7373 c -0.5007,-0.289081 -0.80915,-0.823325 -0.80915,-1.401487 v -7.474599 c 0,-0.578162 0.30845,-1.112406 0.80915,-1.401487 l 6.47319,-3.7373 c 0.50071,-0.289081 1.1176,-0.289081 1.6183,0 l 6.47319,3.7373 c 0.50071,0.289081 0.80915,0.823325 0.80915,1.401487 z m 0,-88.4543669 v -7.4745991 c 0,-0.578162 -0.30844,-1.112406 -0.80915,-1.401487 l -6.47319,-3.7373 c -0.5007,-0.289081 -1.11759,-0.289081 -1.6183,0 l -6.47319,3.7373 c -0.5007,0.289081 -0.80915,0.823325 -0.80915,1.401487 v 7.474599 c 0,0.5781622 0.30845,1.1124062 0.80915,1.4014873 l 6.47319,3.73729953 c 0.50071,0.28908113 1.1176,0.28908113 1.6183,10e-9 l 6.47319,-3.73729944 c 0.50071,-0.2890812 0.80915,-0.8233251 0.80915,-1.4014873 z M 636.82207,83.51471 v 6.353409 c 0,0.491438 -0.26218,0.945545 -0.68777,1.191264 l -5.50222,3.176705 c -0.4256,0.245719 -0.94995,0.245719 -1.37555,0 l -5.50221,-3.176705 c -0.4256,-0.245719 -0.68778,-0.699826 -0.68778,-1.191264 V 83.51471 c 0,-0.491438 0.26218,-0.945545 0.68778,-1.191264 l 5.50221,-3.176705 c 0.4256,-0.245719 0.94995,-0.245719 1.37555,0 l 5.50222,3.176705 c 0.42559,0.245719 0.68777,0.699826 0.68777,1.191264 z m 0,-89.5755569 v -6.3534091 c 0,-0.491438 -0.26218,-0.945545 -0.68777,-1.191264 l -5.50222,-3.176705 c -0.4256,-0.245719 -0.94995,-0.245719 -1.37555,0 l -5.50221,3.176705 c -0.4256,0.245719 -0.68778,0.699826 -0.68778,1.191264 v 6.3534091 c 0,0.4914379 0.26218,0.9455452 0.68778,1.1912642 l 5.50221,3.1767046 c 0.4256,0.2457189 0.94995,0.2457189 1.37555,0 l 5.50222,-3.1767046 c 0.42559,-0.2457189 0.68777,-0.6998263 0.68777,-1.1912642 z M 678.5658,84.075305 v 5.232219 c 0,0.404714 -0.21591,0.778684 -0.5664,0.981041 l -4.53124,2.61611 c -0.35049,0.202357 -0.78231,0.202357 -1.1328,0 l -4.53124,-2.61611 c -0.35049,-0.202357 -0.5664,-0.576327 -0.5664,-0.981041 v -5.232219 c 0,-0.404714 0.21591,-0.778684 0.5664,-0.981041 l 4.53124,-2.61611 c 0.35049,-0.202357 0.78231,-0.202357 1.1328,0 l 4.53124,2.61611 c 0.35049,0.202356 0.5664,0.576327 0.5664,0.981041 z m 0,-90.6967468 v -5.2322192 c 0,-0.404714 -0.21591,-0.778684 -0.5664,-0.981041 l -4.53124,-2.61611 c -0.35049,-0.202357 -0.78231,-0.202357 -1.1328,0 l -4.53124,2.61611 c -0.35049,0.202357 -0.5664,0.576327 -0.5664,0.981041 v 5.2322191 c 0,0.4047136 0.21591,0.7786844 0.5664,0.9810412 l 4.53124,2.6161096 c 0.35049,0.2023568 0.78231,0.2023568 1.1328,0 l 4.53124,-2.6161096 c 0.35049,-0.2023568 0.5664,-0.5763275 0.5664,-0.9810411 z M 218.17105,126.43384 v 16.44412 c 0,1.27196 -0.67858,2.44729 -1.78013,3.08327 l -14.24103,8.22206 c -1.10154,0.63598 -2.4587,0.63598 -3.56025,0 l -14.24103,-8.22206 c -1.10154,-0.63598 -1.78012,-1.81131 -1.78012,-3.08327 v -16.44412 c 0,-1.27196 0.67858,-2.44729 1.78012,-3.08327 l 14.24103,-8.22206 c 1.10155,-0.63598 2.45871,-0.63598 3.56025,0 l 14.24103,8.22206 c 1.10154,0.63598 1.78013,1.81131 1.78013,3.08327 z m 0,-175.413818 v -16.444118 c 0,-1.271957 -0.67858,-2.447294 -1.78013,-3.083272 l -14.24103,-8.222059 c -1.10154,-0.635979 -2.4587,-0.635979 -3.56025,0 l -14.24103,8.222059 c -1.10154,0.635978 -1.78012,1.811315 -1.78012,3.083272 v 16.444118 c 0,1.271957 0.67858,2.447293 1.78012,3.083272 l 14.24103,8.222059 c 1.10155,0.635978 2.45871,0.635978 3.56025,0 l 14.24103,-8.222059 c 1.10154,-0.635979 1.78013,-1.811315 1.78013,-3.083272 z m 41.74373,175.974418 v 15.32292 c 0,1.18524 -0.63232,2.28044 -1.65876,2.87305 l -13.27004,7.66147 c -1.02645,0.59261 -2.29107,0.59261 -3.31752,0 l -13.27004,-7.66147 c -1.02644,-0.59261 -1.65876,-1.68781 -1.65876,-2.87305 v -15.32292 c 0,-1.18524 0.63232,-2.28044 1.65876,-2.87305 l 13.27004,-7.66147 c 1.02645,-0.59261 2.29107,-0.59261 3.31752,0 l 13.27004,7.66147 c 1.02644,0.59261 1.65876,1.68781 1.65876,2.87305 z m 0,-176.535013 v -15.322928 c 0,-1.185233 -0.63232,-2.280433 -1.65876,-2.873049 l -13.27004,-7.661464 c -1.02645,-0.592616 -2.29107,-0.592616 -3.31752,0 l -13.27004,7.661464 c -1.02644,0.592616 -1.65876,1.687816 -1.65876,2.873049 v 15.322928 c 0,1.185232 0.63232,2.280432 1.65876,2.873049 l 13.27004,7.661464 c 1.02645,0.592616 2.29107,0.592616 3.31752,0 l 13.27004,-7.661464 c 1.02644,-0.592617 1.65876,-1.687817 1.65876,-2.873049 z m 41.74373,177.095603 v 14.20174 c 0,1.09851 -0.58605,2.11357 -1.53739,2.66283 l -12.29906,7.10086 c -0.95134,0.54926 -2.12343,0.54926 -3.07477,0 l -12.29907,-7.10086 c -0.95133,-0.54926 -1.53738,-1.56432 -1.53738,-2.66283 v -14.20174 c 0,-1.09851 0.58605,-2.11357 1.53738,-2.66282 l 12.29907,-7.10087 c 0.95134,-0.54926 2.12343,-0.54926 3.07477,0 l 12.29906,7.10087 c 0.95134,0.54925 1.53739,1.56431 1.53739,2.66282 z m 0,-177.656198 v -14.201738 c 0,-1.098508 -0.58605,-2.113572 -1.53739,-2.662826 l -12.29906,-7.100869 c -0.95134,-0.549254 -2.12343,-0.549254 -3.07477,0 l -12.29907,7.100869 c -0.95133,0.549254 -1.53738,1.564317 -1.53738,2.662826 v 14.201738 c 0,1.098508 0.58605,2.113572 1.53738,2.662826 l 12.29907,7.100869 c 0.95134,0.549254 2.12343,0.549254 3.07477,0 l 12.29906,-7.100869 c 0.95134,-0.549254 1.53739,-1.564318 1.53739,-2.662826 z m 41.74373,178.216798 v 13.08054 c 0,1.01179 -0.53978,1.94672 -1.41601,2.45261 l -11.32809,6.54027 c -0.87623,0.50589 -1.95579,0.50589 -2.83202,0 l -11.32809,-6.54027 c -0.87623,-0.50589 -1.41601,-1.44082 -1.41601,-2.45261 v -13.08054 c 0,-1.01179 0.53978,-1.94671 1.41601,-2.45261 l 11.32809,-6.54027 c 0.87623,-0.50589 1.95579,-0.50589 2.83202,0 l 11.32809,6.54027 c 0.87623,0.5059 1.41601,1.44082 1.41601,2.45261 z m 0,-178.777393 v -13.080548 c 0,-1.011784 -0.53978,-1.946711 -1.41601,-2.452603 l -11.32809,-6.540274 c -0.87623,-0.505892 -1.95579,-0.505892 -2.83202,0 l -11.32809,6.540274 c -0.87623,0.505892 -1.41601,1.440819 -1.41601,2.452603 v 13.080548 c 0,1.011784 0.53978,1.946711 1.41601,2.452603 l 11.32809,6.540274 c 0.87623,0.505892 1.95579,0.505892 2.83202,0 l 11.32809,-6.540274 c 0.87623,-0.505892 1.41601,-1.440819 1.41601,-2.452603 z m 41.74373,179.337983 v 11.95936 c 0,0.92506 -0.49352,1.77985 -1.29464,2.24238 l -10.35711,5.97968 c -0.80112,0.46253 -1.78815,0.46253 -2.58928,0 l -10.3571,-5.97968 c -0.80113,-0.46253 -1.29464,-1.31732 -1.29464,-2.24238 v -11.95936 c 0,-0.92506 0.49351,-1.77985 1.29464,-2.24238 l 10.3571,-5.97968 c 0.80113,-0.46253 1.78816,-0.46253 2.58928,0 l 10.35711,5.97968 c 0.80112,0.46253 1.29464,1.31732 1.29464,2.24238 z m 0,-179.898578 v -11.959358 c 0,-0.92506 -0.49352,-1.77985 -1.29464,-2.24238 l -10.35711,-5.979679 c -0.80112,-0.46253 -1.78815,-0.46253 -2.58928,0 l -10.3571,5.979679 c -0.80113,0.46253 -1.29464,1.31732 -1.29464,2.24238 v 11.959358 c 0,0.925059 0.49351,1.77985 1.29464,2.24238 l 10.3571,5.979679 c 0.80113,0.46253 1.78816,0.46253 2.58928,0 l 10.35711,-5.979679 c 0.80112,-0.46253 1.29464,-1.31732 1.29464,-2.24238 z M 426.8897,129.23682 v 10.83816 c 0,0.83834 -0.44725,1.61299 -1.17327,2.03216 l -9.38613,5.41909 c -0.72602,0.41916 -1.62051,0.41916 -2.34653,0 l -9.38613,-5.41909 c -0.72602,-0.41917 -1.17327,-1.19382 -1.17327,-2.03216 v -10.83816 c 0,-0.83834 0.44725,-1.61299 1.17327,-2.03216 l 9.38613,-5.41908 c 0.72602,-0.41917 1.62051,-0.41917 2.34653,0 l 9.38613,5.41908 c 0.72602,0.41917 1.17327,1.19382 1.17327,2.03216 z m 0,-181.019773 v -10.838168 c 0,-0.838336 -0.44725,-1.612989 -1.17327,-2.032157 l -9.38613,-5.419084 c -0.72602,-0.419168 -1.62051,-0.419168 -2.34653,0 l -9.38613,5.419084 c -0.72602,0.419167 -1.17327,1.193821 -1.17327,2.032156 v 10.838169 c 0,0.838335 0.44725,1.612989 1.17327,2.032157 l 9.38613,5.419084 c 0.72602,0.419168 1.62051,0.419168 2.34653,0 l 9.38613,-5.419084 c 0.72602,-0.419168 1.17327,-1.193822 1.17327,-2.032157 z m 41.74373,181.580363 v 9.71698 c 0,0.75161 -0.40098,1.44613 -1.0519,1.82193 l -8.41515,4.85849 c -0.65091,0.37581 -1.45287,0.37581 -2.10378,0 l -8.41515,-4.85849 c -0.65092,-0.3758 -1.0519,-1.07032 -1.0519,-1.82193 v -9.71698 c 0,-0.75161 0.40098,-1.44613 1.0519,-1.82193 l 8.41515,-4.85849 c 0.65091,-0.37581 1.45287,-0.37581 2.10378,0 l 8.41515,4.85849 c 0.65092,0.3758 1.0519,1.07032 1.0519,1.82193 z m 0,-182.140958 v -9.716979 c 0,-0.75161 -0.40098,-1.446128 -1.0519,-1.821933 l -8.41515,-4.858489 c -0.65091,-0.375806 -1.45287,-0.375806 -2.10378,0 l -8.41515,4.858489 c -0.65092,0.375805 -1.0519,1.070322 -1.0519,1.821933 v 9.716979 c 0,0.751611 0.40098,1.446128 1.0519,1.821934 l 8.41515,4.858489 c 0.65091,0.375805 1.45287,0.375805 2.10378,0 l 8.41515,-4.858489 c 0.65092,-0.375806 1.0519,-1.070323 1.0519,-1.821934 z m 41.74373,182.701558 v 8.59578 c 0,0.66489 -0.35471,1.27927 -0.93052,1.61172 l -7.44417,4.29789 c -0.57581,0.33244 -1.28524,0.33244 -1.86105,0 l -7.44417,-4.29789 c -0.57581,-0.33245 -0.93052,-0.94683 -0.93052,-1.61172 v -8.59578 c 0,-0.66489 0.35471,-1.27927 0.93052,-1.61171 l 7.44417,-4.2979 c 0.57581,-0.33244 1.28524,-0.33244 1.86105,0 l 7.44417,4.2979 c 0.57581,0.33244 0.93052,0.94682 0.93052,1.61171 z m 0,-183.262153 v -8.595789 c 0,-0.664886 -0.35471,-1.279267 -0.93052,-1.61171 l -7.44417,-4.297894 c -0.57581,-0.332444 -1.28524,-0.332444 -1.86105,-10e-7 l -7.44417,4.297895 c -0.57581,0.332443 -0.93052,0.946824 -0.93052,1.61171 v 8.595789 c 0,0.664887 0.35471,1.279267 0.93052,1.611711 l 7.44417,4.297894 c 0.57581,0.332443 1.28524,0.332443 1.86105,0 l 7.44417,-4.297894 c 0.57581,-0.332444 0.93052,-0.946824 0.93052,-1.611711 z M 552.12089,130.9186 v 7.4746 c 0,0.57816 -0.30845,1.11241 -0.80915,1.40149 l -6.47319,3.7373 c -0.50071,0.28908 -1.1176,0.28908 -1.6183,0 l -6.47319,-3.7373 c -0.50071,-0.28908 -0.80915,-0.82333 -0.80915,-1.40149 v -7.4746 c 0,-0.57816 0.30844,-1.11241 0.80915,-1.40149 l 6.47319,-3.7373 c 0.5007,-0.28908 1.11759,-0.28908 1.6183,0 l 6.47319,3.7373 c 0.5007,0.28908 0.80915,0.82333 0.80915,1.40149 z m 0,-184.383338 v -7.474599 c 0,-0.578162 -0.30845,-1.112406 -0.80915,-1.401487 l -6.47319,-3.7373 c -0.50071,-0.289081 -1.1176,-0.289081 -1.6183,0 l -6.47319,3.7373 c -0.50071,0.289081 -0.80915,0.823325 -0.80915,1.401487 v 7.474599 c 0,0.578162 0.30844,1.112406 0.80915,1.401488 l 6.47319,3.737299 c 0.5007,0.289081 1.11759,0.289081 1.6183,0 l 6.47319,-3.737299 c 0.5007,-0.289082 0.80915,-0.823325 0.80915,-1.401488 z M 593.86462,131.4792 v 6.3534 c 0,0.49144 -0.26218,0.94555 -0.68778,1.19127 l -5.50221,3.1767 c -0.4256,0.24572 -0.94996,0.24572 -1.37556,0 l -5.50221,-3.1767 c -0.4256,-0.24572 -0.68778,-0.69983 -0.68778,-1.19127 v -6.3534 c 0,-0.49144 0.26218,-0.94555 0.68778,-1.19127 l 5.50221,-3.1767 c 0.4256,-0.24572 0.94996,-0.24572 1.37556,0 l 5.50221,3.1767 c 0.4256,0.24572 0.68778,0.69983 0.68778,1.19127 z m 0,-185.504533 v -6.353409 c 0,-0.491438 -0.26218,-0.945545 -0.68778,-1.191264 l -5.50221,-3.176705 c -0.4256,-0.245719 -0.94996,-0.245719 -1.37556,0 l -5.50221,3.176705 c -0.4256,0.245719 -0.68778,0.699826 -0.68778,1.191264 v 6.353409 c 0,0.491438 0.26218,0.945546 0.68778,1.191265 l 5.50221,3.176704 c 0.4256,0.245719 0.94996,0.245719 1.37556,0 l 5.50221,-3.176704 c 0.4256,-0.245719 0.68778,-0.699827 0.68778,-1.191265 z m 41.74373,186.065123 v 5.23222 c 0,0.40471 -0.21591,0.77868 -0.56641,0.98104 l -4.53123,2.61611 c -0.35049,0.20236 -0.78232,0.20236 -1.13281,0 l -4.53123,-2.61611 c -0.3505,-0.20236 -0.56641,-0.57633 -0.56641,-0.98104 v -5.23222 c 0,-0.40471 0.21591,-0.77868 0.56641,-0.98104 l 4.53123,-2.61611 c 0.35049,-0.20236 0.78232,-0.20236 1.13281,0 l 4.53123,2.61611 c 0.3505,0.20236 0.56641,0.57633 0.56641,0.98104 z m 0,-186.625718 v -5.232219 c 0,-0.404713 -0.21591,-0.778684 -0.56641,-0.981041 l -4.53123,-2.61611 c -0.35049,-0.202356 -0.78232,-0.202356 -1.13281,0 l -4.53123,2.61611 c -0.3505,0.202357 -0.56641,0.576328 -0.56641,0.981041 v 5.232219 c 0,0.404714 0.21591,0.778685 0.56641,0.981042 l 4.53123,2.616109 c 0.35049,0.202357 0.78232,0.202357 1.13281,0 l 4.53123,-2.616109 c 0.3505,-0.202357 0.56641,-0.576328 0.56641,-0.981042 z m 41.74373,187.186318 v 4.11102 c 0,0.31799 -0.16965,0.61183 -0.44503,0.77082 l -3.56026,2.05552 c -0.27539,0.15899 -0.61468,0.15899 -0.89006,0 l -3.56026,-2.05552 c -0.27539,-0.15899 -0.44503,-0.45283 -0.44503,-0.77082 v -4.11102 c 0,-0.31799 0.16964,-0.61183 0.44503,-0.77082 l 3.56026,-2.05552 c 0.27538,-0.15899 0.61467,-0.15899 0.89006,0 l 3.56026,2.05552 c 0.27538,0.15899 0.44503,0.45283 0.44503,0.77082 z m 0,-187.746912 v -4.11103 c 0,-0.317989 -0.16965,-0.611823 -0.44503,-0.770818 l -3.56026,-2.055515 c -0.27539,-0.158994 -0.61468,-0.158994 -0.89006,0 l -3.56026,2.055515 c -0.27539,0.158995 -0.44503,0.452829 -0.44503,0.770818 v 4.111029 c 0,0.31799 0.16964,0.611824 0.44503,0.770818 l 3.56026,2.055515 c 0.27538,0.158995 0.61467,0.158995 0.89006,0 l 3.56026,-2.055514 c 0.27538,-0.158995 0.44503,-0.452829 0.44503,-0.770818 z M 216.95732,174.95892 v 15.32293 c 0,1.18523 -0.63231,2.28043 -1.65875,2.87305 l -13.27005,7.66146 c -1.02644,0.59262 -2.29107,0.59262 -3.31751,0 l -13.27004,-7.66146 c -1.02645,-0.59262 -1.65876,-1.68782 -1.65876,-2.87305 v -15.32293 c 0,-1.18523 0.63231,-2.28043 1.65876,-2.87305 l 13.27004,-7.66146 c 1.02644,-0.59262 2.29107,-0.59262 3.31751,0 l 13.27005,7.66146 c 1.02644,0.59262 1.65875,1.68782 1.65875,2.87305 z m 0,-272.463979 v -15.322931 c 0,-1.18523 -0.63231,-2.28043 -1.65875,-2.87305 l -13.27005,-7.66146 c -1.02644,-0.59262 -2.29107,-0.59262 -3.31751,0 l -13.27004,7.66146 c -1.02645,0.59262 -1.65876,1.68782 -1.65876,2.87305 v 15.322931 c 0,1.185232 0.63231,2.280433 1.65876,2.873049 l 13.27004,7.661464 c 1.02644,0.592616 2.29107,0.592616 3.31751,0 l 13.27005,-7.661464 c 1.02644,-0.592616 1.65875,-1.687816 1.65875,-2.873049 z m 41.74373,273.024579 v 14.20173 c 0,1.09851 -0.58604,2.11358 -1.53738,2.66283 l -12.29907,7.10087 c -0.95133,0.54925 -2.12343,0.54925 -3.07476,0 l -12.29907,-7.10087 c -0.95134,-0.54925 -1.53738,-1.56432 -1.53738,-2.66282 v -14.20174 c 0,-1.09851 0.58604,-2.11357 1.53738,-2.66283 l 12.29907,-7.10087 c 0.95133,-0.54925 2.12343,-0.54925 3.07476,0 l 12.29907,7.10087 c 0.95134,0.54926 1.53738,1.56432 1.53738,2.66283 z m 0,-273.585174 v -14.201736 c 0,-1.09851 -0.58604,-2.11357 -1.53738,-2.66283 l -12.29907,-7.10087 c -0.95133,-0.54925 -2.12343,-0.54925 -3.07476,0 l -12.29907,7.10087 c -0.95134,0.54926 -1.53738,1.56432 -1.53738,2.66283 v 14.201736 c 0,1.098508 0.58604,2.113572 1.53738,2.662826 l 12.29907,7.100869 c 0.95133,0.549254 2.12343,0.549254 3.07476,0 l 12.29907,-7.100869 c 0.95134,-0.549254 1.53738,-1.564318 1.53738,-2.662826 z m 41.74373,274.145764 v 13.08055 c 0,1.01178 -0.53978,1.94671 -1.41601,2.4526 l -11.32808,6.54028 c -0.87624,0.50589 -1.9558,0.50589 -2.83203,0 l -11.32808,-6.54028 c -0.87623,-0.50589 -1.41601,-1.44082 -1.41601,-2.4526 v -13.08055 c 0,-1.01178 0.53978,-1.94671 1.41601,-2.4526 l 11.32808,-6.54028 c 0.87623,-0.50589 1.95579,-0.50589 2.83202,0 l 11.32809,6.54028 c 0.87623,0.50589 1.41601,1.44082 1.41601,2.4526 z m 0,-274.706359 V -111.7068 c 0,-1.01178 -0.53978,-1.94671 -1.41601,-2.4526 l -11.32808,-6.54027 c -0.87624,-0.5059 -1.9558,-0.5059 -2.83203,0 l -11.32808,6.54027 c -0.87623,0.50589 -1.41601,1.44082 -1.41601,2.4526 v 13.080551 c 0,1.011784 0.53978,1.946711 1.41601,2.452603 l 11.32808,6.540274 c 0.87623,0.505892 1.95579,0.505892 2.83202,0 l 11.32809,-6.540274 c 0.87623,-0.505892 1.41601,-1.440819 1.41601,-2.452603 z m 41.74373,275.266959 v 11.95936 c 0,0.92505 -0.49351,1.77985 -1.29464,2.24237 l -10.3571,5.97968 c -0.80113,0.46253 -1.78816,0.46253 -2.58928,0 l -10.35711,-5.97968 c -0.80112,-0.46252 -1.29464,-1.31732 -1.29464,-2.24237 v -11.95936 c 0,-0.92506 0.49352,-1.77985 1.29464,-2.24238 l 10.35711,-5.97968 c 0.80112,-0.46253 1.78815,-0.46253 2.58928,0 l 10.3571,5.97968 c 0.80113,0.46253 1.29464,1.31732 1.29464,2.24238 z m 0,-275.827554 V -111.1462 c 0,-0.92506 -0.49351,-1.77985 -1.29464,-2.24238 l -10.3571,-5.97968 c -0.80113,-0.46253 -1.78816,-0.46253 -2.58928,0 l -10.35711,5.97968 c -0.80112,0.46253 -1.29464,1.31732 -1.29464,2.24238 v 11.959356 c 0,0.92506 0.49352,1.77985 1.29464,2.24238 l 10.35711,5.979679 c 0.80112,0.46253 1.78815,0.46253 2.58928,0 l 10.3571,-5.979679 c 0.80113,-0.46253 1.29464,-1.31732 1.29464,-2.24238 z M 383.93224,177.2013 v 10.83817 c 0,0.83834 -0.44724,1.61299 -1.17326,2.03216 l -9.38613,5.41908 c -0.72602,0.41917 -1.62051,0.41917 -2.34653,0 l -9.38613,-5.41908 c -0.72602,-0.41917 -1.17327,-1.19382 -1.17327,-2.03216 V 177.2013 c 0,-0.83833 0.44725,-1.61299 1.17327,-2.03215 l 9.38613,-5.41909 c 0.72602,-0.41917 1.62051,-0.41917 2.34653,0 l 9.38613,5.41909 c 0.72602,0.41916 1.17326,1.19382 1.17326,2.03215 z m 0,-276.948739 v -10.838171 c 0,-0.83833 -0.44724,-1.61299 -1.17326,-2.03215 l -9.38613,-5.41909 c -0.72602,-0.41917 -1.62051,-0.41917 -2.34653,0 l -9.38613,5.41909 c -0.72602,0.41916 -1.17327,1.19382 -1.17327,2.03215 v 10.838171 c 0,0.838335 0.44725,1.612989 1.17327,2.032157 l 9.38613,5.419084 c 0.72602,0.419168 1.62051,0.419168 2.34653,0 l 9.38613,-5.419084 c 0.72602,-0.419168 1.17326,-1.193821 1.17326,-2.032157 z M 425.67597,177.7619 v 9.71698 c 0,0.75161 -0.40098,1.44612 -1.05189,1.82193 l -8.41515,4.85849 c -0.65091,0.3758 -1.45287,0.3758 -2.10379,0 l -8.41515,-4.85849 c -0.65091,-0.37581 -1.05189,-1.07032 -1.05189,-1.82193 v -9.71698 c 0,-0.75161 0.40098,-1.44613 1.05189,-1.82194 l 8.41515,-4.85849 c 0.65092,-0.3758 1.45288,-0.3758 2.10379,0 l 8.41515,4.85849 c 0.65091,0.37581 1.05189,1.07033 1.05189,1.82194 z m 0,-278.06993 v -9.71698 c 0,-0.75161 -0.40098,-1.44613 -1.05189,-1.82194 l -8.41515,-4.85849 c -0.65091,-0.3758 -1.45287,-0.3758 -2.10379,0 l -8.41515,4.85849 c -0.65091,0.37581 -1.05189,1.07033 -1.05189,1.82194 v 9.71698 c 0,0.751607 0.40098,1.446124 1.05189,1.82193 l 8.41515,4.858489 c 0.65092,0.375806 1.45288,0.375806 2.10379,0 l 8.41515,-4.858489 c 0.65091,-0.375806 1.05189,-1.070323 1.05189,-1.82193 z m 41.74373,278.63052 v 8.59579 c 0,0.66489 -0.35471,1.27927 -0.93052,1.61171 l -7.44417,4.2979 c -0.57581,0.33244 -1.28523,0.33244 -1.86104,0 l -7.44417,-4.2979 c -0.57581,-0.33244 -0.93052,-0.94682 -0.93052,-1.61171 v -8.59579 c 0,-0.66488 0.35471,-1.27927 0.93052,-1.61171 l 7.44417,-4.29789 c 0.57581,-0.33245 1.28523,-0.33245 1.86104,0 l 7.44417,4.29789 c 0.57581,0.33244 0.93052,0.94682 0.93052,1.61171 z m 0,-279.19112 v -8.59579 c 0,-0.66488 -0.35471,-1.27926 -0.93052,-1.61171 l -7.44417,-4.29789 c -0.57581,-0.33245 -1.28523,-0.33245 -1.86104,0 l -7.44417,4.29789 c -0.57581,0.33245 -0.93052,0.94683 -0.93052,1.61171 v 8.59579 c 0,0.66489 0.35471,1.279268 0.93052,1.611712 l 7.44417,4.297894 c 0.57581,0.332444 1.28523,0.332444 1.86104,0 l 7.44417,-4.297894 c 0.57581,-0.332443 0.93052,-0.946822 0.93052,-1.611712 z m 41.74373,279.75172 v 7.4746 c 0,0.57816 -0.30844,1.1124 -0.80914,1.40148 l -6.4732,3.7373 c -0.5007,0.28908 -1.11759,0.28908 -1.6183,0 l -6.47319,-3.7373 c -0.5007,-0.28908 -0.80915,-0.82332 -0.80915,-1.40148 v -7.4746 c 0,-0.57817 0.30845,-1.11241 0.80915,-1.40149 l 6.47319,-3.7373 c 0.50071,-0.28908 1.1176,-0.28908 1.6183,0 l 6.4732,3.7373 c 0.5007,0.28908 0.80914,0.82332 0.80914,1.40149 z m 0,-280.31231 v -7.4746 c 0,-0.57816 -0.30844,-1.11241 -0.80914,-1.40149 l -6.4732,-3.7373 c -0.5007,-0.28908 -1.11759,-0.28908 -1.6183,0 l -6.47319,3.7373 c -0.5007,0.28908 -0.80915,0.82333 -0.80915,1.40149 v 7.4746 c 0,0.57816 0.30845,1.1124 0.80915,1.40148 l 6.47319,3.737303 c 0.50071,0.289081 1.1176,0.289081 1.6183,0 l 6.4732,-3.737303 c 0.5007,-0.28908 0.80914,-0.82332 0.80914,-1.40148 z m 41.74373,280.8729 v 6.35341 c 0,0.49144 -0.26217,0.94555 -0.68777,1.19126 l -5.50222,3.17671 c -0.42559,0.24572 -0.94995,0.24572 -1.37555,0 l -5.50221,-3.17671 c -0.4256,-0.24571 -0.68778,-0.69982 -0.68778,-1.19126 v -6.35341 c 0,-0.49144 0.26218,-0.94554 0.68778,-1.19126 l 5.50221,-3.17671 c 0.4256,-0.24572 0.94996,-0.24572 1.37555,0 l 5.50222,3.17671 c 0.4256,0.24572 0.68777,0.69982 0.68777,1.19126 z m 0,-281.4335 v -6.35341 c 0,-0.49144 -0.26217,-0.94554 -0.68777,-1.19126 l -5.50222,-3.17671 c -0.42559,-0.24572 -0.94995,-0.24572 -1.37555,0 l -5.50221,3.17671 c -0.4256,0.24572 -0.68778,0.69982 -0.68778,1.19126 v 6.35341 c 0,0.49144 0.26218,0.94555 0.68778,1.19127 l 5.50221,3.1767 c 0.4256,0.245719 0.94996,0.245719 1.37555,0 l 5.50222,-3.1767 c 0.4256,-0.24572 0.68777,-0.69983 0.68777,-1.19127 z m 41.74374,281.9941 v 5.23222 c 0,0.40471 -0.21592,0.77868 -0.56641,0.98104 l -4.53123,2.61611 c -0.3505,0.20235 -0.78232,0.20235 -1.13281,0 l -4.53124,-2.61611 c -0.35049,-0.20236 -0.5664,-0.57633 -0.5664,-0.98104 v -5.23222 c 0,-0.40472 0.21591,-0.77869 0.5664,-0.98104 l 4.53124,-2.61611 c 0.35049,-0.20236 0.78231,-0.20236 1.13281,0 l 4.53123,2.61611 c 0.35049,0.20235 0.56641,0.57632 0.56641,0.98104 z m 0,-282.55469 v -5.23222 c 0,-0.40472 -0.21592,-0.77869 -0.56641,-0.98104 l -4.53123,-2.61611 c -0.3505,-0.20236 -0.78232,-0.20236 -1.13281,0 l -4.53124,2.61611 c -0.35049,0.20235 -0.5664,0.57632 -0.5664,0.98104 v 5.23222 c 0,0.40471 0.21591,0.77868 0.5664,0.98104 l 4.53124,2.616107 c 0.35049,0.202357 0.78231,0.202357 1.13281,0 l 4.53123,-2.616107 c 0.35049,-0.20236 0.56641,-0.57633 0.56641,-0.98104 z m 41.74373,283.11528 v 4.11103 c 0,0.31799 -0.16965,0.61182 -0.44504,0.77082 l -3.56025,2.05551 c -0.27539,0.159 -0.61468,0.159 -0.89007,0 l -3.56025,-2.05551 c -0.27539,-0.159 -0.44503,-0.45283 -0.44503,-0.77082 v -4.11103 c 0,-0.31799 0.16964,-0.61182 0.44503,-0.77082 l 3.56025,-2.05551 c 0.27539,-0.159 0.61468,-0.159 0.89007,0 l 3.56025,2.05551 c 0.27539,0.159 0.44504,0.45283 0.44504,0.77082 z m 0,-283.67588 v -4.11103 c 0,-0.31799 -0.16965,-0.61182 -0.44504,-0.77082 l -3.56025,-2.05551 c -0.27539,-0.159 -0.61468,-0.159 -0.89007,0 l -3.56025,2.05551 c -0.27539,0.159 -0.44503,0.45283 -0.44503,0.77082 v 4.11103 c 0,0.31799 0.16964,0.61183 0.44503,0.77082 l 3.56025,2.05551 c 0.27539,0.159 0.61468,0.159 0.89007,0 l 3.56025,-2.05551 c 0.27539,-0.15899 0.44504,-0.45283 0.44504,-0.77082 z m 41.74373,284.23648 v 2.98984 c 0,0.23126 -0.12338,0.44496 -0.32366,0.56059 l -2.58928,1.49492 c -0.20028,0.11563 -0.44704,0.11563 -0.64732,0 l -2.58928,-1.49492 c -0.20028,-0.11563 -0.32366,-0.32933 -0.32366,-0.56059 v -2.98984 c 0,-0.23127 0.12338,-0.44497 0.32366,-0.5606 l 2.58928,-1.49492 c 0.20028,-0.11563 0.44704,-0.11563 0.64732,0 l 2.58928,1.49492 c 0.20028,0.11563 0.32366,0.32933 0.32366,0.5606 z m 0,-284.79707 v -2.98984 c 0,-0.23127 -0.12338,-0.44497 -0.32366,-0.5606 l -2.58928,-1.49492 c -0.20028,-0.11563 -0.44704,-0.11563 -0.64732,0 l -2.58928,1.49492 c -0.20028,0.11563 -0.32366,0.32933 -0.32366,0.5606 v 2.98984 c 0,0.23126 0.12338,0.44496 0.32366,0.56059 l 2.58928,1.49492 c 0.20028,0.11563 0.44704,0.11563 0.64732,0 l 2.58928,-1.49492 c 0.20028,-0.11563 0.32366,-0.32933 0.32366,-0.56059 z M 215.7436,223.484 v 14.20174 c 0,1.09851 -0.58605,2.11357 -1.53738,2.66283 l -12.29907,7.10087 c -0.95134,0.54925 -2.12343,0.54925 -3.07477,0 l -12.29906,-7.10087 c -0.95134,-0.54926 -1.53739,-1.56432 -1.53739,-2.66283 V 223.484 c 0,-1.09851 0.58605,-2.11357 1.53739,-2.66282 l 12.29906,-7.10087 c 0.95134,-0.54926 2.12343,-0.54926 3.07477,0 l 12.29907,7.10087 c 0.95133,0.54925 1.53738,1.56431 1.53738,2.66282 z m 0,-369.51414 v -14.20174 c 0,-1.09851 -0.58605,-2.11357 -1.53738,-2.66282 l -12.29907,-7.10087 c -0.95134,-0.54926 -2.12343,-0.54926 -3.07477,0 l -12.29906,7.10087 c -0.95134,0.54925 -1.53739,1.56431 -1.53739,2.66282 v 14.20174 c 0,1.09851 0.58605,2.11357 1.53739,2.66283 l 12.29906,7.10087 c 0.95134,0.54925 2.12343,0.54925 3.07477,0 l 12.29907,-7.10087 c 0.95133,-0.54926 1.53738,-1.56432 1.53738,-2.66283 z m 41.74373,370.07474 v 13.08055 c 0,1.01178 -0.53978,1.94671 -1.41601,2.4526 l -11.32809,6.54027 c -0.87623,0.50589 -1.95579,0.50589 -2.83202,0 l -11.32809,-6.54027 c -0.87623,-0.50589 -1.41601,-1.44082 -1.41601,-2.4526 V 224.0446 c 0,-1.01179 0.53978,-1.94671 1.41601,-2.45261 l 11.32809,-6.54027 c 0.87623,-0.50589 1.95579,-0.50589 2.83202,0 l 11.32809,6.54027 c 0.87623,0.5059 1.41601,1.44082 1.41601,2.45261 z m 0,-370.63533 v -13.08055 c 0,-1.01179 -0.53978,-1.94671 -1.41601,-2.45261 l -11.32809,-6.54027 c -0.87623,-0.50589 -1.95579,-0.50589 -2.83202,0 l -11.32809,6.54027 c -0.87623,0.5059 -1.41601,1.44082 -1.41601,2.45261 v 13.08055 c 0,1.01178 0.53978,1.94671 1.41601,2.4526 l 11.32809,6.54027 c 0.87623,0.50589 1.95579,0.50589 2.83202,0 l 11.32809,-6.54027 c 0.87623,-0.50589 1.41601,-1.44082 1.41601,-2.4526 z m 41.74373,371.19592 v 11.95936 c 0,0.92506 -0.49351,1.77985 -1.29464,2.24238 l -10.35711,5.97968 c -0.80112,0.46253 -1.78815,0.46253 -2.58927,0 l -10.35711,-5.97968 c -0.80113,-0.46253 -1.29464,-1.31732 -1.29464,-2.24238 v -11.95936 c 0,-0.92506 0.49351,-1.77985 1.29464,-2.24238 l 10.35711,-5.97968 c 0.80112,-0.46253 1.78815,-0.46253 2.58927,0 l 10.35711,5.97968 c 0.80113,0.46253 1.29464,1.31732 1.29464,2.24238 z m 0,-371.75652 v -11.95936 c 0,-0.92506 -0.49351,-1.77985 -1.29464,-2.24238 l -10.35711,-5.97968 c -0.80112,-0.46253 -1.78815,-0.46253 -2.58927,0 l -10.35711,5.97968 c -0.80113,0.46253 -1.29464,1.31732 -1.29464,2.24238 v 11.95936 c 0,0.92506 0.49351,1.77985 1.29464,2.24238 l 10.35711,5.97968 c 0.80112,0.46253 1.78815,0.46253 2.58927,0 l 10.35711,-5.97968 c 0.80113,-0.46253 1.29464,-1.31732 1.29464,-2.24238 z m 41.74373,372.31712 v 10.83817 c 0,0.83833 -0.44725,1.61298 -1.17327,2.03215 l -9.38613,5.41909 c -0.72602,0.41916 -1.62051,0.41916 -2.34653,0 l -9.38613,-5.41909 c -0.72602,-0.41916 -1.17326,-1.19382 -1.17326,-2.03215 v -10.83817 c 0,-0.83834 0.44724,-1.61299 1.17326,-2.03216 l 9.38613,-5.41908 c 0.72602,-0.41917 1.62051,-0.41917 2.34653,0 l 9.38613,5.41908 c 0.72602,0.41917 1.17327,1.19382 1.17327,2.03216 z m 0,-372.87771 v -10.83817 c 0,-0.83834 -0.44725,-1.61299 -1.17327,-2.03216 l -9.38613,-5.41908 c -0.72602,-0.41917 -1.62051,-0.41917 -2.34653,0 l -9.38613,5.41908 c -0.72602,0.41917 -1.17326,1.19382 -1.17326,2.03216 v 10.83817 c 0,0.83833 0.44724,1.61298 1.17326,2.03215 l 9.38613,5.41909 c 0.72602,0.41916 1.62051,0.41916 2.34653,0 l 9.38613,-5.41909 c 0.72602,-0.41917 1.17327,-1.19382 1.17327,-2.03215 z m 41.74373,373.4383 v 9.71698 c 0,0.75161 -0.40098,1.44613 -1.05189,1.82193 l -8.41515,4.85849 c -0.65092,0.37581 -1.45288,0.37581 -2.10379,0 l -8.41515,-4.85849 c -0.65092,-0.3758 -1.0519,-1.07032 -1.0519,-1.82193 v -9.71698 c 0,-0.75161 0.40098,-1.44613 1.0519,-1.82193 l 8.41515,-4.85849 c 0.65091,-0.37581 1.45287,-0.37581 2.10379,0 l 8.41515,4.85849 c 0.65091,0.3758 1.05189,1.07032 1.05189,1.82193 z m 0,-373.9989 v -9.71698 c 0,-0.75161 -0.40098,-1.44613 -1.05189,-1.82193 l -8.41515,-4.85849 c -0.65092,-0.37581 -1.45288,-0.37581 -2.10379,0 l -8.41515,4.85849 c -0.65092,0.3758 -1.0519,1.07032 -1.0519,1.82193 v 9.71698 c 0,0.75161 0.40098,1.44613 1.0519,1.82193 l 8.41515,4.85849 c 0.65091,0.37581 1.45287,0.37581 2.10379,0 l 8.41515,-4.85849 c 0.65091,-0.3758 1.05189,-1.07032 1.05189,-1.82193 z m 41.74373,374.5595 v 8.59579 c 0,0.66488 -0.35471,1.27926 -0.93052,1.61171 l -7.44417,4.29789 c -0.57581,0.33244 -1.28524,0.33244 -1.86105,0 l -7.44417,-4.29789 c -0.57581,-0.33245 -0.93052,-0.94683 -0.93052,-1.61171 v -8.59579 c 0,-0.66489 0.35471,-1.27927 0.93052,-1.61171 l 7.44417,-4.2979 c 0.57581,-0.33244 1.28524,-0.33244 1.86105,0 l 7.44417,4.2979 c 0.57581,0.33244 0.93052,0.94682 0.93052,1.61171 z m 0,-375.12009 v -8.59579 c 0,-0.66489 -0.35471,-1.27927 -0.93052,-1.61171 l -7.44417,-4.2979 c -0.57581,-0.33244 -1.28524,-0.33244 -1.86105,0 l -7.44417,4.2979 c -0.57581,0.33244 -0.93052,0.94682 -0.93052,1.61171 v 8.59579 c 0,0.66488 0.35471,1.27926 0.93052,1.61171 l 7.44417,4.29789 c 0.57581,0.33244 1.28524,0.33244 1.86105,0 l 7.44417,-4.29789 c 0.57581,-0.33245 0.93052,-0.94683 0.93052,-1.61171 z m 41.74373,375.68068 v 7.4746 c 0,0.57816 -0.30845,1.11241 -0.80915,1.40149 l -6.47319,3.7373 c -0.5007,0.28908 -1.1176,0.28908 -1.6183,0 l -6.47319,-3.7373 c -0.50071,-0.28908 -0.80915,-0.82333 -0.80915,-1.40149 v -7.4746 c 0,-0.57816 0.30844,-1.1124 0.80915,-1.40149 l 6.47319,-3.73729 c 0.5007,-0.28909 1.1176,-0.28909 1.6183,0 l 6.47319,3.73729 c 0.5007,0.28909 0.80915,0.82333 0.80915,1.40149 z m 0,-376.24128 v -7.4746 c 0,-0.57816 -0.30845,-1.1124 -0.80915,-1.40149 l -6.47319,-3.7373 c -0.5007,-0.28908 -1.1176,-0.28908 -1.6183,0 l -6.47319,3.7373 c -0.50071,0.28909 -0.80915,0.82333 -0.80915,1.40149 v 7.4746 c 0,0.57816 0.30844,1.11241 0.80915,1.40149 l 6.47319,3.7373 c 0.5007,0.28908 1.1176,0.28908 1.6183,0 l 6.47319,-3.7373 c 0.5007,-0.28908 0.80915,-0.82333 0.80915,-1.40149 z m 41.74373,376.80188 v 6.35341 c 0,0.49143 -0.26218,0.94554 -0.68778,1.19126 l -5.50221,3.17671 c -0.4256,0.24571 -0.94996,0.24571 -1.37555,0 l -5.50222,-3.17671 c -0.42559,-0.24572 -0.68777,-0.69983 -0.68777,-1.19126 v -6.35341 c 0,-0.49144 0.26218,-0.94555 0.68777,-1.19127 l 5.50222,-3.1767 c 0.42559,-0.24572 0.94995,-0.24572 1.37555,0 l 5.50221,3.1767 c 0.4256,0.24572 0.68778,0.69983 0.68778,1.19127 z m 0,-377.36247 v -6.35341 c 0,-0.49144 -0.26218,-0.94555 -0.68778,-1.19127 l -5.50221,-3.1767 c -0.4256,-0.24572 -0.94996,-0.24572 -1.37555,0 l -5.50222,3.1767 c -0.42559,0.24572 -0.68777,0.69983 -0.68777,1.19127 v 6.35341 c 0,0.49143 0.26218,0.94554 0.68777,1.19126 l 5.50222,3.1767 c 0.42559,0.24572 0.94995,0.24572 1.37555,0 l 5.50221,-3.1767 c 0.4256,-0.24572 0.68778,-0.69983 0.68778,-1.19126 z m 41.74373,377.92306 v 5.23222 c 0,0.40471 -0.21591,0.77869 -0.5664,0.98104 l -4.53124,2.61611 c -0.35049,0.20236 -0.78231,0.20236 -1.13281,0 l -4.53123,-2.61611 c -0.35049,-0.20235 -0.56641,-0.57632 -0.56641,-0.98104 v -5.23222 c 0,-0.40471 0.21592,-0.77868 0.56641,-0.98104 l 4.53123,-2.61611 c 0.3505,-0.20236 0.78232,-0.20236 1.13281,0 l 4.53124,2.61611 c 0.35049,0.20236 0.5664,0.57633 0.5664,0.98104 z m 0,-378.48366 v -5.23222 c 0,-0.40471 -0.21591,-0.77868 -0.5664,-0.98104 l -4.53124,-2.61611 c -0.35049,-0.20236 -0.78231,-0.20236 -1.13281,0 l -4.53123,2.61611 c -0.35049,0.20236 -0.56641,0.57633 -0.56641,0.98104 v 5.23222 c 0,0.40471 0.21592,0.77869 0.56641,0.98104 l 4.53123,2.61611 c 0.3505,0.20236 0.78232,0.20236 1.13281,0 l 4.53124,-2.61611 c 0.35049,-0.20235 0.5664,-0.57633 0.5664,-0.98104 z m 41.74373,379.04426 v 4.11103 c 0,0.31799 -0.16964,0.61182 -0.44503,0.77081 l -3.56026,2.05552 c -0.27538,0.15899 -0.61467,0.15899 -0.89006,0 l -3.56026,-2.05552 c -0.27538,-0.15899 -0.44503,-0.45282 -0.44503,-0.77081 v -4.11103 c 0,-0.31799 0.16965,-0.61183 0.44503,-0.77082 l 3.56026,-2.05552 c 0.27539,-0.15899 0.61468,-0.15899 0.89006,0 l 3.56026,2.05552 c 0.27539,0.15899 0.44503,0.45283 0.44503,0.77082 z m 0,-379.60485 v -4.11103 c 0,-0.31799 -0.16964,-0.61183 -0.44503,-0.77082 l -3.56026,-2.05552 c -0.27538,-0.15899 -0.61467,-0.15899 -0.89006,0 l -3.56026,2.05552 c -0.27538,0.15899 -0.44503,0.45283 -0.44503,0.77082 v 4.11103 c 0,0.31799 0.16965,0.61182 0.44503,0.77081 l 3.56026,2.05552 c 0.27539,0.15899 0.61468,0.15899 0.89006,0 l 3.56026,-2.05552 c 0.27539,-0.15899 0.44503,-0.45282 0.44503,-0.77081 z m 41.74373,380.16544 v 2.98984 c 0,0.23127 -0.12338,0.44496 -0.32366,0.5606 l -2.58927,1.49492 c -0.20029,0.11563 -0.44704,0.11563 -0.64732,0 l -2.58928,-1.49492 c -0.20028,-0.11564 -0.32366,-0.32933 -0.32366,-0.5606 v -2.98984 c 0,-0.23126 0.12338,-0.44496 0.32366,-0.56059 l 2.58928,-1.49492 c 0.20028,-0.11564 0.44703,-0.11564 0.64732,0 l 2.58927,1.49492 c 0.20028,0.11563 0.32366,0.32933 0.32366,0.56059 z m 0,-380.72604 v -2.98984 c 0,-0.23126 -0.12338,-0.44496 -0.32366,-0.56059 l -2.58927,-1.49492 c -0.20029,-0.11564 -0.44704,-0.11564 -0.64732,0 l -2.58928,1.49492 c -0.20028,0.11563 -0.32366,0.32933 -0.32366,0.56059 v 2.98984 c 0,0.23127 0.12338,0.44496 0.32366,0.5606 l 2.58928,1.49492 c 0.20028,0.11563 0.44703,0.11563 0.64732,0 l 2.58927,-1.49492 c 0.20028,-0.11564 0.32366,-0.32933 0.32366,-0.5606 z m 41.74373,381.28664 v 1.86865 c 0,0.14454 -0.0771,0.2781 -0.20229,0.35037 l -1.61829,0.93432 c -0.12518,0.0723 -0.2794,0.0723 -0.40458,0 l -1.6183,-0.93432 c -0.12517,-0.0723 -0.20228,-0.20583 -0.20228,-0.35037 v -1.86865 c 0,-0.14454 0.0771,-0.2781 0.20228,-0.35037 l 1.6183,-0.93433 c 0.12518,-0.0723 0.2794,-0.0723 0.40458,0 l 1.61829,0.93433 c 0.12518,0.0723 0.20229,0.20583 0.20229,0.35037 z m 0,-381.84723 v -1.86865 c 0,-0.14454 -0.0771,-0.27811 -0.20229,-0.35038 l -1.61829,-0.93432 c -0.12518,-0.0723 -0.2794,-0.0723 -0.40458,0 l -1.6183,0.93432 c -0.12517,0.0723 -0.20228,0.20584 -0.20228,0.35038 v 1.86865 c 0,0.14454 0.0771,0.2781 0.20228,0.35037 l 1.6183,0.93432 c 0.12518,0.0723 0.2794,0.0723 0.40458,0 l 1.61829,-0.93432 c 0.12518,-0.0723 0.20229,-0.20583 0.20229,-0.35037 z"
       style="display:inline;fill:url(#radialGradient8472);fill-opacity:1;stroke:#000000;stroke-width:0.998673;stroke-linecap:round;stroke-linejoin:round;stroke-dasharray:none;stroke-dashoffset:0;stroke-opacity:1;paint-order:markers stroke fill" />
  </g>
  <g
     inkscape:groupmode="layer"
     id="layer5"
     inkscape:label="logo"
     style="display:inline;opacity:1;fill:#f2f2f2"
     transform="translate(-150.01719)"
     class="UnoptimicedTransforms"
     sodipodi:insensitive="true">
    <path
       id="path725"
       class="UnoptimicedTransforms"
       transform="matrix(0.99305385,0,0,1.0096723,583.92864,280.89849)"
       clip-path="none"
       d="m 286.28516,18.722656 c -0.61468,0 -1.23048,0.158574 -1.78125,0.476563 l -14.24024,8.222656 c -1.10154,0.635978 -1.78125,1.810076 -1.78125,3.082031 v 8.222656 8.222657 c 0,1.271955 0.67971,2.448006 1.78125,3.083984 l 14.24024,8.220703 c 1.10154,0.635978 2.459,0.635978 3.56054,0 l 14.24219,-8.220703 c 1.10155,-0.635978 1.7793,-1.812029 1.7793,-3.083984 v -8.222657 -8.222656 c 0,-1.271955 -0.67775,-2.446053 -1.7793,-3.082031 l -14.24219,-8.222656 c -0.55077,-0.317989 -1.16462,-0.476563 -1.77929,-0.476563 z m 42.95703,1.363281 c -0.57277,0 -1.14499,0.149005 -1.65821,0.445313 l -13.27148,7.662109 c -1.02644,0.592616 -1.6582,1.687816 -1.6582,2.873047 v 7.660156 7.66211 c 0,1.185231 0.63176,2.280431 1.6582,2.873047 l 13.27148,7.662109 c 1.02644,0.592616 2.28997,0.592616 3.31641,0 l 13.27148,-7.662109 c 1.02645,-0.592616 1.65821,-1.687816 1.65821,-2.873047 v -7.66211 -7.660156 c 0,-1.185231 -0.63176,-2.280431 -1.65821,-2.873047 L 330.90039,20.53125 c -0.51322,-0.296308 -1.08544,-0.445312 -1.6582,-0.445313 z m 42.95703,1.365235 c -0.53086,0 -1.06144,0.137482 -1.53711,0.412109 l -12.29883,7.09961 c -0.95133,0.549253 -1.53711,1.565555 -1.53711,2.664062 v 7.099609 7.101563 c 0,1.098507 0.58578,2.112856 1.53711,2.662109 l 12.29883,7.101563 c 0.95133,0.549253 2.12288,0.549253 3.07422,0 l 12.29883,-7.101563 c 0.95133,-0.549253 1.53906,-1.563602 1.53906,-2.662109 v -7.101563 -7.099609 c 0,-1.098507 -0.58773,-2.114809 -1.53906,-2.664062 l -12.29883,-7.09961 c -0.47567,-0.274627 -1.00625,-0.412109 -1.53711,-0.412109 z m 42.95703,1.363281 c -0.48895,0 -0.9779,0.125961 -1.41602,0.378906 l -11.32812,6.541016 c -0.87623,0.505891 -1.41602,1.441342 -1.41602,2.453125 v 6.539062 6.541016 c 0,1.011783 0.53979,1.947234 1.41602,2.453125 l 11.32812,6.539063 c 0.87623,0.505891 1.95581,0.505891 2.83204,0 l 11.32812,-6.539063 c 0.87623,-0.505891 1.41602,-1.441342 1.41602,-2.453125 V 38.726562 32.1875 c 0,-1.011783 -0.53979,-1.947234 -1.41602,-2.453125 l -11.32812,-6.541016 c -0.43812,-0.252945 -0.92707,-0.378906 -1.41602,-0.378906 z m 42.95898,1.363281 c -0.44703,0 -0.89436,0.116392 -1.29492,0.347657 l -10.35742,5.978515 c -0.80112,0.46253 -1.29492,1.319082 -1.29492,2.244141 v 5.978515 5.980469 c 0,0.925059 0.4938,1.779658 1.29492,2.242188 l 10.35742,5.978515 c 0.80113,0.46253 1.78677,0.46253 2.58789,0 l 10.35742,-5.978515 c 0.80113,-0.46253 1.29493,-1.317129 1.29493,-2.242188 v -5.980469 -5.978515 c 0,-0.925059 -0.4938,-1.781611 -1.29493,-2.244141 L 459.4082,24.525391 c -0.40056,-0.231265 -0.84593,-0.347657 -1.29297,-0.347657 z m 42.95704,1.365235 c -0.40513,0 -0.81082,0.104869 -1.17383,0.314453 l -9.38672,5.417969 c -0.72602,0.419167 -1.17188,1.194868 -1.17188,2.033203 v 5.417968 5.419922 c 0,0.838335 0.44586,1.612083 1.17188,2.03125 l 9.38672,5.419922 c 0.72602,0.419167 1.62163,0.419167 2.34765,0 l 9.38477,-5.419922 c 0.72602,-0.419167 1.17383,-1.192915 1.17383,-2.03125 v -5.419922 -5.417968 c 0,-0.838335 -0.44781,-1.614036 -1.17383,-2.033203 l -9.38477,-5.417969 c -0.36301,-0.209584 -0.7687,-0.314453 -1.17382,-0.314453 z m 42.95703,1.363281 c -0.36322,0 -0.72728,0.09335 -1.05274,0.28125 l -8.41406,4.859375 c -0.65091,0.375805 -1.05273,1.070655 -1.05273,1.822266 v 4.857421 4.859375 c 0,0.751611 0.40182,1.446461 1.05273,1.822266 l 8.41406,4.857422 c 0.65092,0.375805 1.45456,0.375805 2.10547,0 l 8.41406,-4.857422 c 0.65092,-0.375805 1.05274,-1.070655 1.05274,-1.822266 v -4.859375 -4.857421 c 0,-0.751611 -0.40182,-1.446461 -1.05274,-1.822266 L 545.08203,27.1875 c -0.32546,-0.187903 -0.68952,-0.28125 -1.05273,-0.28125 z m 42.95703,1.363281 c -0.32131,0 -0.64179,0.08378 -0.92969,0.25 l -7.44531,4.296875 c -0.57581,0.332443 -0.92969,0.948396 -0.92969,1.613281 v 4.296875 4.298829 c 0,0.664886 0.35388,1.278885 0.92969,1.611328 l 7.44531,4.296875 c 0.57581,0.332443 1.28552,0.332443 1.86133,0 l 7.44336,-4.296875 c 0.57581,-0.332443 0.93164,-0.946442 0.93164,-1.611328 v -4.298829 -4.296875 c 0,-0.664885 -0.35583,-1.280838 -0.93164,-1.613281 l -7.44336,-4.296875 c -0.28791,-0.166221 -0.61033,-0.25 -0.93164,-0.25 z m 42.95703,1.365235 c -0.2794,0 -0.55824,0.07226 -0.80859,0.216796 l -6.47266,3.736329 c -0.5007,0.28908 -0.80859,0.824182 -0.80859,1.402343 v 3.736328 3.738282 c 0,0.578161 0.30789,1.11131 0.80859,1.40039 l 6.47266,3.738282 c 0.5007,0.28908 1.11843,0.28908 1.61914,0 l 6.47265,-3.738282 c 0.50071,-0.28908 0.8086,-0.822229 0.8086,-1.40039 v -3.738282 -3.736328 c 0,-0.578161 -0.30789,-1.113263 -0.8086,-1.402343 l -6.47265,-3.736329 c -0.25036,-0.14454 -0.53115,-0.216796 -0.81055,-0.216796 z m 42.95898,1.363281 c -0.23748,0 -0.4747,0.06073 -0.6875,0.183594 l -5.5039,3.177734 c -0.4256,0.245719 -0.6875,0.699969 -0.6875,1.191406 v 3.175781 3.177735 c 0,0.491437 0.2619,0.945687 0.6875,1.191406 l 5.5039,3.175781 c 0.4256,0.245719 0.94941,0.245719 1.375,0 l 5.50196,-3.175781 c 0.42559,-0.245719 0.6875,-0.699969 0.6875,-1.191406 v -3.177735 -3.175781 c 0,-0.491437 -0.26191,-0.945687 -0.6875,-1.191406 l -5.50196,-3.177734 c -0.21279,-0.12286 -0.45001,-0.183594 -0.6875,-0.183594 z M 302.87223,79.02995 v 15.322928 c 0,1.185233 -0.63231,2.280433 -1.65876,2.873049 l -13.27004,7.661463 c -1.02644,0.59262 -2.29107,0.59262 -3.31751,0 l -13.27005,-7.661462 c -1.02644,-0.592617 -1.65875,-1.687817 -1.65875,-2.873049 V 79.029951 c 0,-1.185233 0.63231,-2.280433 1.65875,-2.873049 l 13.27005,-7.661464 c 1.02644,-0.592617 2.29107,-0.592617 3.31751,0 l 13.27004,7.661463 c 1.02645,0.592617 1.65876,1.687817 1.65876,2.873049 z m 0,-80.6060374 V -16.899015 c 0,-1.185233 -0.63231,-2.280433 -1.65876,-2.873049 l -13.27004,-7.661464 c -1.02644,-0.592617 -2.29107,-0.592617 -3.31751,0 l -13.27005,7.661463 c -1.02644,0.592617 -1.65875,1.687817 -1.65875,2.873049 v 15.3229284 c 0,1.18523263 0.63231,2.28043272 1.65875,2.873049 l 13.27005,7.6614641 c 1.02644,0.5926163 2.29107,0.5926163 3.31751,0 l 13.27004,-7.6614639 c 1.02645,-0.59261634 1.65876,-1.68781643 1.65876,-2.873049 z m 41.74373,81.1666324 v 14.201738 c 0,1.098509 -0.58605,2.113572 -1.53738,2.662826 l -12.29907,7.100871 c -0.95133,0.54925 -2.12343,0.54925 -3.07477,0 l -12.29906,-7.100871 c -0.95134,-0.549254 -1.53738,-1.564317 -1.53738,-2.662825 V 79.590545 c 0,-1.098508 0.58604,-2.113571 1.53738,-2.662825 l 12.29906,-7.10087 c 0.95134,-0.549254 2.12344,-0.549254 3.07477,0 l 12.29907,7.100869 c 0.95133,0.549255 1.53738,1.564318 1.53738,2.662826 z m 0,-81.7272274 V -16.33842 c 0,-1.098509 -0.58605,-2.113572 -1.53738,-2.662826 l -12.29907,-7.100869 c -0.95133,-0.549255 -2.12343,-0.549255 -3.07477,0 l -12.29906,7.100869 c -0.95134,0.549254 -1.53738,1.564317 -1.53738,2.662825 v 14.2017385 c 0,1.0985083 0.58604,2.11357177 1.53738,2.66282591 l 12.29906,7.10086909 c 0.95134,0.5492541 2.12344,0.5492542 3.07477,0 l 12.29907,-7.10086897 c 0.95133,-0.54925413 1.53738,-1.56431763 1.53738,-2.66282593 z M 386.35969,80.15114 v 13.080549 c 0,1.011783 -0.53978,1.94671 -1.41601,2.452602 l -11.32809,6.540279 c -0.87623,0.50589 -1.95579,0.50589 -2.83202,0 l -11.32809,-6.540279 c -0.87623,-0.505892 -1.41601,-1.440818 -1.41601,-2.452602 V 80.15114 c 0,-1.011784 0.53978,-1.94671 1.41601,-2.452602 l 11.32809,-6.540275 c 0.87623,-0.505892 1.95579,-0.505892 2.83202,0 l 11.32809,6.540274 c 0.87623,0.505892 1.41601,1.440819 1.41601,2.452603 z m 0,-82.8484173 V -15.777826 c 0,-1.011783 -0.53978,-1.94671 -1.41601,-2.452602 l -11.32809,-6.540275 c -0.87623,-0.505891 -1.95579,-0.505891 -2.83202,0 l -11.32809,6.540275 c -0.87623,0.505892 -1.41601,1.440818 -1.41601,2.452602 v 13.0805486 c 0,1.0117839 0.53978,1.94671082 1.41601,2.45260279 l 11.32809,6.54027421 c 0.87623,0.5058919 1.95579,0.5058919 2.83202,0 l 11.32809,-6.5402741 c 0.87623,-0.50589196 1.41601,-1.4408189 1.41601,-2.4526028 z m 41.74373,83.4090123 v 11.959359 c 0,0.925059 -0.49351,1.77985 -1.29464,2.242379 l -10.35711,5.979677 c -0.80112,0.46253 -1.78815,0.46253 -2.58927,0 l -10.35711,-5.979677 c -0.80113,-0.462529 -1.29464,-1.31732 -1.29464,-2.242379 V 80.711735 c 0,-0.925059 0.49351,-1.77985 1.29464,-2.242379 l 10.35711,-5.97968 c 0.80112,-0.462529 1.78815,-0.462529 2.58927,0 l 10.35711,5.97968 c 0.80113,0.462529 1.29464,1.31732 1.29464,2.242379 z m 0,-83.9696072 V -15.217231 c 0,-0.925059 -0.49351,-1.77985 -1.29464,-2.242379 l -10.35711,-5.97968 c -0.80112,-0.462529 -1.78815,-0.462529 -2.58927,0 l -10.35711,5.97968 c -0.80113,0.462529 -1.29464,1.31732 -1.29464,2.242379 v 11.9593587 c 0,0.9250596 0.49351,1.7798499 1.29464,2.2423797 l 10.35711,5.9796792 c 0.80112,0.4625298 1.78815,0.4625298 2.58927,0 l 10.35711,-5.9796791 c 0.80113,-0.4625298 1.29464,-1.3173201 1.29464,-2.2423797 z M 469.84715,81.27233 v 10.838169 c 0,0.838335 -0.44725,1.612989 -1.17326,2.032156 l -9.38613,5.419085 c -0.72602,0.419167 -1.62052,0.419167 -2.34654,0 l -9.38613,-5.419085 c -0.72602,-0.419167 -1.17326,-1.193821 -1.17326,-2.032156 V 81.27233 c 0,-0.838335 0.44724,-1.612989 1.17326,-2.032156 l 9.38613,-5.419085 c 0.72602,-0.419167 1.62052,-0.419167 2.34654,0 l 9.38613,5.419085 c 0.72601,0.419167 1.17326,1.193821 1.17326,2.032156 z m 0,-85.0907971 V -14.656636 c 0,-0.838335 -0.44725,-1.612989 -1.17326,-2.032156 l -9.38613,-5.419085 c -0.72602,-0.419167 -1.62052,-0.419167 -2.34654,0 l -9.38613,5.419085 c -0.72602,0.419167 -1.17326,1.193821 -1.17326,2.032156 v 10.8381687 c 0,0.8383353 0.44724,1.612989 1.17326,2.0321567 l 9.38613,5.4190843 c 0.72602,0.4191676 1.62052,0.4191676 2.34654,0 l 9.38613,-5.4190843 c 0.72601,-0.4191676 1.17326,-1.1938213 1.17326,-2.0321565 z m 41.74373,85.6513921 v 9.716979 c 0,0.751611 -0.40098,1.446128 -1.05189,1.821933 l -8.41515,4.85849 c -0.65092,0.375805 -1.45288,0.375805 -2.10379,0 l -8.41515,-4.85849 c -0.65091,-0.375805 -1.05189,-1.070322 -1.05189,-1.821933 v -9.716979 c 0,-0.751611 0.40098,-1.446128 1.05189,-1.821933 l 8.41515,-4.85849 c 0.65091,-0.375805 1.45287,-0.375805 2.10379,0 l 8.41515,4.85849 c 0.65091,0.375805 1.05189,1.070322 1.05189,1.821933 z m 0,-86.2119871 v -9.7169789 c 0,-0.751611 -0.40098,-1.446128 -1.05189,-1.821933 l -8.41515,-4.85849 c -0.65092,-0.375805 -1.45288,-0.375805 -2.10379,0 l -8.41515,4.85849 c -0.65091,0.375805 -1.05189,1.070322 -1.05189,1.821933 v 9.7169788 c 0,0.7516109 0.40098,1.4461281 1.05189,1.8219335 l 8.41515,4.8584894 c 0.65091,0.3758055 1.45287,0.3758055 2.10379,0 l 8.41515,-4.8584893 c 0.65091,-0.3758054 1.05189,-1.0703226 1.05189,-1.8219335 z M 553.33461,82.39352 v 8.595789 c 0,0.664886 -0.35471,1.279267 -0.93052,1.61171 l -7.44417,4.297895 c -0.57581,0.332443 -1.28524,0.332443 -1.86104,0 l -7.44418,-4.297895 c -0.5758,-0.332443 -0.93052,-0.946823 -0.93052,-1.61171 V 82.39352 c 0,-0.664886 0.35472,-1.279267 0.93052,-1.61171 l 7.44418,-4.297895 c 0.5758,-0.332443 1.28523,-0.332443 1.86104,0 l 7.44417,4.297895 c 0.57581,0.332443 0.93052,0.946823 0.93052,1.61171 z m 0,-87.333177 v -8.595789 c 0,-0.664886 -0.35471,-1.279267 -0.93052,-1.61171 l -7.44417,-4.297895 c -0.57581,-0.332443 -1.28524,-0.332443 -1.86104,0 l -7.44418,4.297895 c -0.5758,0.332443 -0.93052,0.946823 -0.93052,1.61171 v 8.5957889 c 0,0.6648866 0.35472,1.2792671 0.93052,1.6117104 l 7.44418,4.29789448 c 0.5758,0.33244332 1.28523,0.33244332 1.86104,10e-9 l 7.44417,-4.29789439 c 0.57581,-0.3324433 0.93052,-0.9468238 0.93052,-1.6117104 z m 41.74373,87.893772 v 7.474599 c 0,0.578162 -0.30844,1.112406 -0.80915,1.401487 l -6.47319,3.7373 c -0.5007,0.289081 -1.11759,0.289081 -1.6183,0 l -6.47319,-3.7373 c -0.5007,-0.289081 -0.80915,-0.823325 -0.80915,-1.401487 v -7.474599 c 0,-0.578162 0.30845,-1.112406 0.80915,-1.401487 l 6.47319,-3.7373 c 0.50071,-0.289081 1.1176,-0.289081 1.6183,0 l 6.47319,3.7373 c 0.50071,0.289081 0.80915,0.823325 0.80915,1.401487 z m 0,-88.4543669 v -7.4745991 c 0,-0.578162 -0.30844,-1.112406 -0.80915,-1.401487 l -6.47319,-3.7373 c -0.5007,-0.289081 -1.11759,-0.289081 -1.6183,0 l -6.47319,3.7373 c -0.5007,0.289081 -0.80915,0.823325 -0.80915,1.401487 v 7.474599 c 0,0.5781622 0.30845,1.1124062 0.80915,1.4014873 l 6.47319,3.73729953 c 0.50071,0.28908113 1.1176,0.28908113 1.6183,10e-9 l 6.47319,-3.73729944 c 0.50071,-0.2890812 0.80915,-0.8233251 0.80915,-1.4014873 z M 636.82207,83.51471 v 6.353409 c 0,0.491438 -0.26218,0.945545 -0.68777,1.191264 l -5.50222,3.176705 c -0.4256,0.245719 -0.94995,0.245719 -1.37555,0 l -5.50221,-3.176705 c -0.4256,-0.245719 -0.68778,-0.699826 -0.68778,-1.191264 V 83.51471 c 0,-0.491438 0.26218,-0.945545 0.68778,-1.191264 l 5.50221,-3.176705 c 0.4256,-0.245719 0.94995,-0.245719 1.37555,0 l 5.50222,3.176705 c 0.42559,0.245719 0.68777,0.699826 0.68777,1.191264 z m 0,-89.5755569 v -6.3534091 c 0,-0.491438 -0.26218,-0.945545 -0.68777,-1.191264 l -5.50222,-3.176705 c -0.4256,-0.245719 -0.94995,-0.245719 -1.37555,0 l -5.50221,3.176705 c -0.4256,0.245719 -0.68778,0.699826 -0.68778,1.191264 v 6.3534091 c 0,0.4914379 0.26218,0.9455452 0.68778,1.1912642 l 5.50221,3.1767046 c 0.4256,0.2457189 0.94995,0.2457189 1.37555,0 l 5.50222,-3.1767046 c 0.42559,-0.2457189 0.68777,-0.6998263 0.68777,-1.1912642 z M 218.17105,126.43384 v 16.44412 c 0,1.27196 -0.67858,2.44729 -1.78013,3.08327 l -14.24103,8.22206 c -1.10154,0.63598 -2.4587,0.63598 -3.56025,0 l -14.24103,-8.22206 c -1.10154,-0.63598 -1.78012,-1.81131 -1.78012,-3.08327 v -16.44412 c 0,-1.27196 0.67858,-2.44729 1.78012,-3.08327 l 14.24103,-8.22206 c 1.10155,-0.63598 2.45871,-0.63598 3.56025,0 l 14.24103,8.22206 c 1.10154,0.63598 1.78013,1.81131 1.78013,3.08327 z m 0,-175.413818 v -16.444118 c 0,-1.271957 -0.67858,-2.447294 -1.78013,-3.083272 l -14.24103,-8.222059 c -1.10154,-0.635979 -2.4587,-0.635979 -3.56025,0 l -14.24103,8.222059 c -1.10154,0.635978 -1.78012,1.811315 -1.78012,3.083272 v 16.444118 c 0,1.271957 0.67858,2.447293 1.78012,3.083272 l 14.24103,8.222059 c 1.10155,0.635978 2.45871,0.635978 3.56025,0 l 14.24103,-8.222059 c 1.10154,-0.635979 1.78013,-1.811315 1.78013,-3.083272 z m 41.74373,175.974418 v 15.32292 c 0,1.18524 -0.63232,2.28044 -1.65876,2.87305 l -13.27004,7.66147 c -1.02645,0.59261 -2.29107,0.59261 -3.31752,0 l -13.27004,-7.66147 c -1.02644,-0.59261 -1.65876,-1.68781 -1.65876,-2.87305 v -15.32292 c 0,-1.18524 0.63232,-2.28044 1.65876,-2.87305 l 13.27004,-7.66147 c 1.02645,-0.59261 2.29107,-0.59261 3.31752,0 l 13.27004,7.66147 c 1.02644,0.59261 1.65876,1.68781 1.65876,2.87305 z m 0,-176.535013 v -15.322928 c 0,-1.185233 -0.63232,-2.280433 -1.65876,-2.873049 l -13.27004,-7.661464 c -1.02645,-0.592616 -2.29107,-0.592616 -3.31752,0 l -13.27004,7.661464 c -1.02644,0.592616 -1.65876,1.687816 -1.65876,2.873049 v 15.322928 c 0,1.185232 0.63232,2.280432 1.65876,2.873049 l 13.27004,7.661464 c 1.02645,0.592616 2.29107,0.592616 3.31752,0 l 13.27004,-7.661464 c 1.02644,-0.592617 1.65876,-1.687817 1.65876,-2.873049 z m 41.74373,177.095603 v 14.20174 c 0,1.09851 -0.58605,2.11357 -1.53739,2.66283 l -12.29906,7.10086 c -0.95134,0.54926 -2.12343,0.54926 -3.07477,0 l -12.29907,-7.10086 c -0.95133,-0.54926 -1.53738,-1.56432 -1.53738,-2.66283 v -14.20174 c 0,-1.09851 0.58605,-2.11357 1.53738,-2.66282 l 12.29907,-7.10087 c 0.95134,-0.54926 2.12343,-0.54926 3.07477,0 l 12.29906,7.10087 c 0.95134,0.54925 1.53739,1.56431 1.53739,2.66282 z m 0,-177.656198 v -14.201738 c 0,-1.098508 -0.58605,-2.113572 -1.53739,-2.662826 l -12.29906,-7.100869 c -0.95134,-0.549254 -2.12343,-0.549254 -3.07477,0 l -12.29907,7.100869 c -0.95133,0.549254 -1.53738,1.564317 -1.53738,2.662826 v 14.201738 c 0,1.098508 0.58605,2.113572 1.53738,2.662826 l 12.29907,7.100869 c 0.95134,0.549254 2.12343,0.549254 3.07477,0 l 12.29906,-7.100869 c 0.95134,-0.549254 1.53739,-1.564318 1.53739,-2.662826 z m 41.74373,178.216798 v 13.08054 c 0,1.01179 -0.53978,1.94672 -1.41601,2.45261 l -11.32809,6.54027 c -0.87623,0.50589 -1.95579,0.50589 -2.83202,0 l -11.32809,-6.54027 c -0.87623,-0.50589 -1.41601,-1.44082 -1.41601,-2.45261 v -13.08054 c 0,-1.01179 0.53978,-1.94671 1.41601,-2.45261 l 11.32809,-6.54027 c 0.87623,-0.50589 1.95579,-0.50589 2.83202,0 l 11.32809,6.54027 c 0.87623,0.5059 1.41601,1.44082 1.41601,2.45261 z m 0,-178.777393 v -13.080548 c 0,-1.011784 -0.53978,-1.946711 -1.41601,-2.452603 l -11.32809,-6.540274 c -0.87623,-0.505892 -1.95579,-0.505892 -2.83202,0 l -11.32809,6.540274 c -0.87623,0.505892 -1.41601,1.440819 -1.41601,2.452603 v 13.080548 c 0,1.011784 0.53978,1.946711 1.41601,2.452603 l 11.32809,6.540274 c 0.87623,0.505892 1.95579,0.505892 2.83202,0 l 11.32809,-6.540274 c 0.87623,-0.505892 1.41601,-1.440819 1.41601,-2.452603 z m 41.74373,179.337983 v 11.95936 c 0,0.92506 -0.49352,1.77985 -1.29464,2.24238 l -10.35711,5.97968 c -0.80112,0.46253 -1.78815,0.46253 -2.58928,0 l -10.3571,-5.97968 c -0.80113,-0.46253 -1.29464,-1.31732 -1.29464,-2.24238 v -11.95936 c 0,-0.92506 0.49351,-1.77985 1.29464,-2.24238 l 10.3571,-5.97968 c 0.80113,-0.46253 1.78816,-0.46253 2.58928,0 l 10.35711,5.97968 c 0.80112,0.46253 1.29464,1.31732 1.29464,2.24238 z m 0,-179.898578 v -11.959358 c 0,-0.92506 -0.49352,-1.77985 -1.29464,-2.24238 l -10.35711,-5.979679 c -0.80112,-0.46253 -1.78815,-0.46253 -2.58928,0 l -10.3571,5.979679 c -0.80113,0.46253 -1.29464,1.31732 -1.29464,2.24238 v 11.959358 c 0,0.925059 0.49351,1.77985 1.29464,2.24238 l 10.3571,5.979679 c 0.80113,0.46253 1.78816,0.46253 2.58928,0 l 10.35711,-5.979679 c 0.80112,-0.46253 1.29464,-1.31732 1.29464,-2.24238 z M 426.8897,129.23682 v 10.83816 c 0,0.83834 -0.44725,1.61299 -1.17327,2.03216 l -9.38613,5.41909 c -0.72602,0.41916 -1.62051,0.41916 -2.34653,0 l -9.38613,-5.41909 c -0.72602,-0.41917 -1.17327,-1.19382 -1.17327,-2.03216 v -10.83816 c 0,-0.83834 0.44725,-1.61299 1.17327,-2.03216 l 9.38613,-5.41908 c 0.72602,-0.41917 1.62051,-0.41917 2.34653,0 l 9.38613,5.41908 c 0.72602,0.41917 1.17327,1.19382 1.17327,2.03216 z m 0,-181.019773 v -10.838168 c 0,-0.838336 -0.44725,-1.612989 -1.17327,-2.032157 l -9.38613,-5.419084 c -0.72602,-0.419168 -1.62051,-0.419168 -2.34653,0 l -9.38613,5.419084 c -0.72602,0.419167 -1.17327,1.193821 -1.17327,2.032156 v 10.838169 c 0,0.838335 0.44725,1.612989 1.17327,2.032157 l 9.38613,5.419084 c 0.72602,0.419168 1.62051,0.419168 2.34653,0 l 9.38613,-5.419084 c 0.72602,-0.419168 1.17327,-1.193822 1.17327,-2.032157 z m 41.74373,181.580363 v 9.71698 c 0,0.75161 -0.40098,1.44613 -1.0519,1.82193 l -8.41515,4.85849 c -0.65091,0.37581 -1.45287,0.37581 -2.10378,0 l -8.41515,-4.85849 c -0.65092,-0.3758 -1.0519,-1.07032 -1.0519,-1.82193 v -9.71698 c 0,-0.75161 0.40098,-1.44613 1.0519,-1.82193 l 8.41515,-4.85849 c 0.65091,-0.37581 1.45287,-0.37581 2.10378,0 l 8.41515,4.85849 c 0.65092,0.3758 1.0519,1.07032 1.0519,1.82193 z m 0,-182.140958 v -9.716979 c 0,-0.75161 -0.40098,-1.446128 -1.0519,-1.821933 l -8.41515,-4.858489 c -0.65091,-0.375806 -1.45287,-0.375806 -2.10378,0 l -8.41515,4.858489 c -0.65092,0.375805 -1.0519,1.070322 -1.0519,1.821933 v 9.716979 c 0,0.751611 0.40098,1.446128 1.0519,1.821934 l 8.41515,4.858489 c 0.65091,0.375805 1.45287,0.375805 2.10378,0 l 8.41515,-4.858489 c 0.65092,-0.375806 1.0519,-1.070323 1.0519,-1.821934 z m 41.74373,182.701558 v 8.59578 c 0,0.66489 -0.35471,1.27927 -0.93052,1.61172 l -7.44417,4.29789 c -0.57581,0.33244 -1.28524,0.33244 -1.86105,0 l -7.44417,-4.29789 c -0.57581,-0.33245 -0.93052,-0.94683 -0.93052,-1.61172 v -8.59578 c 0,-0.66489 0.35471,-1.27927 0.93052,-1.61171 l 7.44417,-4.2979 c 0.57581,-0.33244 1.28524,-0.33244 1.86105,0 l 7.44417,4.2979 c 0.57581,0.33244 0.93052,0.94682 0.93052,1.61171 z m 0,-183.262153 v -8.595789 c 0,-0.664886 -0.35471,-1.279267 -0.93052,-1.61171 l -7.44417,-4.297894 c -0.57581,-0.332444 -1.28524,-0.332444 -1.86105,-10e-7 l -7.44417,4.297895 c -0.57581,0.332443 -0.93052,0.946824 -0.93052,1.61171 v 8.595789 c 0,0.664887 0.35471,1.279267 0.93052,1.611711 l 7.44417,4.297894 c 0.57581,0.332443 1.28524,0.332443 1.86105,0 l 7.44417,-4.297894 c 0.57581,-0.332444 0.93052,-0.946824 0.93052,-1.611711 z M 552.12089,130.9186 v 7.4746 c 0,0.57816 -0.30845,1.11241 -0.80915,1.40149 l -6.47319,3.7373 c -0.50071,0.28908 -1.1176,0.28908 -1.6183,0 l -6.47319,-3.7373 c -0.50071,-0.28908 -0.80915,-0.82333 -0.80915,-1.40149 v -7.4746 c 0,-0.57816 0.30844,-1.11241 0.80915,-1.40149 l 6.47319,-3.7373 c 0.5007,-0.28908 1.11759,-0.28908 1.6183,0 l 6.47319,3.7373 c 0.5007,0.28908 0.80915,0.82333 0.80915,1.40149 z m 0,-184.383338 v -7.474599 c 0,-0.578162 -0.30845,-1.112406 -0.80915,-1.401487 l -6.47319,-3.7373 c -0.50071,-0.289081 -1.1176,-0.289081 -1.6183,0 l -6.47319,3.7373 c -0.50071,0.289081 -0.80915,0.823325 -0.80915,1.401487 v 7.474599 c 0,0.578162 0.30844,1.112406 0.80915,1.401488 l 6.47319,3.737299 c 0.5007,0.289081 1.11759,0.289081 1.6183,0 l 6.47319,-3.737299 c 0.5007,-0.289082 0.80915,-0.823325 0.80915,-1.401488 z M 216.95732,174.95892 v 15.32293 c 0,1.18523 -0.63231,2.28043 -1.65875,2.87305 l -13.27005,7.66146 c -1.02644,0.59262 -2.29107,0.59262 -3.31751,0 l -13.27004,-7.66146 c -1.02645,-0.59262 -1.65876,-1.68782 -1.65876,-2.87305 v -15.32293 c 0,-1.18523 0.63231,-2.28043 1.65876,-2.87305 l 13.27004,-7.66146 c 1.02644,-0.59262 2.29107,-0.59262 3.31751,0 l 13.27005,7.66146 c 1.02644,0.59262 1.65875,1.68782 1.65875,2.87305 z m 0,-272.463979 v -15.322931 c 0,-1.18523 -0.63231,-2.28043 -1.65875,-2.87305 l -13.27005,-7.66146 c -1.02644,-0.59262 -2.29107,-0.59262 -3.31751,0 l -13.27004,7.66146 c -1.02645,0.59262 -1.65876,1.68782 -1.65876,2.87305 v 15.322931 c 0,1.185232 0.63231,2.280433 1.65876,2.873049 l 13.27004,7.661464 c 1.02644,0.592616 2.29107,0.592616 3.31751,0 l 13.27005,-7.661464 c 1.02644,-0.592616 1.65875,-1.687816 1.65875,-2.873049 z m 41.74373,273.024579 v 14.20173 c 0,1.09851 -0.58604,2.11358 -1.53738,2.66283 l -12.29907,7.10087 c -0.95133,0.54925 -2.12343,0.54925 -3.07476,0 l -12.29907,-7.10087 c -0.95134,-0.54925 -1.53738,-1.56432 -1.53738,-2.66282 v -14.20174 c 0,-1.09851 0.58604,-2.11357 1.53738,-2.66283 l 12.29907,-7.10087 c 0.95133,-0.54925 2.12343,-0.54925 3.07476,0 l 12.29907,7.10087 c 0.95134,0.54926 1.53738,1.56432 1.53738,2.66283 z m 0,-273.585174 v -14.201736 c 0,-1.09851 -0.58604,-2.11357 -1.53738,-2.66283 l -12.29907,-7.10087 c -0.95133,-0.54925 -2.12343,-0.54925 -3.07476,0 l -12.29907,7.10087 c -0.95134,0.54926 -1.53738,1.56432 -1.53738,2.66283 v 14.201736 c 0,1.098508 0.58604,2.113572 1.53738,2.662826 l 12.29907,7.100869 c 0.95133,0.549254 2.12343,0.549254 3.07476,0 l 12.29907,-7.100869 c 0.95134,-0.549254 1.53738,-1.564318 1.53738,-2.662826 z m 41.74373,274.145764 v 13.08055 c 0,1.01178 -0.53978,1.94671 -1.41601,2.4526 l -11.32808,6.54028 c -0.87624,0.50589 -1.9558,0.50589 -2.83203,0 l -11.32808,-6.54028 c -0.87623,-0.50589 -1.41601,-1.44082 -1.41601,-2.4526 v -13.08055 c 0,-1.01178 0.53978,-1.94671 1.41601,-2.4526 l 11.32808,-6.54028 c 0.87623,-0.50589 1.95579,-0.50589 2.83202,0 l 11.32809,6.54028 c 0.87623,0.50589 1.41601,1.44082 1.41601,2.4526 z m 0,-274.706359 V -111.7068 c 0,-1.01178 -0.53978,-1.94671 -1.41601,-2.4526 l -11.32808,-6.54027 c -0.87624,-0.5059 -1.9558,-0.5059 -2.83203,0 l -11.32808,6.54027 c -0.87623,0.50589 -1.41601,1.44082 -1.41601,2.4526 v 13.080551 c 0,1.011784 0.53978,1.946711 1.41601,2.452603 l 11.32808,6.540274 c 0.87623,0.505892 1.95579,0.505892 2.83202,0 l 11.32809,-6.540274 c 0.87623,-0.505892 1.41601,-1.440819 1.41601,-2.452603 z m 41.74373,275.266959 v 11.95936 c 0,0.92505 -0.49351,1.77985 -1.29464,2.24237 l -10.3571,5.97968 c -0.80113,0.46253 -1.78816,0.46253 -2.58928,0 l -10.35711,-5.97968 c -0.80112,-0.46252 -1.29464,-1.31732 -1.29464,-2.24237 v -11.95936 c 0,-0.92506 0.49352,-1.77985 1.29464,-2.24238 l 10.35711,-5.97968 c 0.80112,-0.46253 1.78815,-0.46253 2.58928,0 l 10.3571,5.97968 c 0.80113,0.46253 1.29464,1.31732 1.29464,2.24238 z m 0,-275.827554 V -111.1462 c 0,-0.92506 -0.49351,-1.77985 -1.29464,-2.24238 l -10.3571,-5.97968 c -0.80113,-0.46253 -1.78816,-0.46253 -2.58928,0 l -10.35711,5.97968 c -0.80112,0.46253 -1.29464,1.31732 -1.29464,2.24238 v 11.959356 c 0,0.92506 0.49352,1.77985 1.29464,2.24238 l 10.35711,5.979679 c 0.80112,0.46253 1.78815,0.46253 2.58928,0 l 10.3571,-5.979679 c 0.80113,-0.46253 1.29464,-1.31732 1.29464,-2.24238 z M 383.93224,177.2013 v 10.83817 c 0,0.83834 -0.44724,1.61299 -1.17326,2.03216 l -9.38613,5.41908 c -0.72602,0.41917 -1.62051,0.41917 -2.34653,0 l -9.38613,-5.41908 c -0.72602,-0.41917 -1.17327,-1.19382 -1.17327,-2.03216 V 177.2013 c 0,-0.83833 0.44725,-1.61299 1.17327,-2.03215 l 9.38613,-5.41909 c 0.72602,-0.41917 1.62051,-0.41917 2.34653,0 l 9.38613,5.41909 c 0.72602,0.41916 1.17326,1.19382 1.17326,2.03215 z m 0,-276.948739 v -10.838171 c 0,-0.83833 -0.44724,-1.61299 -1.17326,-2.03215 l -9.38613,-5.41909 c -0.72602,-0.41917 -1.62051,-0.41917 -2.34653,0 l -9.38613,5.41909 c -0.72602,0.41916 -1.17327,1.19382 -1.17327,2.03215 v 10.838171 c 0,0.838335 0.44725,1.612989 1.17327,2.032157 l 9.38613,5.419084 c 0.72602,0.419168 1.62051,0.419168 2.34653,0 l 9.38613,-5.419084 c 0.72602,-0.419168 1.17326,-1.193821 1.17326,-2.032157 z M 425.67597,177.7619 v 9.71698 c 0,0.75161 -0.40098,1.44612 -1.05189,1.82193 l -8.41515,4.85849 c -0.65091,0.3758 -1.45287,0.3758 -2.10379,0 l -8.41515,-4.85849 c -0.65091,-0.37581 -1.05189,-1.07032 -1.05189,-1.82193 v -9.71698 c 0,-0.75161 0.40098,-1.44613 1.05189,-1.82194 l 8.41515,-4.85849 c 0.65092,-0.3758 1.45288,-0.3758 2.10379,0 l 8.41515,4.85849 c 0.65091,0.37581 1.05189,1.07033 1.05189,1.82194 z m 0,-278.06993 v -9.71698 c 0,-0.75161 -0.40098,-1.44613 -1.05189,-1.82194 l -8.41515,-4.85849 c -0.65091,-0.3758 -1.45287,-0.3758 -2.10379,0 l -8.41515,4.85849 c -0.65091,0.37581 -1.05189,1.07033 -1.05189,1.82194 v 9.71698 c 0,0.751607 0.40098,1.446124 1.05189,1.82193 l 8.41515,4.858489 c 0.65092,0.375806 1.45288,0.375806 2.10379,0 l 8.41515,-4.858489 c 0.65091,-0.375806 1.05189,-1.070323 1.05189,-1.82193 z m 41.74373,278.63052 v 8.59579 c 0,0.66489 -0.35471,1.27927 -0.93052,1.61171 l -7.44417,4.2979 c -0.57581,0.33244 -1.28523,0.33244 -1.86104,0 l -7.44417,-4.2979 c -0.57581,-0.33244 -0.93052,-0.94682 -0.93052,-1.61171 v -8.59579 c 0,-0.66488 0.35471,-1.27927 0.93052,-1.61171 l 7.44417,-4.29789 c 0.57581,-0.33245 1.28523,-0.33245 1.86104,0 l 7.44417,4.29789 c 0.57581,0.33244 0.93052,0.94682 0.93052,1.61171 z m 0,-279.19112 v -8.59579 c 0,-0.66488 -0.35471,-1.27926 -0.93052,-1.61171 l -7.44417,-4.29789 c -0.57581,-0.33245 -1.28523,-0.33245 -1.86104,0 l -7.44417,4.29789 c -0.57581,0.33245 -0.93052,0.94683 -0.93052,1.61171 v 8.59579 c 0,0.66489 0.35471,1.279268 0.93052,1.611712 l 7.44417,4.297894 c 0.57581,0.332444 1.28523,0.332444 1.86104,0 l 7.44417,-4.297894 c 0.57581,-0.332443 0.93052,-0.946822 0.93052,-1.611712 z M 215.7436,223.484 v 14.20174 c 0,1.09851 -0.58605,2.11357 -1.53738,2.66283 l -12.29907,7.10087 c -0.95134,0.54925 -2.12343,0.54925 -3.07477,0 l -12.29906,-7.10087 c -0.95134,-0.54926 -1.53739,-1.56432 -1.53739,-2.66283 V 223.484 c 0,-1.09851 0.58605,-2.11357 1.53739,-2.66282 l 12.29906,-7.10087 c 0.95134,-0.54926 2.12343,-0.54926 3.07477,0 l 12.29907,7.10087 c 0.95133,0.54925 1.53738,1.56431 1.53738,2.66282 z m 0,-369.51414 v -14.20174 c 0,-1.09851 -0.58605,-2.11357 -1.53738,-2.66282 l -12.29907,-7.10087 c -0.95134,-0.54926 -2.12343,-0.54926 -3.07477,0 l -12.29906,7.10087 c -0.95134,0.54925 -1.53739,1.56431 -1.53739,2.66282 v 14.20174 c 0,1.09851 0.58605,2.11357 1.53739,2.66283 l 12.29906,7.10087 c 0.95134,0.54925 2.12343,0.54925 3.07477,0 l 12.29907,-7.10087 c 0.95133,-0.54926 1.53738,-1.56432 1.53738,-2.66283 z m 41.74373,370.07474 v 13.08055 c 0,1.01178 -0.53978,1.94671 -1.41601,2.4526 l -11.32809,6.54027 c -0.87623,0.50589 -1.95579,0.50589 -2.83202,0 l -11.32809,-6.54027 c -0.87623,-0.50589 -1.41601,-1.44082 -1.41601,-2.4526 V 224.0446 c 0,-1.01179 0.53978,-1.94671 1.41601,-2.45261 l 11.32809,-6.54027 c 0.87623,-0.50589 1.95579,-0.50589 2.83202,0 l 11.32809,6.54027 c 0.87623,0.5059 1.41601,1.44082 1.41601,2.45261 z m 0,-370.63533 v -13.08055 c 0,-1.01179 -0.53978,-1.94671 -1.41601,-2.45261 l -11.32809,-6.54027 c -0.87623,-0.50589 -1.95579,-0.50589 -2.83202,0 l -11.32809,6.54027 c -0.87623,0.5059 -1.41601,1.44082 -1.41601,2.45261 v 13.08055 c 0,1.01178 0.53978,1.94671 1.41601,2.4526 l 11.32809,6.54027 c 0.87623,0.50589 1.95579,0.50589 2.83202,0 l 11.32809,-6.54027 c 0.87623,-0.50589 1.41601,-1.44082 1.41601,-2.4526 z m 41.74373,371.19592 v 11.95936 c 0,0.92506 -0.49351,1.77985 -1.29464,2.24238 l -10.35711,5.97968 c -0.80112,0.46253 -1.78815,0.46253 -2.58927,0 l -10.35711,-5.97968 c -0.80113,-0.46253 -1.29464,-1.31732 -1.29464,-2.24238 v -11.95936 c 0,-0.92506 0.49351,-1.77985 1.29464,-2.24238 l 10.35711,-5.97968 c 0.80112,-0.46253 1.78815,-0.46253 2.58927,0 l 10.35711,5.97968 c 0.80113,0.46253 1.29464,1.31732 1.29464,2.24238 z m 0,-371.75652 v -11.95936 c 0,-0.92506 -0.49351,-1.77985 -1.29464,-2.24238 l -10.35711,-5.97968 c -0.80112,-0.46253 -1.78815,-0.46253 -2.58927,0 l -10.35711,5.97968 c -0.80113,0.46253 -1.29464,1.31732 -1.29464,2.24238 v 11.95936 c 0,0.92506 0.49351,1.77985 1.29464,2.24238 l 10.35711,5.97968 c 0.80112,0.46253 1.78815,0.46253 2.58927,0 l 10.35711,-5.97968 c 0.80113,-0.46253 1.29464,-1.31732 1.29464,-2.24238 z m 41.74373,372.31712 v 10.83817 c 0,0.83833 -0.44725,1.61298 -1.17327,2.03215 l -9.38613,5.41909 c -0.72602,0.41916 -1.62051,0.41916 -2.34653,0 l -9.38613,-5.41909 c -0.72602,-0.41916 -1.17326,-1.19382 -1.17326,-2.03215 v -10.83817 c 0,-0.83834 0.44724,-1.61299 1.17326,-2.03216 l 9.38613,-5.41908 c 0.72602,-0.41917 1.62051,-0.41917 2.34653,0 l 9.38613,5.41908 c 0.72602,0.41917 1.17327,1.19382 1.17327,2.03216 z m 0,-372.87771 v -10.83817 c 0,-0.83834 -0.44725,-1.61299 -1.17327,-2.03216 l -9.38613,-5.41908 c -0.72602,-0.41917 -1.62051,-0.41917 -2.34653,0 l -9.38613,5.41908 c -0.72602,0.41917 -1.17326,1.19382 -1.17326,2.03216 v 10.83817 c 0,0.83833 0.44724,1.61298 1.17326,2.03215 l 9.38613,5.41909 c 0.72602,0.41916 1.62051,0.41916 2.34653,0 l 9.38613,-5.41909 c 0.72602,-0.41917 1.17327,-1.19382 1.17327,-2.03215 z m 41.74373,373.4383 v 9.71698 c 0,0.75161 -0.40098,1.44613 -1.05189,1.82193 l -8.41515,4.85849 c -0.65092,0.37581 -1.45288,0.37581 -2.10379,0 l -8.41515,-4.85849 c -0.65092,-0.3758 -1.0519,-1.07032 -1.0519,-1.82193 v -9.71698 c 0,-0.75161 0.40098,-1.44613 1.0519,-1.82193 l 8.41515,-4.85849 c 0.65091,-0.37581 1.45287,-0.37581 2.10379,0 l 8.41515,4.85849 c 0.65091,0.3758 1.05189,1.07032 1.05189,1.82193 z m 0,-373.9989 v -9.71698 c 0,-0.75161 -0.40098,-1.44613 -1.05189,-1.82193 l -8.41515,-4.85849 c -0.65092,-0.37581 -1.45288,-0.37581 -2.10379,0 l -8.41515,4.85849 c -0.65092,0.3758 -1.0519,1.07032 -1.0519,1.82193 v 9.71698 c 0,0.75161 0.40098,1.44613 1.0519,1.82193 l 8.41515,4.85849 c 0.65091,0.37581 1.45287,0.37581 2.10379,0 l 8.41515,-4.85849 c 0.65091,-0.3758 1.05189,-1.07032 1.05189,-1.82193 z"
       style="display:inline;fill:url(#radialGradient8472);fill-opacity:1;stroke:#000000;stroke-width:0.998673;stroke-linecap:round;stroke-linejoin:round;stroke-dasharray:none;stroke-dashoffset:0;stroke-opacity:1;paint-order:markers stroke fill"
       sodipodi:nodetypes="sccscsccccscsssssccscsccssscsscssccscsccccscsccssccscsccccscsccssccscsccccscsccssccscsccccscsccssccscsccccscsccssccscsccccscsccssccscsccccscsccssssscsccccscsccsssssssssssssssssssssssssssssssssssssssssssssssssssssssssssssssssssssssssssssssssssssssssssssssssssssssssssssssssssssssssssssssssssssssssssssssssssssssssssssssssssssssssssssssssssssssssssssssssssssssssssssssssssssssssssssssssssssssssssssssssssssssssssssssssssssssssssssssssssssssssssssssssssssssssssssssssssssssssssssssssssssssssssssssssssssssssssssssssssssssssssssssssssssssssssssssssssssssssssssssssssssssssssssssssssssssssssssssssssssssssssssssssssssssssssssssssssssssssssssssssssssssssssssssssssssssssssssssssssssssssssssssssssssssssssssssssssssssssssssssssssssssssssssssssssssssssssssssssssssssssssssssssssssssssssssssssssssssssssssssssssssssssssssssssssssssssssssssssssssssssssssssssssssssssssssssssssssssssssssssssssssssssssssssssssssssssssssssssssssssssssssssssssssssssssss" />
    <text
       xml:space="preserve"
       id="text6065"
       style="font-style:normal;font-variant:normal;font-weight:normal;font-stretch:normal;font-size:85.3333px;font-family:Orbitron;-inkscape-font-specification:'Orbitron, Normal ';font-variant-ligatures:normal;font-variant-caps:normal;font-variant-numeric:normal;font-variant-east-asian:normal;white-space:pre;shape-inside:url(#rect6067);display:inline;fill:#f1f1f1;fill-opacity:1;stroke:#000000;stroke-width:1;stroke-linecap:round;stroke-linejoin:round;stroke-dasharray:none;stroke-opacity:1;paint-order:markers stroke fill"
       transform="translate(196.22001,135.31893)"
       inkscape:label="name"><tspan
         x="202.05273"
         y="212.73695"
         id="tspan2">channels</tspan></text>
  </g>
</svg>
